<svg width="512" height="512" viewBox="0 0 512 512" fill="none" xmlns="http://www.w3.org/2000/svg">
<path d="M483.199 301.788C483.199 311.041 479.452 319.41 473.394 325.468C467.326 331.526 458.957 335.273 449.714 335.273H62.285C43.799 335.273 28.8 320.285 28.8 301.788C28.8 296.833 29.872 292.139 31.798 287.913C33.463 284.264 35.7684 280.943 38.605 278.108C44.673 272.05 53.042 268.303 62.285 268.303H449.715C463.257 268.303 474.925 276.338 480.202 287.913C482.185 292.27 483.207 297.002 483.199 301.788Z" fill="#884D00"/>
<path d="M480.202 287.913C478.533 291.557 476.228 294.874 473.395 297.708C467.327 303.766 458.958 307.513 449.715 307.513H62.285C48.754 307.513 37.086 299.478 31.798 287.914C33.4626 284.265 35.7681 280.944 38.605 278.109C44.673 272.051 53.042 268.304 62.285 268.304H449.715C463.256 268.303 474.924 276.339 480.202 287.913Z" fill="#AA6100"/>
<path d="M512 362.303C512 405.447 492.026 437.505 459.738 458.77C427.44 480.045 382.829 490.527 333.554 490.527H178.445C79.897 490.527 0 448.591 0 362.303C0 357.494 1.197 352.935 3.362 348.834C5.194 345.337 7.723 342.183 10.794 339.497C17.456 333.658 26.678 330.046 36.847 330.046H475.154C490.007 330.046 502.81 337.748 508.639 348.834C510.803 352.936 512 357.495 512 362.303Z" fill="#FFA733"/>
<path d="M508.638 348.835C501.685 377.563 484.261 399.941 459.738 416.095C427.44 437.37 382.829 447.852 333.554 447.852H178.445C91.741 447.852 19.485 415.398 3.362 348.835C5.194 345.338 7.723 342.184 10.794 339.498C17.456 333.659 26.678 330.047 36.847 330.047H475.154C490.007 330.047 502.809 337.75 508.638 348.835Z" fill="#FFB655"/>
<path d="M398.387 254.252L311.766 340.873C309.636 343.001 307.307 344.921 304.813 346.608C286.473 359.025 261.347 357.121 245.099 340.873L158.478 254.252H398.387Z" fill="#EEBF00"/>
<path d="M398.387 254.252L311.766 340.873C309.636 343.001 307.307 344.921 304.813 346.608C297.998 344.289 291.811 340.428 286.733 335.325L205.66 254.252H398.387Z" fill="#FFD422"/>
<path d="M502.278 266.336C502.278 270.874 501.529 275.516 499.905 280.044C493.545 297.791 476.517 304.681 463.246 294.876L447.331 283.125C436.225 274.913 422.059 278.275 414.023 291.036L413.346 292.108C405.633 304.369 392.185 308.012 381.204 300.83L345.565 277.525C337.342 272.154 327.485 272.737 319.7 279.076L291.139 302.308C282.937 308.98 272.487 309.261 264.066 303.026L231.487 278.878C223.16 272.706 212.835 272.903 204.664 279.398L175 302.954C167.037 309.272 157.024 309.636 148.791 303.922L110.383 277.234C102.826 271.988 93.719 271.842 86.058 276.849L50.232 300.279C26.375 303.35 14.77 285.832 14.77 285.832C9.056 275.902 8.483 264.13 11.575 254.252C15.249 242.449 24.149 233.352 35.723 233.352H476.289C487.634 233.352 496.7 242.314 500.427 254.2C501.66 258.127 502.284 262.22 502.278 266.336Z" fill="#6DC82A"/>
<path d="M500.426 254.2C500.27 254.72 500.093 255.23 499.906 255.751C493.546 273.508 476.518 280.399 463.247 270.594L447.332 258.832C436.226 250.63 422.06 253.992 414.024 266.743L413.347 267.825C405.634 280.086 392.186 283.729 381.205 276.547L345.566 253.242C337.343 247.861 327.486 248.454 319.701 254.793L291.14 278.025C282.938 284.697 272.488 284.968 264.067 278.733L231.488 254.585C223.161 248.413 212.836 248.621 204.665 255.105L175 278.67C167.037 284.978 157.024 285.352 148.791 279.638L110.383 252.95C102.826 247.694 93.719 247.548 86.058 252.565L50.232 275.984C26.375 279.065 14.77 261.537 14.77 261.537C13.4479 259.229 12.3768 256.787 11.575 254.251C15.249 242.448 24.149 233.35 35.723 233.35H476.289C487.633 233.351 496.699 242.313 500.426 254.2Z" fill="#7ED63E"/>
<path d="M493.389 211.93C493.461 215.296 493.029 218.653 492.109 221.891C488.081 235.922 475.153 246.185 459.832 246.185C399.67 246.185 239.429 244.832 215.261 245.633C214.72 245.654 214.179 245.675 213.648 245.685C183.13 246.84 176.177 251.732 176.177 268.001V327.528C176.177 330.588 174.938 333.367 172.93 335.376C171.902 336.407 170.68 337.225 169.335 337.782C167.99 338.339 166.548 338.625 165.092 338.623C158.961 338.623 153.996 343.588 153.996 349.719V375.647C153.996 378.28 153.684 380.831 153.08 383.287C149.656 397.464 136.863 407.987 121.5 407.987H120.678C103.212 407.987 89.077 393.8 89.129 376.334L89.275 329.402C89.2774 327.688 89.6179 325.991 90.277 324.408C90.9361 322.826 91.9008 321.389 93.116 320.18C94.3296 318.966 95.7707 318.004 97.3568 317.349C98.9429 316.693 100.643 316.357 102.359 316.36C109.583 316.36 115.443 310.5 115.443 303.276V268.001C115.443 255.948 105.68 246.185 93.627 246.185H52.803C34.432 246.185 18.975 231.686 18.6 213.315C18.225 194.465 33.401 179.06 52.168 179.06H459.166C477.547 179.06 493.025 193.559 493.389 211.93Z" fill="#FF3501"/>
<path d="M493.389 211.93C493.461 215.296 493.029 218.653 492.109 221.891C428.419 221.829 276.234 220.569 252.732 221.339C220.84 222.39 213.648 227.168 213.648 243.718V245.685C183.13 246.84 176.177 251.732 176.177 268.001V327.528C176.177 330.588 174.938 333.367 172.93 335.376C171.902 336.407 170.68 337.225 169.335 337.782C167.99 338.339 166.548 338.625 165.092 338.623C158.961 338.623 153.996 343.588 153.996 349.719V375.647C153.996 378.28 153.684 380.831 153.08 383.287C138.029 380.862 126.548 367.778 126.6 352.04L126.746 305.118C126.747 303.404 127.087 301.706 127.747 300.124C128.406 298.541 129.371 297.104 130.587 295.896C131.801 294.682 133.242 293.72 134.828 293.065C136.414 292.409 138.114 292.073 139.83 292.076C147.054 292.076 152.914 286.216 152.914 278.992V243.717C152.914 231.664 143.151 221.901 131.098 221.901H90.274C71.903 221.901 56.446 207.402 56.071 189.031C55.9981 185.661 56.4334 182.3 57.362 179.06H459.166C477.547 179.06 493.025 193.559 493.389 211.93Z" fill="#FF5023"/>
<path d="M301.371 144.94L227.105 219.237C219.663 226.679 210.888 231.977 201.541 235.11C178.496 242.896 152.017 237.598 133.677 219.237L59.381 144.94H301.371Z" fill="#EEBF00"/>
<path d="M301.371 144.94L227.105 219.237C219.663 226.679 210.888 231.977 201.541 235.11C192.204 231.977 183.43 226.679 175.998 219.237L101.701 144.94H301.371Z" fill="#FFD422"/>
<path d="M512 155.391C512 155.943 511.979 156.484 511.948 157.025C511.558 163.785 508.694 170.165 503.902 174.949C501.337 177.521 498.288 179.561 494.931 180.95C491.575 182.34 487.977 183.053 484.344 183.047H27.656C12.386 183.046 0 170.66 0 155.391C0 122.25 15.363 97.3 38.564 78.533C57.393 63.295 81.395 52.126 106.522 43.935C176.822 21.047 256 21.473 256 21.473C256 21.473 512 20.089 512 155.391Z" fill="#FFA733"/>
<path d="M512 155.391C512 155.943 511.979 156.484 511.948 157.025H83.862C68.593 157.025 56.206 144.639 56.206 129.369C56.206 96.228 71.569 71.278 94.77 52.512C98.496 49.493 102.42 46.642 106.521 43.935C176.822 21.047 256 21.473 256 21.473C256 21.473 512 20.089 512 155.391Z" fill="#FFB655"/>
<path d="M393.6 69.855C398.039 74.553 397.829 81.96 393.132 86.4C388.434 90.839 381.027 90.629 376.588 85.932C372.149 81.235 363.978 64.958 368.676 60.518C373.374 56.078 389.161 65.156 393.6 69.855ZM331.565 127.694C333.882 133.728 330.869 140.498 324.835 142.815C318.801 145.132 312.031 142.119 309.714 136.085C307.397 130.051 306.036 111.89 312.069 109.573C318.103 107.257 329.248 121.66 331.565 127.694ZM267.703 79.559C267.703 86.023 262.463 91.262 256 91.262C249.536 91.262 244.297 86.022 244.297 79.559C244.297 73.095 249.537 55.654 256 55.654C262.464 55.653 267.703 73.095 267.703 79.559ZM203.354 135.028C201.738 141.286 195.354 145.049 189.096 143.433C182.838 141.817 179.075 135.433 180.691 129.175C182.307 122.917 191.742 107.34 198.001 108.956C204.259 110.572 204.97 128.771 203.354 135.028ZM138.969 84.05C136.151 89.866 129.152 92.298 123.334 89.48C117.518 86.662 115.086 79.663 117.904 73.845C120.722 68.029 133.041 54.615 138.859 57.434C144.676 60.253 141.787 78.234 138.969 84.05Z" fill="#FFF5CC"/>
</svg>
