<svg width="512" height="512" viewBox="0 0 512 512" fill="none" xmlns="http://www.w3.org/2000/svg">
<g clip-path="url(#clip0_2_330)">
<path d="M320.826 0C262.772 0 215.562 46.414 214.27 104.157L218.691 107.833H316.702L338.192 207.655L342.4 210.987C390.923 201.012 427.412 158.061 427.412 106.587C427.412 47.72 379.692 0 320.826 0Z" fill="#FFC365"/>
<path d="M339.571 1.644C333.383 0.54819 327.11 -0.00192422 320.826 1.22212e-06C262.772 1.22212e-06 215.562 46.414 214.27 104.157L218.691 107.833H256.18L251.759 104.157C252.908 52.775 290.417 10.365 339.571 1.644Z" fill="#FFB640"/>
<path d="M320.826 30.879C279.828 30.879 246.465 63.472 245.18 104.158L247.708 107.834H319.306L330.81 173.145L336.884 180.572C370.981 173.206 396.535 142.888 396.535 106.587C396.533 64.774 362.638 30.879 320.826 30.879Z" fill="#FFB640"/>
<path d="M276.92 106.661C276.92 72.809 297.374 43.743 326.593 31.12C324.674 30.9671 322.751 30.8867 320.826 30.879C279.828 30.879 246.465 63.472 245.18 104.158L247.708 107.834H276.947C276.941 107.441 276.92 107.054 276.92 106.661Z" fill="#FFA90F"/>
<path d="M243.157 353.554H219.978L217.508 356.776V468.866L220.236 472.411H243.029L245.783 468.865V356.776L243.157 353.554Z" fill="#B5DCFF"/>
<path d="M231.646 356.776L234.116 353.554H219.978L217.508 356.776V468.866L220.236 472.411H234.373L231.646 468.866V356.776Z" fill="#8BCAFF"/>
<path d="M389.93 137.514L336.278 106.538L389.89 75.585C387.773 70.8746 385.179 66.3936 382.148 62.212L328.551 93.156V31.268C323.413 30.7472 318.236 30.7482 313.098 31.271V93.155L259.513 62.218C256.478 66.3965 253.879 70.8749 251.757 75.583L307.614 107.832H319.303L320.626 115.345L382.193 150.891C385.223 146.709 387.816 142.226 389.93 137.514Z" fill="#FC8900"/>
<path d="M127.481 174.681L131.641 180.572H204.784L245.18 198.384H320.826L336.292 177.314L324.326 111.346C323.96 109.329 322.898 107.505 321.325 106.192C319.752 104.878 317.767 104.159 315.718 104.159H147.577C145.528 104.159 143.543 104.879 141.97 106.192C140.397 107.506 139.335 109.33 138.969 111.346L127.481 174.681Z" fill="#DBEDFF"/>
<path d="M171.676 180.571L182.784 104.157H147.577C145.528 104.157 143.543 104.877 141.97 106.19C140.397 107.504 139.335 109.328 138.969 111.344L127.481 174.68L131.641 180.571H171.676Z" fill="#B5DCFF"/>
<path d="M176.912 174.861H193.362L132.674 8.522C131.957 6.61678 130.517 5.07155 128.667 4.22207C126.817 3.3726 124.706 3.28752 122.794 3.98532C120.881 4.68313 119.322 6.10743 118.453 7.94875C117.585 9.79006 117.479 11.8996 118.157 13.819L176.912 174.861Z" fill="#FFC365"/>
<path d="M310.048 486.562C309.15 486.048 308.371 485.77 307.551 485.54L256.995 471.289C256.638 471.188 256.278 471.102 255.92 471.006L204.792 485.418C203.925 485.65 203.088 485.979 202.295 486.4C192.021 491.88 194.261 508.586 203.918 512H304.734C316.915 512 320.972 492.808 310.048 486.562Z" fill="#DBEDFF"/>
<path d="M203.793 486.495C204.564 486.085 205.379 485.765 206.222 485.54L256.778 471.289L256.887 471.26C248.673 468.947 240.181 467.772 231.648 467.767C223.108 467.767 214.598 468.949 206.299 471.288L155.743 485.539C154.9 485.765 154.085 486.085 153.314 486.494C142.163 492.442 146.162 511.999 158.437 511.999H208.916C196.641 512 192.641 492.443 203.793 486.495Z" fill="#B5DCFF"/>
<path d="M260.22 353.363C317.676 334.816 357.545 294.487 347.014 236.426L336.292 177.313C311.386 189.922 269.508 202.654 225.769 178.762C188.558 158.435 152.695 164.619 127.481 174.681L116.281 236.426C105.73 294.597 145.692 334.84 203.075 353.364C221.651 359.362 241.644 359.362 260.22 353.363Z" fill="#DD5CA2"/>
<path d="M260.22 353.363C265.038 351.81 269.795 350.072 274.48 348.154C234.268 344.268 206.883 323.537 189.106 302.514C169.903 279.805 161.61 249.821 165.888 220.391L173.893 165.323C156.431 165.317 140.529 169.474 127.481 174.68L116.282 236.425C105.731 294.597 145.693 334.839 203.076 353.363C221.652 359.362 241.644 359.362 260.22 353.363Z" fill="#DA4093"/>
<path d="M231.938 280.592L190.347 166.597C184.752 165.725 179.096 165.299 173.433 165.324L217.421 285.889C217.964 287.378 218.952 288.664 220.25 289.572C221.549 290.481 223.095 290.968 224.68 290.969C225.923 290.969 227.147 290.669 228.249 290.094C229.351 289.52 230.299 288.689 231.011 287.67C231.723 286.652 232.179 285.477 232.341 284.245C232.502 283.012 232.364 281.759 231.938 280.592Z" fill="#FC8900"/>
<path d="M275.612 299.054C286.828 299.054 295.921 289.961 295.921 278.745C295.921 267.529 286.828 258.436 275.612 258.436C264.396 258.436 255.303 267.529 255.303 278.745C255.303 289.961 264.396 299.054 275.612 299.054Z" fill="#DA4093"/>
<path d="M273.331 278.745C273.331 270.77 277.938 263.889 284.626 260.566C281.827 259.167 278.741 258.438 275.612 258.436C264.395 258.436 255.303 267.529 255.303 278.745C255.303 289.961 264.396 299.054 275.612 299.054C278.854 299.054 281.907 298.275 284.626 296.924C277.938 293.601 273.331 286.72 273.331 278.745Z" fill="#C3247D"/>
<path d="M247.456 238.736H242.902C240.853 238.736 238.888 237.922 237.439 236.473C235.99 235.024 235.176 233.059 235.176 231.01C235.176 228.961 235.99 226.996 237.439 225.547C238.888 224.098 240.853 223.284 242.902 223.284H247.456C249.505 223.284 251.47 224.098 252.919 225.547C254.368 226.996 255.182 228.961 255.182 231.01C255.182 233.059 254.368 235.024 252.919 236.473C251.47 237.922 249.505 238.736 247.456 238.736Z" fill="#DA4093"/>
</g>
<defs>
<clipPath id="clip0_2_330">
<rect width="512" height="512" fill="white"/>
</clipPath>
</defs>
</svg>
