<svg width="512" height="512" viewBox="0 0 512 512" fill="none" xmlns="http://www.w3.org/2000/svg">
<g clip-path="url(#clip0_2_350)">
<path d="M26.2769 436.904L29.8721 454.995L47.8017 481.703C49.1828 483.76 51.0487 485.445 53.235 486.611C55.4212 487.776 57.8606 488.386 60.3381 488.386H451.968C456.999 488.386 461.699 485.88 464.504 481.703L482.434 454.995V436.904H26.2769Z" fill="#F8F6F6"/>
<path d="M118.458 481.703L100.528 454.995L96.9332 436.904H26.2769L29.8721 454.995L47.8017 481.703C49.1828 483.76 51.0487 485.445 53.235 486.611C55.4212 487.776 57.8606 488.386 60.3381 488.386H130.993C128.516 488.386 126.077 487.776 123.891 486.611C121.705 485.445 119.839 483.76 118.458 481.703Z" fill="#EBEBEB"/>
<path d="M210.439 147.873C237.057 147.873 258.635 126.295 258.635 99.6772C258.635 73.0593 237.057 51.4813 210.439 51.4813C183.822 51.4813 162.244 73.0593 162.244 99.6772C162.244 126.295 183.822 147.873 210.439 147.873Z" fill="#EE6161"/>
<path d="M190.376 94.9416C190.376 76.1391 201.15 59.8625 216.856 51.9187C214.729 51.6308 212.586 51.4843 210.439 51.4802C183.822 51.4802 162.244 73.0586 162.244 99.6761C162.244 126.294 183.822 147.872 210.439 147.872C217.984 147.879 225.424 146.107 232.156 142.699C208.573 139.56 190.376 119.382 190.376 94.9416Z" fill="#E94444"/>
<path d="M496.561 454.995H15.4388C6.91248 454.995 0 448.082 0 439.556C0 431.03 6.91248 424.117 15.4388 424.117H496.562C505.089 424.117 512.001 431.03 512.001 439.556C512 448.082 505.089 454.995 496.561 454.995Z" fill="#E2E2E2"/>
<path d="M443.38 423.727H69.9565C56.4712 423.727 45.5394 412.795 45.5394 399.31C45.5394 385.825 56.4712 374.893 69.9565 374.893H443.381C456.866 374.893 467.798 385.825 467.798 399.31C467.797 412.795 456.865 423.727 443.38 423.727Z" fill="#FEA613"/>
<path d="M443.38 374.894H69.9565C56.4712 374.894 45.5394 363.962 45.5394 350.477C45.5394 336.992 56.4712 326.06 69.9565 326.06H443.381C456.866 326.06 467.798 336.992 467.798 350.477C467.797 363.962 456.865 374.894 443.38 374.894Z" fill="#FDB441"/>
<path d="M443.38 326.06H69.9565C56.4712 326.06 45.5394 315.128 45.5394 301.643C45.5394 288.158 56.4712 277.226 69.9565 277.226H443.381C456.866 277.226 467.798 288.158 467.798 301.643C467.797 315.128 456.865 326.06 443.38 326.06Z" fill="#FEC165"/>
<path d="M443.38 277.226H69.9565C56.4712 277.226 45.5394 266.294 45.5394 252.809C45.5394 239.323 56.4712 228.392 69.9565 228.392H443.381C456.866 228.392 467.798 239.323 467.798 252.809C467.797 266.294 456.865 277.226 443.38 277.226Z" fill="#FECE85"/>
<path d="M443.38 228.393H69.9565C56.4712 228.393 45.5394 217.461 45.5394 203.976C45.5394 190.49 56.4712 179.559 69.9565 179.559H443.381C456.866 179.559 467.798 190.49 467.798 203.976C467.797 217.461 456.865 228.393 443.38 228.393Z" fill="#FEDBA6"/>
<path d="M106.152 399.31C106.152 385.825 117.084 374.893 130.569 374.893H69.9565C56.4712 374.893 45.5394 385.825 45.5394 399.31C45.5394 412.795 56.4712 423.727 69.9565 423.727H130.569C117.084 423.727 106.152 412.795 106.152 399.31Z" fill="#FE9901"/>
<path d="M106.152 350.477C106.152 336.992 117.084 326.06 130.569 326.06H69.9565C56.4712 326.06 45.5394 336.992 45.5394 350.477C45.5394 363.962 56.4712 374.894 69.9565 374.894H130.569C117.084 374.894 106.152 363.961 106.152 350.477Z" fill="#FEA613"/>
<path d="M106.152 301.643C106.152 288.158 117.084 277.226 130.569 277.226H69.9565C56.4712 277.226 45.5394 288.158 45.5394 301.643C45.5394 315.128 56.4712 326.06 69.9565 326.06H130.569C117.084 326.06 106.152 315.128 106.152 301.643Z" fill="#FDB441"/>
<path d="M106.152 252.81C106.152 239.324 117.084 228.393 130.569 228.393H69.9565C56.4712 228.393 45.5394 239.324 45.5394 252.81C45.5394 266.295 56.4712 277.227 69.9565 277.227H130.569C117.084 277.226 106.152 266.294 106.152 252.81Z" fill="#FEC165"/>
<path d="M106.152 203.976C106.152 190.49 117.084 179.559 130.569 179.559H69.9565C56.4712 179.559 45.5394 190.49 45.5394 203.976C45.5394 217.461 56.4712 228.393 69.9565 228.393H130.569C117.084 228.393 106.152 217.461 106.152 203.976Z" fill="#FECE85"/>
<path d="M416.368 170.767C415.663 157.718 404.47 147.692 391.401 147.692H121.935C108.867 147.692 97.6743 157.719 96.9682 170.767C96.8041 173.742 97.1858 176.721 98.0942 179.559H126.233C137.477 179.559 146.591 188.673 146.591 199.916V230.668C146.591 239.839 154.025 247.273 163.196 247.273C172.366 247.273 179.801 239.839 179.801 230.668V199.916C179.801 188.673 188.915 179.559 200.158 179.559H221.273C232.517 179.559 241.631 188.673 241.631 199.916V285.038C241.631 294.209 249.065 301.643 258.236 301.643C267.407 301.643 274.841 294.209 274.841 285.038V223.955C274.841 214.784 282.275 207.35 291.446 207.35C300.617 207.35 308.051 214.784 308.051 223.955V328.434C308.051 337.605 315.485 345.039 324.656 345.039C333.827 345.039 341.261 337.605 341.261 328.434V199.916C341.261 188.673 350.375 179.559 361.619 179.559H415.239C416.149 176.722 416.532 173.742 416.368 170.767Z" fill="#B87D72"/>
<path d="M162.825 219.507V188.755C162.825 177.512 153.711 168.397 142.467 168.397H121.664C116.897 168.397 112.959 164.459 113.199 159.697L113.204 159.605C113.422 155.558 114.674 151.635 116.842 148.212C106.077 150.417 97.5806 159.453 96.9693 170.766C96.8052 173.741 97.1868 176.72 98.0953 179.558H126.234C137.478 179.558 146.592 188.672 146.592 199.915V230.667C146.592 239.838 154.026 247.272 163.197 247.272C170.468 247.272 176.633 242.591 178.88 236.083C169.966 235.792 162.825 228.493 162.825 219.507ZM257.866 273.877V188.655C257.841 183.589 253.582 179.558 248.516 179.558H221.273C232.517 179.558 241.631 188.672 241.631 199.915V285.037C241.631 294.207 249.065 301.642 258.236 301.642C265.508 301.642 271.672 296.961 273.92 290.453C265.007 290.161 257.866 282.862 257.866 273.877ZM324.288 317.273V212.739C324.278 209.882 321.849 207.616 318.992 207.616H294.219C302.066 208.937 308.053 215.731 308.053 223.954V328.433C308.053 337.604 315.487 345.038 324.658 345.038C331.93 345.038 338.094 340.357 340.342 333.849C331.428 333.558 324.288 326.259 324.288 317.273Z" fill="#AB695D"/>
<path d="M264.633 147.762H300.266V109.791C300.266 90.6403 284.74 75.1151 265.59 75.1151H235.089C233.728 75.1151 232.423 75.6557 231.46 76.6181C230.498 77.5806 229.957 78.8859 229.957 80.2469V113.086C229.957 132.237 245.482 147.762 264.633 147.762Z" fill="#97DA7B"/>
<path d="M283.344 141.116C264.193 141.116 248.668 125.592 248.668 106.44V75.1151H235.089C233.728 75.1151 232.423 75.6557 231.46 76.6181C230.498 77.5806 229.957 78.8859 229.957 80.2469V113.086C229.957 132.237 245.483 147.762 264.633 147.762H300.266V141.117H283.344V141.116Z" fill="#80D261"/>
<path d="M335.897 147.762H300.265V109.791C300.265 90.6403 315.789 75.1151 334.94 75.1151H365.441C366.802 75.1151 368.108 75.6557 369.07 76.6181C370.032 77.5806 370.573 78.8859 370.573 80.2469V113.086C370.573 132.237 355.049 147.762 335.897 147.762Z" fill="#97DA7B"/>
<path d="M353.195 75.1151H334.941C315.791 75.1151 300.266 90.6393 300.266 109.791V147.762H318.52V109.791C318.52 90.6393 334.044 75.1151 353.195 75.1151Z" fill="#80D261"/>
<path d="M198.9 79.8681C197.363 79.868 195.86 79.4089 194.585 78.5494C193.31 77.6899 192.32 76.4694 191.743 75.044L183.971 55.8577C182.446 52.0736 180.096 48.677 177.093 45.9145C174.091 43.1521 170.511 41.0933 166.613 39.8878L162.814 38.7062C161.846 38.4049 160.947 37.9159 160.168 37.2671C159.389 36.6183 158.745 35.8225 158.274 34.925C157.802 34.0275 157.512 33.0459 157.42 32.0363C157.328 31.0268 157.436 30.0089 157.737 29.0409C158.038 28.073 158.527 27.1738 159.176 26.3948C159.825 25.6158 160.621 24.9722 161.518 24.5008C162.416 24.0294 163.397 23.7393 164.407 23.6473C165.416 23.5552 166.434 23.6629 167.402 23.9641L171.2 25.1457C183.552 28.989 193.423 38.0701 198.28 50.0609L206.052 69.2473C206.82 71.1447 206.804 73.2698 206.006 75.155C205.208 77.0403 203.693 78.5312 201.796 79.3C200.877 79.6751 199.893 79.8681 198.9 79.8681Z" fill="#E9B665"/>
</g>
<defs>
<clipPath id="clip0_2_350">
<rect width="512" height="512" fill="white"/>
</clipPath>
</defs>
</svg>
