<svg width="512" height="512" viewBox="0 0 512 512" fill="none" xmlns="http://www.w3.org/2000/svg">
<g clip-path="url(#clip0_2_2)">
<path d="M256 512C397.385 512 512 397.385 512 256C512 114.615 397.385 0 256 0C114.615 0 0 114.615 0 256C0 397.385 114.615 512 256 512Z" fill="#CE7421"/>
<path d="M501.376 256C501.376 281.992 488.576 305.6 480.944 329.088C473.048 353.392 469.248 380.008 454.544 400.24C439.672 420.672 415.432 432.44 395 447.312C374.776 462.032 356.168 481.536 331.864 489.424C308.408 497.04 282.008 492.456 256.016 492.456C230.024 492.456 203.624 497.04 180.168 489.424C155.864 481.536 137.256 462.032 117.024 447.312C96.592 432.44 72.36 420.672 57.488 400.24C42.768 380.008 38.968 353.392 31.088 329.088C23.448 305.64 10.624 281.992 10.624 256C10.624 230.008 23.424 206.4 31.056 182.912C38.952 158.608 42.752 131.992 57.456 111.76C72.328 91.328 96.568 79.56 117 64.688C137.224 49.968 155.832 30.464 180.136 22.576C203.592 14.96 229.992 19.544 255.984 19.544C281.976 19.544 308.376 14.96 331.832 22.576C356.136 30.464 374.744 49.968 394.976 64.688C415.408 79.56 439.64 91.328 454.512 111.76C469.232 131.992 473.032 158.608 480.912 182.912C488.552 206.4 501.376 230.008 501.376 256Z" fill="#E08327"/>
<path d="M256 480C379.712 480 480 379.712 480 256C480 132.288 379.712 32 256 32C132.288 32 32 132.288 32 256C32 379.712 132.288 480 256 480Z" fill="#FCE3AC"/>
<path d="M476 256C476 279.304 464.504 300.504 457.68 321.536C450.6 343.32 447.2 367.184 433.992 385.32C420.664 403.64 398.936 414.2 380.616 427.528C362.472 440.728 345.792 458.216 324 465.288C302.976 472.112 279.304 468 256 468C232.696 468 209.024 472.112 188 465.288C166.208 458.208 149.52 440.728 131.384 427.528C113.064 414.192 91.336 403.64 78 385.32C64.8 367.2 61.4 343.32 54.32 321.536C47.496 300.504 36 279.304 36 256C36 232.696 47.496 211.496 54.32 190.464C61.4 168.68 64.8 144.816 78.008 126.68C91.336 108.36 113.064 97.8 131.384 84.472C149.528 71.272 166.208 53.784 188 46.712C209.024 39.888 232.696 44 256 44C279.304 44 302.976 39.888 324 46.712C345.792 53.792 362.48 71.272 380.616 84.472C398.936 97.808 420.664 108.36 434 126.68C447.2 144.816 450.6 168.68 457.68 190.464C464.504 211.496 476 232.696 476 256Z" fill="#ED1C24"/>
<path d="M404.608 404.608C388.888 420.328 366.816 426.872 348.016 436.44C328.536 446.368 310.136 460.16 288.984 463.48C267.616 466.84 245.784 459.28 224.448 455.896C203.288 452.552 180.224 453.08 160.736 443.136C141.928 433.536 128.736 414.768 112.968 399.032C97.2 383.296 78.464 370.072 68.864 351.264C58.92 331.776 59.448 308.704 56.064 287.552C52.68 266.184 45.12 244.352 48.48 223.016C51.84 201.864 65.6 183.464 75.56 164C85.16 145.2 91.672 123.128 107.392 107.408C123.112 91.688 145.184 85.144 163.984 75.576C183.464 65.648 201.864 51.856 223.016 48.536C244.384 45.176 266.216 52.736 287.552 56.12C308.712 59.464 331.776 58.936 351.264 68.92C370.072 78.52 383.264 97.288 399.032 113.024C414.8 128.76 433.536 141.984 443.136 160.792C453.08 180.28 452.552 203.352 455.896 224.504C459.28 245.872 466.84 267.704 463.48 289.04C460.16 310.192 446.368 328.592 436.44 348.072C426.872 366.816 420.328 388.888 404.608 404.608Z" fill="#FFD140"/>
<path d="M365.784 204.096C324.984 213.696 283.048 226.728 262.816 217.816C242.584 208.904 222.984 151 218.584 136.952C214.184 122.904 340.984 128.896 367.784 166.496C394.584 204.096 365.784 204.096 365.784 204.096Z" fill="#FCBF12"/>
<path d="M204.4 93.6C169.256 106.288 124 118.8 113.2 150.8C102.4 182.8 132 198.4 112 223.6C92 248.8 144.8 265.2 173.2 237.6C201.6 210 188 157.2 214 132.8C240 108.4 218.8 88.4 204.4 93.6Z" fill="#FCBF12"/>
<path d="M116.6 289.2C146.534 289.2 170.8 264.934 170.8 235C170.8 205.066 146.534 180.8 116.6 180.8C86.6662 180.8 62.4 205.066 62.4 235C62.4 264.934 86.6662 289.2 116.6 289.2Z" fill="#D31C29"/>
<path d="M95.2 211.248C97.4092 211.248 99.2 209.457 99.2 207.248C99.2 205.039 97.4092 203.248 95.2 203.248C92.9909 203.248 91.2 205.039 91.2 207.248C91.2 209.457 92.9909 211.248 95.2 211.248Z" fill="#EF5669"/>
<path d="M140.4 270.448C142.609 270.448 144.4 268.657 144.4 266.448C144.4 264.239 142.609 262.448 140.4 262.448C138.191 262.448 136.4 264.239 136.4 266.448C136.4 268.657 138.191 270.448 140.4 270.448Z" fill="#EF5669"/>
<path d="M147.4 219.248C150.161 219.248 152.4 217.009 152.4 214.248C152.4 211.487 150.161 209.248 147.4 209.248C144.639 209.248 142.4 211.487 142.4 214.248C142.4 217.009 144.639 219.248 147.4 219.248Z" fill="#EF5669"/>
<path d="M82.2 246.048C84.9614 246.048 87.2 243.809 87.2 241.048C87.2 238.287 84.9614 236.048 82.2 236.048C79.4386 236.048 77.2 238.287 77.2 241.048C77.2 243.809 79.4386 246.048 82.2 246.048Z" fill="#EF5669"/>
<path d="M102 262.848C103.105 262.848 104 261.953 104 260.848C104 259.743 103.105 258.848 102 258.848C100.895 258.848 100 259.743 100 260.848C100 261.953 100.895 262.848 102 262.848Z" fill="#EF5669"/>
<path d="M136.4 238.848C137.505 238.848 138.4 237.953 138.4 236.848C138.4 235.743 137.505 234.848 136.4 234.848C135.295 234.848 134.4 235.743 134.4 236.848C134.4 237.953 135.295 238.848 136.4 238.848Z" fill="#EF5669"/>
<path d="M127.2 201.248C128.305 201.248 129.2 200.353 129.2 199.248C129.2 198.143 128.305 197.248 127.2 197.248C126.095 197.248 125.2 198.143 125.2 199.248C125.2 200.353 126.095 201.248 127.2 201.248Z" fill="#EF5669"/>
<path d="M111 232.048C111.773 232.048 112.4 231.421 112.4 230.648C112.4 229.875 111.773 229.248 111 229.248C110.227 229.248 109.6 229.875 109.6 230.648C109.6 231.421 110.227 232.048 111 232.048Z" fill="#EF5669"/>
<path d="M158.6 224.448C159.373 224.448 160 223.821 160 223.048C160 222.275 159.373 221.648 158.6 221.648C157.827 221.648 157.2 222.275 157.2 223.048C157.2 223.821 157.827 224.448 158.6 224.448Z" fill="#EF5669"/>
<path d="M155.4 251.648C156.173 251.648 156.8 251.021 156.8 250.248C156.8 249.475 156.173 248.848 155.4 248.848C154.627 248.848 154 249.475 154 250.248C154 251.021 154.627 251.648 155.4 251.648Z" fill="#B71A2D"/>
<path d="M119.4 275.248C120.173 275.248 120.8 274.621 120.8 273.848C120.8 273.075 120.173 272.448 119.4 272.448C118.627 272.448 118 273.075 118 273.848C118 274.621 118.627 275.248 119.4 275.248Z" fill="#B71A2D"/>
<path d="M108.6 196.848C109.373 196.848 110 196.221 110 195.448C110 194.675 109.373 194.048 108.6 194.048C107.827 194.048 107.2 194.675 107.2 195.448C107.2 196.221 107.827 196.848 108.6 196.848Z" fill="#B71A2D"/>
<path d="M87.6 259.248C88.7045 259.248 89.6 258.353 89.6 257.248C89.6 256.143 88.7045 255.248 87.6 255.248C86.4954 255.248 85.6 256.143 85.6 257.248C85.6 258.353 86.4954 259.248 87.6 259.248Z" fill="#B71A2D"/>
<path d="M120.8 221.248C121.905 221.248 122.8 220.353 122.8 219.248C122.8 218.143 121.905 217.248 120.8 217.248C119.695 217.248 118.8 218.143 118.8 219.248C118.8 220.353 119.695 221.248 120.8 221.248Z" fill="#B71A2D"/>
<path d="M124.8 249.248C125.905 249.248 126.8 248.353 126.8 247.248C126.8 246.143 125.905 245.248 124.8 245.248C123.695 245.248 122.8 246.143 122.8 247.248C122.8 248.353 123.695 249.248 124.8 249.248Z" fill="#B71A2D"/>
<path d="M237.8 166.4C267.734 166.4 292 142.134 292 112.2C292 82.2662 267.734 58 237.8 58C207.866 58 183.6 82.2662 183.6 112.2C183.6 142.134 207.866 166.4 237.8 166.4Z" fill="#D31C29"/>
<path d="M216.4 88.448C218.609 88.448 220.4 86.6571 220.4 84.448C220.4 82.2389 218.609 80.448 216.4 80.448C214.191 80.448 212.4 82.2389 212.4 84.448C212.4 86.6571 214.191 88.448 216.4 88.448Z" fill="#EF5669"/>
<path d="M261.6 147.648C263.809 147.648 265.6 145.857 265.6 143.648C265.6 141.439 263.809 139.648 261.6 139.648C259.391 139.648 257.6 141.439 257.6 143.648C257.6 145.857 259.391 147.648 261.6 147.648Z" fill="#EF5669"/>
<path d="M268.6 96.448C271.361 96.448 273.6 94.2094 273.6 91.448C273.6 88.6866 271.361 86.448 268.6 86.448C265.839 86.448 263.6 88.6866 263.6 91.448C263.6 94.2094 265.839 96.448 268.6 96.448Z" fill="#EF5669"/>
<path d="M203.4 123.248C206.161 123.248 208.4 121.009 208.4 118.248C208.4 115.487 206.161 113.248 203.4 113.248C200.639 113.248 198.4 115.487 198.4 118.248C198.4 121.009 200.639 123.248 203.4 123.248Z" fill="#EF5669"/>
<path d="M223.2 140.048C224.305 140.048 225.2 139.153 225.2 138.048C225.2 136.943 224.305 136.048 223.2 136.048C222.095 136.048 221.2 136.943 221.2 138.048C221.2 139.153 222.095 140.048 223.2 140.048Z" fill="#EF5669"/>
<path d="M257.6 116.048C258.705 116.048 259.6 115.153 259.6 114.048C259.6 112.943 258.705 112.048 257.6 112.048C256.495 112.048 255.6 112.943 255.6 114.048C255.6 115.153 256.495 116.048 257.6 116.048Z" fill="#EF5669"/>
<path d="M248.4 78.448C249.505 78.448 250.4 77.5526 250.4 76.448C250.4 75.3434 249.505 74.448 248.4 74.448C247.295 74.448 246.4 75.3434 246.4 76.448C246.4 77.5526 247.295 78.448 248.4 78.448Z" fill="#EF5669"/>
<path d="M232.2 109.248C232.973 109.248 233.6 108.621 233.6 107.848C233.6 107.075 232.973 106.448 232.2 106.448C231.427 106.448 230.8 107.075 230.8 107.848C230.8 108.621 231.427 109.248 232.2 109.248Z" fill="#EF5669"/>
<path d="M279.8 101.648C280.573 101.648 281.2 101.021 281.2 100.248C281.2 99.4748 280.573 98.848 279.8 98.848C279.027 98.848 278.4 99.4748 278.4 100.248C278.4 101.021 279.027 101.648 279.8 101.648Z" fill="#EF5669"/>
<path d="M276.6 128.848C277.373 128.848 278 128.221 278 127.448C278 126.675 277.373 126.048 276.6 126.048C275.827 126.048 275.2 126.675 275.2 127.448C275.2 128.221 275.827 128.848 276.6 128.848Z" fill="#B71A2D"/>
<path d="M240.6 152.448C241.373 152.448 242 151.821 242 151.048C242 150.275 241.373 149.648 240.6 149.648C239.827 149.648 239.2 150.275 239.2 151.048C239.2 151.821 239.827 152.448 240.6 152.448Z" fill="#B71A2D"/>
<path d="M229.8 74.048C230.573 74.048 231.2 73.4212 231.2 72.648C231.2 71.8748 230.573 71.248 229.8 71.248C229.027 71.248 228.4 71.8748 228.4 72.648C228.4 73.4212 229.027 74.048 229.8 74.048Z" fill="#B71A2D"/>
<path d="M208.8 136.448C209.905 136.448 210.8 135.553 210.8 134.448C210.8 133.343 209.905 132.448 208.8 132.448C207.695 132.448 206.8 133.343 206.8 134.448C206.8 135.553 207.695 136.448 208.8 136.448Z" fill="#B71A2D"/>
<path d="M242 98.448C243.105 98.448 244 97.5526 244 96.448C244 95.3434 243.105 94.448 242 94.448C240.895 94.448 240 95.3434 240 96.448C240 97.5526 240.895 98.448 242 98.448Z" fill="#B71A2D"/>
<path d="M246 126.448C247.105 126.448 248 125.553 248 124.448C248 123.343 247.105 122.448 246 122.448C244.895 122.448 244 123.343 244 124.448C244 125.553 244.895 126.448 246 126.448Z" fill="#B71A2D"/>
<path d="M414 185.2C416 220.8 420.4 238 432 257.6C443.6 277.2 427.2 321.2 402 336.4C376.8 351.6 352 248 375.2 216C398.4 184 414 185.2 414 185.2Z" fill="#FCBF12"/>
<path d="M382.6 244.8C412.534 244.8 436.8 220.534 436.8 190.6C436.8 160.666 412.534 136.4 382.6 136.4C352.666 136.4 328.4 160.666 328.4 190.6C328.4 220.534 352.666 244.8 382.6 244.8Z" fill="#D31C29"/>
<path d="M361.2 166.848C363.409 166.848 365.2 165.057 365.2 162.848C365.2 160.639 363.409 158.848 361.2 158.848C358.991 158.848 357.2 160.639 357.2 162.848C357.2 165.057 358.991 166.848 361.2 166.848Z" fill="#EF5669"/>
<path d="M406.4 226.048C408.609 226.048 410.4 224.257 410.4 222.048C410.4 219.839 408.609 218.048 406.4 218.048C404.191 218.048 402.4 219.839 402.4 222.048C402.4 224.257 404.191 226.048 406.4 226.048Z" fill="#EF5669"/>
<path d="M413.4 174.848C416.161 174.848 418.4 172.609 418.4 169.848C418.4 167.087 416.161 164.848 413.4 164.848C410.639 164.848 408.4 167.087 408.4 169.848C408.4 172.609 410.639 174.848 413.4 174.848Z" fill="#EF5669"/>
<path d="M348.2 201.648C350.961 201.648 353.2 199.409 353.2 196.648C353.2 193.887 350.961 191.648 348.2 191.648C345.439 191.648 343.2 193.887 343.2 196.648C343.2 199.409 345.439 201.648 348.2 201.648Z" fill="#EF5669"/>
<path d="M368 218.448C369.105 218.448 370 217.553 370 216.448C370 215.343 369.105 214.448 368 214.448C366.895 214.448 366 215.343 366 216.448C366 217.553 366.895 218.448 368 218.448Z" fill="#EF5669"/>
<path d="M402.4 194.448C403.505 194.448 404.4 193.553 404.4 192.448C404.4 191.343 403.505 190.448 402.4 190.448C401.295 190.448 400.4 191.343 400.4 192.448C400.4 193.553 401.295 194.448 402.4 194.448Z" fill="#EF5669"/>
<path d="M393.2 156.848C394.305 156.848 395.2 155.953 395.2 154.848C395.2 153.743 394.305 152.848 393.2 152.848C392.095 152.848 391.2 153.743 391.2 154.848C391.2 155.953 392.095 156.848 393.2 156.848Z" fill="#EF5669"/>
<path d="M377 187.648C377.773 187.648 378.4 187.021 378.4 186.248C378.4 185.475 377.773 184.848 377 184.848C376.227 184.848 375.6 185.475 375.6 186.248C375.6 187.021 376.227 187.648 377 187.648Z" fill="#EF5669"/>
<path d="M424.6 180.048C425.373 180.048 426 179.421 426 178.648C426 177.875 425.373 177.248 424.6 177.248C423.827 177.248 423.2 177.875 423.2 178.648C423.2 179.421 423.827 180.048 424.6 180.048Z" fill="#EF5669"/>
<path d="M421.4 207.248C422.173 207.248 422.8 206.621 422.8 205.848C422.8 205.075 422.173 204.448 421.4 204.448C420.627 204.448 420 205.075 420 205.848C420 206.621 420.627 207.248 421.4 207.248Z" fill="#B71A2D"/>
<path d="M385.4 230.848C386.173 230.848 386.8 230.221 386.8 229.448C386.8 228.675 386.173 228.048 385.4 228.048C384.627 228.048 384 228.675 384 229.448C384 230.221 384.627 230.848 385.4 230.848Z" fill="#B71A2D"/>
<path d="M374.6 152.448C375.373 152.448 376 151.821 376 151.048C376 150.275 375.373 149.648 374.6 149.648C373.827 149.648 373.2 150.275 373.2 151.048C373.2 151.821 373.827 152.448 374.6 152.448Z" fill="#B71A2D"/>
<path d="M353.6 214.848C354.705 214.848 355.6 213.953 355.6 212.848C355.6 211.743 354.705 210.848 353.6 210.848C352.495 210.848 351.6 211.743 351.6 212.848C351.6 213.953 352.495 214.848 353.6 214.848Z" fill="#B71A2D"/>
<path d="M386.8 176.848C387.905 176.848 388.8 175.953 388.8 174.848C388.8 173.743 387.905 172.848 386.8 172.848C385.695 172.848 384.8 173.743 384.8 174.848C384.8 175.953 385.695 176.848 386.8 176.848Z" fill="#B71A2D"/>
<path d="M390.8 204.848C391.905 204.848 392.8 203.953 392.8 202.848C392.8 201.743 391.905 200.848 390.8 200.848C389.695 200.848 388.8 201.743 388.8 202.848C388.8 203.953 389.695 204.848 390.8 204.848Z" fill="#B71A2D"/>
<path d="M234.4 277.2C201.6 280.8 128.4 273.6 128.4 301.6C128.4 329.6 146.4 368.4 132 386.8C117.6 405.2 173.6 462.8 218 438C248.456 420.992 280.8 392.8 322.8 388.8C364.8 384.8 298.4 306.4 275.2 295.6C252 284.8 234.4 277.2 234.4 277.2Z" fill="#FCBF12"/>
<path d="M355.4 409.2C385.334 409.2 409.6 384.934 409.6 355C409.6 325.066 385.334 300.8 355.4 300.8C325.466 300.8 301.2 325.066 301.2 355C301.2 384.934 325.466 409.2 355.4 409.2Z" fill="#D31C29"/>
<path d="M334 331.248C336.209 331.248 338 329.457 338 327.248C338 325.039 336.209 323.248 334 323.248C331.791 323.248 330 325.039 330 327.248C330 329.457 331.791 331.248 334 331.248Z" fill="#EF5669"/>
<path d="M379.2 390.448C381.409 390.448 383.2 388.657 383.2 386.448C383.2 384.239 381.409 382.448 379.2 382.448C376.991 382.448 375.2 384.239 375.2 386.448C375.2 388.657 376.991 390.448 379.2 390.448Z" fill="#EF5669"/>
<path d="M386.2 339.248C388.961 339.248 391.2 337.009 391.2 334.248C391.2 331.487 388.961 329.248 386.2 329.248C383.439 329.248 381.2 331.487 381.2 334.248C381.2 337.009 383.439 339.248 386.2 339.248Z" fill="#EF5669"/>
<path d="M321 366.048C323.761 366.048 326 363.809 326 361.048C326 358.287 323.761 356.048 321 356.048C318.239 356.048 316 358.287 316 361.048C316 363.809 318.239 366.048 321 366.048Z" fill="#EF5669"/>
<path d="M340.8 382.848C341.905 382.848 342.8 381.953 342.8 380.848C342.8 379.743 341.905 378.848 340.8 378.848C339.695 378.848 338.8 379.743 338.8 380.848C338.8 381.953 339.695 382.848 340.8 382.848Z" fill="#EF5669"/>
<path d="M375.2 358.848C376.305 358.848 377.2 357.953 377.2 356.848C377.2 355.743 376.305 354.848 375.2 354.848C374.095 354.848 373.2 355.743 373.2 356.848C373.2 357.953 374.095 358.848 375.2 358.848Z" fill="#EF5669"/>
<path d="M366 321.248C367.105 321.248 368 320.353 368 319.248C368 318.143 367.105 317.248 366 317.248C364.895 317.248 364 318.143 364 319.248C364 320.353 364.895 321.248 366 321.248Z" fill="#EF5669"/>
<path d="M349.8 352.048C350.573 352.048 351.2 351.421 351.2 350.648C351.2 349.875 350.573 349.248 349.8 349.248C349.027 349.248 348.4 349.875 348.4 350.648C348.4 351.421 349.027 352.048 349.8 352.048Z" fill="#EF5669"/>
<path d="M397.4 344.448C398.173 344.448 398.8 343.821 398.8 343.048C398.8 342.275 398.173 341.648 397.4 341.648C396.627 341.648 396 342.275 396 343.048C396 343.821 396.627 344.448 397.4 344.448Z" fill="#EF5669"/>
<path d="M394.2 371.648C394.973 371.648 395.6 371.021 395.6 370.248C395.6 369.475 394.973 368.848 394.2 368.848C393.427 368.848 392.8 369.475 392.8 370.248C392.8 371.021 393.427 371.648 394.2 371.648Z" fill="#B71A2D"/>
<path d="M358.2 395.248C358.973 395.248 359.6 394.621 359.6 393.848C359.6 393.075 358.973 392.448 358.2 392.448C357.427 392.448 356.8 393.075 356.8 393.848C356.8 394.621 357.427 395.248 358.2 395.248Z" fill="#B71A2D"/>
<path d="M347.4 316.848C348.173 316.848 348.8 316.221 348.8 315.448C348.8 314.675 348.173 314.048 347.4 314.048C346.627 314.048 346 314.675 346 315.448C346 316.221 346.627 316.848 347.4 316.848Z" fill="#B71A2D"/>
<path d="M326.4 379.248C327.505 379.248 328.4 378.353 328.4 377.248C328.4 376.143 327.505 375.248 326.4 375.248C325.295 375.248 324.4 376.143 324.4 377.248C324.4 378.353 325.295 379.248 326.4 379.248Z" fill="#B71A2D"/>
<path d="M359.6 341.248C360.705 341.248 361.6 340.353 361.6 339.248C361.6 338.143 360.705 337.248 359.6 337.248C358.495 337.248 357.6 338.143 357.6 339.248C357.6 340.353 358.495 341.248 359.6 341.248Z" fill="#B71A2D"/>
<path d="M363.6 369.248C364.705 369.248 365.6 368.353 365.6 367.248C365.6 366.143 364.705 365.248 363.6 365.248C362.495 365.248 361.6 366.143 361.6 367.248C361.6 368.353 362.495 369.248 363.6 369.248Z" fill="#B71A2D"/>
<path d="M262.6 309.2C292.534 309.2 316.8 284.934 316.8 255C316.8 225.066 292.534 200.8 262.6 200.8C232.666 200.8 208.4 225.066 208.4 255C208.4 284.934 232.666 309.2 262.6 309.2Z" fill="#D31C29"/>
<path d="M241.2 231.248C243.409 231.248 245.2 229.457 245.2 227.248C245.2 225.039 243.409 223.248 241.2 223.248C238.991 223.248 237.2 225.039 237.2 227.248C237.2 229.457 238.991 231.248 241.2 231.248Z" fill="#EF5669"/>
<path d="M286.4 290.448C288.609 290.448 290.4 288.657 290.4 286.448C290.4 284.239 288.609 282.448 286.4 282.448C284.191 282.448 282.4 284.239 282.4 286.448C282.4 288.657 284.191 290.448 286.4 290.448Z" fill="#EF5669"/>
<path d="M293.4 239.248C296.161 239.248 298.4 237.009 298.4 234.248C298.4 231.487 296.161 229.248 293.4 229.248C290.639 229.248 288.4 231.487 288.4 234.248C288.4 237.009 290.639 239.248 293.4 239.248Z" fill="#EF5669"/>
<path d="M228.2 266.048C230.961 266.048 233.2 263.809 233.2 261.048C233.2 258.287 230.961 256.048 228.2 256.048C225.439 256.048 223.2 258.287 223.2 261.048C223.2 263.809 225.439 266.048 228.2 266.048Z" fill="#EF5669"/>
<path d="M248 282.848C249.105 282.848 250 281.953 250 280.848C250 279.743 249.105 278.848 248 278.848C246.895 278.848 246 279.743 246 280.848C246 281.953 246.895 282.848 248 282.848Z" fill="#EF5669"/>
<path d="M282.4 258.848C283.505 258.848 284.4 257.953 284.4 256.848C284.4 255.743 283.505 254.848 282.4 254.848C281.295 254.848 280.4 255.743 280.4 256.848C280.4 257.953 281.295 258.848 282.4 258.848Z" fill="#EF5669"/>
<path d="M273.2 221.248C274.305 221.248 275.2 220.353 275.2 219.248C275.2 218.143 274.305 217.248 273.2 217.248C272.095 217.248 271.2 218.143 271.2 219.248C271.2 220.353 272.095 221.248 273.2 221.248Z" fill="#EF5669"/>
<path d="M257 252.048C257.773 252.048 258.4 251.421 258.4 250.648C258.4 249.875 257.773 249.248 257 249.248C256.227 249.248 255.6 249.875 255.6 250.648C255.6 251.421 256.227 252.048 257 252.048Z" fill="#EF5669"/>
<path d="M304.6 244.448C305.373 244.448 306 243.821 306 243.048C306 242.275 305.373 241.648 304.6 241.648C303.827 241.648 303.2 242.275 303.2 243.048C303.2 243.821 303.827 244.448 304.6 244.448Z" fill="#EF5669"/>
<path d="M301.4 271.648C302.173 271.648 302.8 271.021 302.8 270.248C302.8 269.475 302.173 268.848 301.4 268.848C300.627 268.848 300 269.475 300 270.248C300 271.021 300.627 271.648 301.4 271.648Z" fill="#B71A2D"/>
<path d="M265.4 295.248C266.173 295.248 266.8 294.621 266.8 293.848C266.8 293.075 266.173 292.448 265.4 292.448C264.627 292.448 264 293.075 264 293.848C264 294.621 264.627 295.248 265.4 295.248Z" fill="#B71A2D"/>
<path d="M254.6 216.848C255.373 216.848 256 216.221 256 215.448C256 214.675 255.373 214.048 254.6 214.048C253.827 214.048 253.2 214.675 253.2 215.448C253.2 216.221 253.827 216.848 254.6 216.848Z" fill="#B71A2D"/>
<path d="M233.6 279.248C234.705 279.248 235.6 278.353 235.6 277.248C235.6 276.143 234.705 275.248 233.6 275.248C232.495 275.248 231.6 276.143 231.6 277.248C231.6 278.353 232.495 279.248 233.6 279.248Z" fill="#B71A2D"/>
<path d="M266.8 241.248C267.905 241.248 268.8 240.353 268.8 239.248C268.8 238.143 267.905 237.248 266.8 237.248C265.695 237.248 264.8 238.143 264.8 239.248C264.8 240.353 265.695 241.248 266.8 241.248Z" fill="#B71A2D"/>
<path d="M270.8 269.248C271.905 269.248 272.8 268.353 272.8 267.248C272.8 266.143 271.905 265.248 270.8 265.248C269.695 265.248 268.8 266.143 268.8 267.248C268.8 268.353 269.695 269.248 270.8 269.248Z" fill="#B71A2D"/>
<path d="M194.6 432.8C224.534 432.8 248.8 408.534 248.8 378.6C248.8 348.666 224.534 324.4 194.6 324.4C164.666 324.4 140.4 348.666 140.4 378.6C140.4 408.534 164.666 432.8 194.6 432.8Z" fill="#D31C29"/>
<path d="M173.2 354.848C175.409 354.848 177.2 353.057 177.2 350.848C177.2 348.639 175.409 346.848 173.2 346.848C170.991 346.848 169.2 348.639 169.2 350.848C169.2 353.057 170.991 354.848 173.2 354.848Z" fill="#EF5669"/>
<path d="M218.4 414.048C220.609 414.048 222.4 412.257 222.4 410.048C222.4 407.839 220.609 406.048 218.4 406.048C216.191 406.048 214.4 407.839 214.4 410.048C214.4 412.257 216.191 414.048 218.4 414.048Z" fill="#EF5669"/>
<path d="M225.4 362.848C228.161 362.848 230.4 360.609 230.4 357.848C230.4 355.087 228.161 352.848 225.4 352.848C222.639 352.848 220.4 355.087 220.4 357.848C220.4 360.609 222.639 362.848 225.4 362.848Z" fill="#EF5669"/>
<path d="M160.2 389.648C162.961 389.648 165.2 387.409 165.2 384.648C165.2 381.887 162.961 379.648 160.2 379.648C157.439 379.648 155.2 381.887 155.2 384.648C155.2 387.409 157.439 389.648 160.2 389.648Z" fill="#EF5669"/>
<path d="M180 406.448C181.105 406.448 182 405.553 182 404.448C182 403.343 181.105 402.448 180 402.448C178.895 402.448 178 403.343 178 404.448C178 405.553 178.895 406.448 180 406.448Z" fill="#EF5669"/>
<path d="M214.4 382.448C215.505 382.448 216.4 381.553 216.4 380.448C216.4 379.343 215.505 378.448 214.4 378.448C213.295 378.448 212.4 379.343 212.4 380.448C212.4 381.553 213.295 382.448 214.4 382.448Z" fill="#EF5669"/>
<path d="M205.2 344.848C206.305 344.848 207.2 343.953 207.2 342.848C207.2 341.743 206.305 340.848 205.2 340.848C204.095 340.848 203.2 341.743 203.2 342.848C203.2 343.953 204.095 344.848 205.2 344.848Z" fill="#EF5669"/>
<path d="M189 375.648C189.773 375.648 190.4 375.021 190.4 374.248C190.4 373.475 189.773 372.848 189 372.848C188.227 372.848 187.6 373.475 187.6 374.248C187.6 375.021 188.227 375.648 189 375.648Z" fill="#EF5669"/>
<path d="M236.6 368.048C237.373 368.048 238 367.421 238 366.648C238 365.875 237.373 365.248 236.6 365.248C235.827 365.248 235.2 365.875 235.2 366.648C235.2 367.421 235.827 368.048 236.6 368.048Z" fill="#EF5669"/>
<path d="M233.4 395.248C234.173 395.248 234.8 394.621 234.8 393.848C234.8 393.075 234.173 392.448 233.4 392.448C232.627 392.448 232 393.075 232 393.848C232 394.621 232.627 395.248 233.4 395.248Z" fill="#B71A2D"/>
<path d="M197.4 418.848C198.173 418.848 198.8 418.221 198.8 417.448C198.8 416.675 198.173 416.048 197.4 416.048C196.627 416.048 196 416.675 196 417.448C196 418.221 196.627 418.848 197.4 418.848Z" fill="#B71A2D"/>
<path d="M186.6 340.448C187.373 340.448 188 339.821 188 339.048C188 338.275 187.373 337.648 186.6 337.648C185.827 337.648 185.2 338.275 185.2 339.048C185.2 339.821 185.827 340.448 186.6 340.448Z" fill="#B71A2D"/>
<path d="M165.6 402.848C166.705 402.848 167.6 401.953 167.6 400.848C167.6 399.743 166.705 398.848 165.6 398.848C164.495 398.848 163.6 399.743 163.6 400.848C163.6 401.953 164.495 402.848 165.6 402.848Z" fill="#B71A2D"/>
<path d="M198.8 364.848C199.905 364.848 200.8 363.953 200.8 362.848C200.8 361.743 199.905 360.848 198.8 360.848C197.695 360.848 196.8 361.743 196.8 362.848C196.8 363.953 197.695 364.848 198.8 364.848Z" fill="#B71A2D"/>
<path d="M202.8 392.848C203.905 392.848 204.8 391.953 204.8 390.848C204.8 389.743 203.905 388.848 202.8 388.848C201.695 388.848 200.8 389.743 200.8 390.848C200.8 391.953 201.695 392.848 202.8 392.848Z" fill="#B71A2D"/>
<path d="M386.256 286.312C381.861 281.106 376 277.345 369.436 275.52C362.872 273.695 355.91 273.89 349.459 276.081C343.007 278.271 337.366 282.354 333.27 287.798C329.174 293.242 326.813 299.794 326.496 306.6C326.525 307.275 326.704 307.936 327.021 308.533C327.337 309.13 327.783 309.649 328.326 310.051C328.869 310.454 329.495 310.73 330.158 310.859C330.822 310.989 331.506 310.969 332.16 310.8L351.088 304.4L358.432 326.04C358.58 326.477 358.813 326.881 359.117 327.228C359.421 327.575 359.79 327.859 360.204 328.064C360.618 328.268 361.068 328.389 361.528 328.419C361.989 328.449 362.451 328.388 362.888 328.24L370.536 325.64C370.973 325.492 371.377 325.259 371.724 324.955C372.071 324.651 372.355 324.282 372.56 323.868C372.764 323.454 372.885 323.004 372.915 322.544C372.945 322.083 372.884 321.621 372.736 321.184L365.384 299.544L384.32 293.144C384.949 292.88 385.51 292.477 385.962 291.967C386.414 291.456 386.745 290.85 386.931 290.194C387.117 289.537 387.153 288.848 387.036 288.176C386.919 287.504 386.653 286.867 386.256 286.312Z" fill="#EFD4B9"/>
<path d="M386.2 286.28C386.712 287.072 386.992 287.991 387.009 288.934C387.026 289.877 386.779 290.806 386.296 291.616C381.715 287.707 376.197 285.055 370.283 283.921C364.369 282.786 358.262 283.207 352.56 285.143C346.857 287.079 341.756 290.462 337.755 294.963C333.754 299.463 330.991 304.926 329.736 310.816C328.836 310.501 328.048 309.93 327.467 309.175C326.886 308.419 326.538 307.51 326.464 306.56C326.792 299.763 329.157 293.221 333.253 287.787C337.349 282.352 342.985 278.276 349.429 276.088C355.873 273.9 362.827 273.703 369.385 275.52C375.943 277.338 381.802 281.087 386.2 286.28Z" fill="#C7B299"/>
<path d="M92.952 317.6C88.7027 323.026 86.3475 329.695 86.2464 336.586C86.1453 343.477 88.3038 350.212 92.392 355.76C95.8982 361.708 101.256 366.343 107.646 368.958C114.036 371.573 121.106 372.023 127.776 370.24C128.421 370.038 129.013 369.696 129.509 369.237C130.005 368.778 130.393 368.215 130.645 367.587C130.896 366.96 131.004 366.285 130.962 365.61C130.92 364.936 130.728 364.279 130.4 363.688L119.368 347.016L138.4 334.4C139.176 333.886 139.717 333.085 139.903 332.173C140.089 331.261 139.905 330.313 139.392 329.536L134.936 322.8C134.682 322.415 134.355 322.084 133.973 321.825C133.591 321.567 133.162 321.386 132.71 321.294C132.258 321.202 131.792 321.2 131.34 321.288C130.887 321.376 130.456 321.553 130.072 321.808L111.032 334.4L100 317.752C99.5861 317.218 99.0582 316.783 98.4548 316.479C97.8514 316.175 97.1877 316.01 96.5122 315.995C95.8367 315.981 95.1665 316.117 94.5506 316.395C93.9346 316.673 93.3885 317.084 92.952 317.6Z" fill="#EFD4B9"/>
<path d="M92.936 317.664C93.5713 316.967 94.3892 316.462 95.297 316.206C96.2048 315.95 97.1661 315.953 98.072 316.216C95.2431 321.574 93.9596 327.613 94.3651 333.658C94.7705 339.703 96.8489 345.516 100.368 350.448C103.529 355.634 108.07 359.839 113.484 362.591C118.898 365.343 124.971 366.535 131.024 366.032C130.948 366.981 130.597 367.887 130.015 368.64C129.432 369.393 128.643 369.96 127.744 370.272C121.07 372.045 113.999 371.584 107.613 368.959C101.226 366.334 95.8741 361.69 92.376 355.736C88.2784 350.208 86.1133 343.486 86.2145 336.605C86.3157 329.725 88.6776 323.069 92.936 317.664Z" fill="#C7B299"/>
<path d="M169.64 193.904C175.407 192.695 180.619 189.63 184.479 185.177C188.338 180.724 190.631 175.129 191.008 169.248C191.988 163.425 191.032 157.442 188.287 152.214C185.541 146.986 181.158 142.803 175.808 140.304C175.275 140.079 174.699 139.976 174.121 140.002C173.543 140.028 172.978 140.183 172.468 140.455C171.957 140.727 171.514 141.11 171.17 141.575C170.826 142.04 170.59 142.576 170.48 143.144L168.52 160.12L149.112 157.88C148.321 157.79 147.526 158.017 146.902 158.512C146.278 159.007 145.876 159.729 145.784 160.52L144.984 167.384C144.938 167.776 144.97 168.173 145.078 168.553C145.186 168.932 145.368 169.287 145.614 169.596C145.859 169.905 146.163 170.163 146.508 170.354C146.853 170.546 147.232 170.667 147.624 170.712L167.032 172.952L165.072 189.928C165.048 190.509 165.155 191.088 165.386 191.622C165.616 192.156 165.963 192.631 166.401 193.013C166.84 193.394 167.359 193.673 167.919 193.827C168.48 193.981 169.068 194.008 169.64 193.904Z" fill="#EFD4B9"/>
<path d="M169.688 193.88C168.888 193.984 168.075 193.864 167.341 193.532C166.606 193.2 165.978 192.669 165.528 192C170.327 190.05 174.49 186.804 177.551 182.626C180.612 178.447 182.452 173.5 182.864 168.336C183.649 163.203 182.991 157.952 180.964 153.172C178.937 148.391 175.62 144.268 171.384 141.264C171.958 140.685 172.688 140.286 173.484 140.114C174.281 139.942 175.111 140.005 175.872 140.296C181.214 142.81 185.585 147.003 188.318 152.236C191.052 157.468 191.996 163.452 191.008 169.272C190.646 175.145 188.363 180.735 184.51 185.182C180.657 189.629 175.449 192.685 169.688 193.88Z" fill="#C7B299"/>
<path d="M303.824 210.6C304.215 205.1 302.94 199.61 300.164 194.846C297.388 190.082 293.24 186.266 288.262 183.895C283.284 181.524 277.707 180.708 272.259 181.555C266.811 182.401 261.744 184.87 257.72 188.64C257.356 189.048 257.087 189.533 256.934 190.058C256.78 190.584 256.746 191.137 256.833 191.677C256.921 192.217 257.128 192.731 257.439 193.182C257.75 193.632 258.158 194.007 258.632 194.28L273.24 201.232L265.288 217.928C264.965 218.608 264.924 219.389 265.177 220.098C265.429 220.808 265.952 221.388 266.632 221.712L272.528 224.52C272.865 224.681 273.231 224.775 273.604 224.794C273.977 224.814 274.351 224.76 274.703 224.635C275.055 224.51 275.379 224.317 275.657 224.067C275.934 223.816 276.16 223.514 276.32 223.176L284.272 206.488L298.872 213.44C299.382 213.638 299.93 213.719 300.476 213.678C301.021 213.636 301.551 213.474 302.026 213.201C302.5 212.929 302.908 212.554 303.219 212.104C303.53 211.654 303.737 211.14 303.824 210.6Z" fill="#EFD4B9"/>
<path d="M303.808 210.552C303.658 211.299 303.302 211.989 302.78 212.545C302.259 213.1 301.592 213.499 300.856 213.696C300.408 208.842 298.706 204.188 295.918 200.19C293.129 196.192 289.35 192.987 284.949 190.89C280.549 188.792 275.679 187.874 270.817 188.226C265.956 188.578 261.269 190.187 257.216 192.896C256.877 192.204 256.745 191.429 256.836 190.664C256.927 189.9 257.237 189.177 257.728 188.584C261.752 184.824 266.815 182.363 272.257 181.521C277.699 180.679 283.269 181.495 288.241 183.863C293.213 186.231 297.357 190.041 300.134 194.797C302.91 199.552 304.191 205.034 303.808 210.528V210.552Z" fill="#C7B299"/>
<path d="M300.12 384.632C300.513 379.097 299.228 373.573 296.434 368.779C293.64 363.985 289.465 360.145 284.456 357.759C279.446 355.374 273.834 354.554 268.351 355.406C262.868 356.258 257.769 358.743 253.72 362.536C253.353 362.946 253.081 363.433 252.926 363.961C252.771 364.49 252.736 365.046 252.823 365.589C252.911 366.133 253.118 366.65 253.431 367.103C253.744 367.556 254.155 367.934 254.632 368.208L269.336 375.208L261.336 392.008C261.175 392.347 261.081 392.714 261.062 393.089C261.043 393.464 261.097 393.839 261.223 394.192C261.348 394.546 261.542 394.871 261.794 395.15C262.045 395.428 262.349 395.655 262.688 395.816L268.624 398.648C268.963 398.809 269.33 398.903 269.705 398.922C270.08 398.941 270.455 398.887 270.808 398.761C271.162 398.636 271.487 398.442 271.766 398.19C272.045 397.939 272.271 397.635 272.432 397.296L280.432 380.496L295.136 387.496C295.65 387.696 296.202 387.779 296.752 387.738C297.302 387.697 297.836 387.533 298.314 387.258C298.792 386.983 299.203 386.605 299.515 386.15C299.828 385.696 300.035 385.177 300.12 384.632Z" fill="#EFD4B9"/>
<path d="M300.112 384.584C299.967 385.343 299.611 386.046 299.084 386.612C298.558 387.178 297.883 387.584 297.136 387.784C296.681 382.902 294.966 378.222 292.158 374.203C289.351 370.183 285.547 366.962 281.12 364.854C276.693 362.747 271.794 361.826 266.904 362.181C262.014 362.536 257.3 364.155 253.224 366.88C252.878 366.184 252.743 365.403 252.834 364.632C252.925 363.86 253.238 363.132 253.736 362.536C257.786 358.747 262.884 356.267 268.364 355.417C273.845 354.567 279.454 355.387 284.462 357.771C289.469 360.155 293.643 363.991 296.439 368.781C299.234 373.571 300.523 379.091 300.136 384.624L300.112 384.584Z" fill="#C7B299"/>
<path d="M355.2 80.392C348.679 78.1603 341.607 78.1253 335.064 80.2923C328.521 82.4592 322.868 86.709 318.968 92.392C314.495 97.6506 311.869 104.23 311.49 111.123C311.112 118.016 313.002 124.843 316.872 130.56C317.271 131.106 317.787 131.556 318.383 131.877C318.978 132.198 319.638 132.382 320.314 132.415C320.99 132.448 321.664 132.33 322.288 132.068C322.912 131.807 323.47 131.409 323.92 130.904L336.064 115.016L354.216 128.896C354.958 129.459 355.892 129.706 356.815 129.583C357.738 129.461 358.575 128.978 359.144 128.24L364.048 121.84C364.613 121.1 364.861 120.167 364.738 119.244C364.615 118.322 364.131 117.486 363.392 116.92L345.232 103.04L357.376 87.152C357.753 86.5835 357.997 85.9374 358.09 85.2616C358.184 84.5859 358.123 83.8978 357.914 83.2485C357.705 82.5991 357.353 82.0052 356.883 81.5107C356.413 81.0162 355.838 80.6338 355.2 80.392Z" fill="#EFD4B9"/>
<path d="M355.2 80.4C356.065 80.773 356.809 81.3803 357.348 82.1535C357.886 82.9267 358.198 83.8351 358.248 84.776C352.259 83.8591 346.133 84.6252 340.554 86.9887C334.976 89.3521 330.164 93.2199 326.656 98.16C322.791 102.845 320.305 108.514 319.477 114.531C318.649 120.548 319.512 126.677 321.968 132.232C321.046 132.47 320.074 132.433 319.172 132.128C318.27 131.823 317.476 131.261 316.888 130.512C313.026 124.788 311.146 117.956 311.535 111.062C311.923 104.167 314.559 97.5902 319.04 92.336C322.923 86.6548 328.566 82.4084 335.101 80.2514C341.636 78.0945 348.698 78.1467 355.2 80.4Z" fill="#C7B299"/>
<path d="M286.8 118.4C283.319 118.4 279.916 119.432 277.022 121.366C274.128 123.3 271.872 126.049 270.54 129.265C269.208 132.481 268.859 136.019 269.538 139.434C270.217 142.848 271.893 145.984 274.355 148.445C276.816 150.906 279.952 152.583 283.366 153.262C286.78 153.941 290.319 153.592 293.535 152.26C296.751 150.928 299.5 148.672 301.434 145.778C303.368 142.884 304.4 139.481 304.4 136C304.406 133.687 303.955 131.395 303.073 129.257C302.191 127.119 300.895 125.176 299.259 123.541C297.624 121.905 295.681 120.609 293.543 119.727C291.404 118.845 289.113 118.394 286.8 118.4ZM286.8 146.4C284.743 146.4 282.732 145.79 281.022 144.647C279.312 143.504 277.979 141.88 277.192 139.98C276.404 138.08 276.198 135.988 276.6 133.971C277.001 131.954 277.992 130.101 279.446 128.646C280.9 127.192 282.754 126.201 284.771 125.8C286.788 125.399 288.88 125.604 290.78 126.392C292.68 127.179 294.304 128.512 295.447 130.222C296.59 131.932 297.2 133.943 297.2 136C297.2 138.758 296.104 141.404 294.154 143.354C292.203 145.304 289.558 146.4 286.8 146.4Z" fill="#4C453E"/>
<path d="M286.8 122.64C284.158 122.64 281.575 123.424 279.378 124.892C277.181 126.36 275.468 128.446 274.457 130.887C273.446 133.329 273.181 136.015 273.697 138.606C274.212 141.198 275.485 143.578 277.353 145.447C279.221 147.315 281.602 148.588 284.194 149.103C286.785 149.619 289.471 149.354 291.913 148.343C294.354 147.332 296.44 145.619 297.908 143.422C299.376 141.225 300.16 138.642 300.16 136C300.166 134.244 299.825 132.504 299.156 130.88C298.487 129.256 297.503 127.781 296.261 126.539C295.019 125.297 293.544 124.313 291.92 123.644C290.296 122.975 288.556 122.634 286.8 122.64ZM286.8 146.4C284.743 146.4 282.732 145.79 281.022 144.647C279.312 143.504 277.979 141.88 277.192 139.98C276.405 138.08 276.199 135.988 276.6 133.971C277.001 131.954 277.992 130.101 279.446 128.646C280.901 127.192 282.754 126.201 284.771 125.8C286.788 125.399 288.88 125.604 290.78 126.392C292.68 127.179 294.305 128.512 295.447 130.222C296.59 131.932 297.2 133.943 297.2 136C297.2 138.758 296.104 141.404 294.154 143.354C292.204 145.304 289.558 146.4 286.8 146.4Z" fill="#6B635C"/>
<path d="M418.4 260.4C414.919 260.4 411.516 261.432 408.622 263.366C405.728 265.3 403.472 268.049 402.14 271.265C400.808 274.481 400.459 278.02 401.138 281.434C401.817 284.848 403.494 287.984 405.955 290.445C408.416 292.906 411.552 294.583 414.966 295.262C418.38 295.941 421.919 295.592 425.135 294.26C428.351 292.928 431.1 290.672 433.034 287.778C434.968 284.884 436 281.481 436 278C436.006 275.687 435.555 273.395 434.673 271.257C433.791 269.119 432.495 267.176 430.859 265.541C429.224 263.905 427.281 262.609 425.143 261.727C423.005 260.845 420.713 260.394 418.4 260.4ZM418.4 288.4C416.343 288.4 414.332 287.79 412.622 286.647C410.912 285.504 409.579 283.88 408.792 281.98C408.005 280.08 407.799 277.988 408.2 275.971C408.601 273.954 409.592 272.101 411.046 270.646C412.501 269.192 414.354 268.201 416.371 267.8C418.388 267.399 420.48 267.604 422.38 268.392C424.28 269.179 425.904 270.512 427.047 272.222C428.19 273.932 428.8 275.943 428.8 278C428.8 280.758 427.704 283.404 425.754 285.354C423.804 287.304 421.158 288.4 418.4 288.4Z" fill="#4C453E"/>
<path d="M418.4 264.64C415.758 264.64 413.175 265.424 410.978 266.892C408.781 268.36 407.068 270.446 406.057 272.887C405.046 275.329 404.781 278.015 405.297 280.606C405.812 283.198 407.085 285.578 408.953 287.447C410.821 289.315 413.202 290.588 415.794 291.103C418.385 291.619 421.071 291.354 423.513 290.343C425.954 289.332 428.04 287.619 429.508 285.422C430.976 283.225 431.76 280.642 431.76 278C431.766 276.244 431.425 274.504 430.756 272.88C430.087 271.256 429.103 269.781 427.861 268.539C426.619 267.297 425.144 266.313 423.52 265.644C421.896 264.975 420.156 264.634 418.4 264.64ZM418.4 288.4C416.343 288.4 414.332 287.79 412.622 286.647C410.912 285.504 409.579 283.88 408.792 281.98C408.005 280.08 407.799 277.988 408.2 275.971C408.601 273.954 409.592 272.101 411.046 270.646C412.501 269.192 414.354 268.201 416.371 267.8C418.388 267.399 420.48 267.604 422.38 268.392C424.28 269.179 425.905 270.512 427.047 272.222C428.19 273.932 428.8 275.943 428.8 278C428.8 280.758 427.704 283.403 425.754 285.354C423.804 287.304 421.158 288.4 418.4 288.4Z" fill="#6B635C"/>
<path d="M280 410C276.519 410 273.116 411.032 270.222 412.966C267.328 414.9 265.072 417.649 263.74 420.865C262.408 424.081 262.059 427.62 262.738 431.034C263.417 434.448 265.094 437.584 267.555 440.045C270.016 442.506 273.152 444.183 276.566 444.862C279.98 445.541 283.519 445.192 286.735 443.86C289.951 442.528 292.7 440.272 294.634 437.378C296.568 434.484 297.6 431.081 297.6 427.6C297.606 425.287 297.155 422.995 296.273 420.857C295.391 418.719 294.095 416.776 292.459 415.141C290.824 413.505 288.881 412.209 286.743 411.327C284.605 410.445 282.313 409.994 280 410ZM280 438C277.943 438 275.932 437.39 274.222 436.247C272.512 435.105 271.179 433.48 270.392 431.58C269.605 429.68 269.399 427.588 269.8 425.571C270.201 423.554 271.192 421.701 272.646 420.246C274.101 418.792 275.954 417.801 277.971 417.4C279.988 416.999 282.08 417.204 283.98 417.992C285.88 418.779 287.505 420.112 288.647 421.822C289.79 423.532 290.4 425.543 290.4 427.6C290.4 430.358 289.304 433.004 287.354 434.954C285.404 436.904 282.758 438 280 438Z" fill="#4C453E"/>
<path d="M280 414.24C277.358 414.24 274.775 415.024 272.578 416.492C270.381 417.96 268.668 420.046 267.657 422.487C266.646 424.929 266.381 427.615 266.897 430.206C267.412 432.798 268.685 435.178 270.553 437.047C272.421 438.915 274.802 440.188 277.394 440.703C279.985 441.219 282.671 440.954 285.113 439.943C287.554 438.932 289.64 437.219 291.108 435.022C292.576 432.825 293.36 430.242 293.36 427.6C293.366 425.844 293.025 424.104 292.356 422.48C291.687 420.856 290.703 419.381 289.461 418.139C288.219 416.897 286.744 415.913 285.12 415.244C283.496 414.575 281.756 414.234 280 414.24ZM280 438C277.943 438 275.932 437.39 274.222 436.247C272.512 435.104 271.179 433.48 270.392 431.58C269.605 429.68 269.399 427.588 269.8 425.571C270.201 423.554 271.192 421.701 272.646 420.246C274.101 418.792 275.954 417.801 277.971 417.4C279.988 416.999 282.08 417.204 283.98 417.992C285.88 418.779 287.505 420.112 288.647 421.822C289.79 423.532 290.4 425.543 290.4 427.6C290.4 430.358 289.304 433.004 287.354 434.954C285.404 436.904 282.758 438 280 438Z" fill="#6B635C"/>
<path d="M209.2 220.4C205.719 220.4 202.316 221.432 199.422 223.366C196.528 225.3 194.272 228.049 192.94 231.265C191.608 234.481 191.259 238.02 191.938 241.434C192.617 244.848 194.293 247.984 196.755 250.445C199.216 252.906 202.352 254.583 205.766 255.262C209.18 255.941 212.719 255.592 215.935 254.26C219.151 252.928 221.9 250.672 223.834 247.778C225.768 244.884 226.8 241.481 226.8 238C226.806 235.687 226.355 233.395 225.473 231.257C224.591 229.119 223.295 227.176 221.659 225.541C220.024 223.905 218.081 222.609 215.943 221.727C213.805 220.845 211.513 220.394 209.2 220.4ZM209.2 248.4C207.143 248.4 205.132 247.79 203.422 246.647C201.712 245.504 200.379 243.88 199.592 241.98C198.804 240.08 198.599 237.988 199 235.971C199.401 233.954 200.392 232.101 201.846 230.646C203.301 229.192 205.154 228.201 207.171 227.8C209.188 227.399 211.28 227.604 213.18 228.392C215.08 229.179 216.704 230.512 217.847 232.222C218.99 233.932 219.6 235.943 219.6 238C219.6 240.758 218.504 243.404 216.554 245.354C214.604 247.304 211.958 248.4 209.2 248.4Z" fill="#4C453E"/>
<path d="M209.2 224.64C206.558 224.64 203.975 225.424 201.778 226.892C199.581 228.36 197.868 230.446 196.857 232.887C195.846 235.329 195.581 238.015 196.097 240.606C196.612 243.198 197.885 245.578 199.753 247.447C201.621 249.315 204.002 250.588 206.594 251.103C209.185 251.619 211.871 251.354 214.313 250.343C216.754 249.332 218.84 247.619 220.308 245.422C221.776 243.225 222.56 240.642 222.56 238C222.566 236.244 222.225 234.504 221.556 232.88C220.887 231.256 219.903 229.781 218.661 228.539C217.419 227.297 215.944 226.313 214.32 225.644C212.696 224.975 210.956 224.634 209.2 224.64ZM209.2 248.4C207.143 248.4 205.132 247.79 203.422 246.647C201.712 245.504 200.379 243.88 199.592 241.98C198.804 240.08 198.599 237.988 199 235.971C199.401 233.954 200.392 232.101 201.846 230.646C203.301 229.192 205.154 228.201 207.171 227.8C209.188 227.399 211.28 227.604 213.18 228.392C215.08 229.179 216.704 230.512 217.847 232.222C218.99 233.932 219.6 235.943 219.6 238C219.6 240.758 218.504 243.404 216.554 245.354C214.604 247.304 211.958 248.4 209.2 248.4Z" fill="#6B635C"/>
<path d="M128.8 108C125.319 108 121.916 109.032 119.022 110.966C116.128 112.9 113.872 115.649 112.54 118.865C111.208 122.081 110.859 125.619 111.538 129.034C112.217 132.448 113.894 135.584 116.355 138.045C118.816 140.506 121.952 142.183 125.366 142.862C128.78 143.541 132.319 143.192 135.535 141.86C138.751 140.528 141.5 138.272 143.434 135.378C145.368 132.484 146.4 129.081 146.4 125.6C146.406 123.287 145.955 120.995 145.073 118.857C144.191 116.719 142.895 114.776 141.259 113.141C139.624 111.505 137.681 110.209 135.543 109.327C133.405 108.445 131.113 107.994 128.8 108ZM128.8 136C126.743 136 124.732 135.39 123.022 134.247C121.312 133.104 119.979 131.48 119.192 129.58C118.405 127.68 118.199 125.588 118.6 123.571C119.001 121.554 119.992 119.7 121.446 118.246C122.901 116.792 124.754 115.801 126.771 115.4C128.788 114.998 130.88 115.204 132.78 115.992C134.68 116.779 136.305 118.112 137.447 119.822C138.59 121.532 139.2 123.543 139.2 125.6C139.2 126.966 138.931 128.318 138.408 129.58C137.886 130.842 137.12 131.988 136.154 132.954C135.188 133.92 134.042 134.686 132.78 135.208C131.518 135.731 130.166 136 128.8 136Z" fill="#4C453E"/>
<path d="M128.8 112.24C126.158 112.24 123.575 113.024 121.378 114.492C119.181 115.96 117.468 118.046 116.457 120.487C115.446 122.929 115.181 125.615 115.697 128.206C116.212 130.798 117.485 133.178 119.353 135.047C121.221 136.915 123.602 138.188 126.194 138.703C128.785 139.219 131.471 138.954 133.913 137.943C136.354 136.932 138.44 135.219 139.908 133.022C141.376 130.825 142.16 128.242 142.16 125.6C142.166 123.844 141.825 122.104 141.156 120.48C140.487 118.856 139.503 117.381 138.261 116.139C137.019 114.897 135.544 113.913 133.92 113.244C132.296 112.575 130.556 112.234 128.8 112.24ZM128.8 136C126.743 136 124.732 135.39 123.022 134.247C121.312 133.104 119.979 131.48 119.192 129.58C118.405 127.68 118.199 125.588 118.6 123.571C119.001 121.554 119.992 119.701 121.446 118.246C122.901 116.792 124.754 115.801 126.771 115.4C128.788 114.999 130.88 115.204 132.78 115.992C134.68 116.779 136.305 118.112 137.447 119.822C138.59 121.532 139.2 123.543 139.2 125.6C139.2 126.966 138.931 128.318 138.408 129.58C137.886 130.842 137.12 131.988 136.154 132.954C135.188 133.92 134.042 134.686 132.78 135.208C131.518 135.731 130.166 136 128.8 136Z" fill="#6B635C"/>
<path d="M113.2 265.2C109.719 265.2 106.316 266.232 103.422 268.166C100.528 270.1 98.2718 272.849 96.9397 276.065C95.6076 279.281 95.2591 282.82 95.9382 286.234C96.6173 289.648 98.2935 292.784 100.755 295.245C103.216 297.706 106.352 299.383 109.766 300.062C113.18 300.741 116.719 300.392 119.935 299.06C123.151 297.728 125.9 295.472 127.834 292.578C129.768 289.684 130.8 286.281 130.8 282.8C130.806 280.487 130.355 278.195 129.473 276.057C128.591 273.919 127.295 271.976 125.659 270.341C124.024 268.705 122.081 267.409 119.943 266.527C117.805 265.645 115.513 265.194 113.2 265.2ZM113.2 293.2C111.143 293.2 109.132 292.59 107.422 291.447C105.712 290.305 104.379 288.68 103.592 286.78C102.804 284.88 102.599 282.788 103 280.771C103.401 278.754 104.392 276.901 105.846 275.446C107.301 273.992 109.154 273.001 111.171 272.6C113.188 272.199 115.28 272.405 117.18 273.192C119.08 273.979 120.704 275.312 121.847 277.022C122.99 278.732 123.6 280.743 123.6 282.8C123.6 285.558 122.504 288.204 120.554 290.154C118.604 292.104 115.958 293.2 113.2 293.2Z" fill="#4C453E"/>
<path d="M113.2 269.44C110.558 269.44 107.975 270.224 105.778 271.692C103.581 273.16 101.868 275.246 100.857 277.687C99.8458 280.129 99.5812 282.815 100.097 285.406C100.612 287.998 101.885 290.379 103.753 292.247C105.621 294.115 108.002 295.388 110.594 295.903C113.185 296.419 115.871 296.154 118.313 295.143C120.754 294.132 122.84 292.419 124.308 290.222C125.776 288.025 126.56 285.442 126.56 282.8C126.566 281.044 126.225 279.304 125.556 277.68C124.887 276.056 123.903 274.581 122.661 273.339C121.419 272.097 119.944 271.113 118.32 270.444C116.696 269.775 114.956 269.434 113.2 269.44ZM113.2 293.2C111.143 293.2 109.132 292.59 107.422 291.447C105.712 290.305 104.379 288.68 103.592 286.78C102.804 284.88 102.599 282.788 103 280.771C103.401 278.754 104.392 276.901 105.846 275.446C107.301 273.992 109.154 273.001 111.171 272.6C113.188 272.199 115.28 272.405 117.18 273.192C119.08 273.979 120.704 275.312 121.847 277.022C122.99 278.732 123.6 280.743 123.6 282.8C123.6 285.558 122.504 288.204 120.554 290.154C118.604 292.104 115.958 293.2 113.2 293.2Z" fill="#6B635C"/>
</g>
<defs>
<clipPath id="clip0_2_2">
<rect width="512" height="512" fill="white"/>
</clipPath>
</defs>
</svg>
