<svg width="512" height="512" viewBox="0 0 512 512" fill="none" xmlns="http://www.w3.org/2000/svg">
<path d="M22.3369 237.397L498.801 230.388L288.258 375.822L22.3369 237.397Z" fill="#FCE497"/>
<path opacity="0.33" d="M443.909 268.966C466.707 242.705 448.032 234.344 438.707 231.936L498.799 231.05L443.909 268.966Z" fill="#DE8A10"/>
<path d="M498.86 282.982C496.964 286.577 463.367 310.519 423.753 337.941C406.257 350.054 387.587 362.844 369.956 374.861C369.828 374.951 369.702 375.035 369.574 375.12C339.099 395.892 311.784 414.312 299.081 422.861C297.301 424.059 295.301 424.893 293.196 425.313C291.092 425.733 288.925 425.731 286.821 425.308C285.601 425.064 284.413 424.679 283.281 424.161C259.555 413.333 189.059 380.701 127.147 347.571V347.57C75.7982 320.094 30.3565 292.27 22.3966 276.25C22.3966 276.25 16.1587 256.044 22.3949 237.334H22.3966L288.317 375.782L443.846 268.351L443.853 268.344L498.859 230.349C498.86 230.347 503.6 274.002 498.86 282.982Z" fill="#E89C3E"/>
<path d="M369.473 375.12C338.999 395.892 311.683 414.312 298.981 422.861C297.2 424.059 295.2 424.893 293.096 425.313C290.991 425.733 288.824 425.731 286.72 425.308V375.806C286.72 375.806 308.041 416.56 369.473 375.12ZM498.801 282.982C496.905 286.577 463.307 310.519 423.694 337.941C427.914 314.796 478.843 308.453 485.33 280.513C491.817 252.573 443.788 268.349 443.788 268.349L443.795 268.343L498.801 230.347C498.801 230.347 503.54 274.002 498.801 282.982ZM127.087 347.568C75.7384 320.092 30.2967 292.268 22.3368 276.248C22.3368 276.248 16.1058 256.061 22.3266 237.36L22.3368 237.358C22.3368 237.358 30.819 279.516 72.2278 300.471C113.389 321.297 126.925 347.255 127.087 347.568Z" fill="#DE8A10"/>
<path d="M452.069 315.797C451.959 315.889 451.901 315.936 451.901 315.936C451.901 315.936 452.151 323.42 434.939 341.132C418.864 357.671 396.483 345.061 393.591 343.32C393.387 343.197 393.279 343.127 393.279 343.127C393.107 343.347 392.934 343.561 392.76 343.774C376.67 363.573 358.255 358.851 347.107 352.906C340.866 349.582 336.901 345.871 336.901 345.871C335.198 348.389 333.372 350.531 331.448 352.338C307.348 374.984 268.059 345.039 266.597 343.909C266.569 343.887 266.554 343.876 266.554 343.876C266.344 344.093 266.134 344.305 265.926 344.513C244.413 365.916 221.902 344.875 221.902 344.875C221.358 345.518 220.807 346.138 220.254 346.733C194.089 374.842 156.295 352.358 156.295 352.358C105.655 369.072 111.891 330.906 111.891 330.906L111.881 330.926C111.865 330.96 111.823 331.04 111.749 331.16C111.404 331.71 110.345 333.077 107.66 334.549C105.068 335.971 100.965 337.493 94.534 338.466C91.6633 338.9 88.3251 339.227 84.451 339.386C62.9333 340.274 74.3577 314.334 77.155 308.576C77.5014 307.861 77.7165 307.456 77.7165 307.456C30.819 216.653 199.451 217.651 370.828 229.874C537.887 241.79 456.288 312.255 452.069 315.797Z" fill="#4FAF0F"/>
<path d="M11.0933 232.008L44.1361 252.59L99.3963 287.014L139.769 312.165L193.06 295.45C193.087 295.443 193.102 295.439 193.102 295.439L307.606 259.524L360.851 242.825C333.283 239.794 305.388 237.466 278.004 235.691H278.001C195.118 230.316 116.944 230.011 66.8843 230.658C32.2679 231.103 11.0933 232.008 11.0933 232.008Z" fill="#EDA59E"/>
<path d="M360.789 242.78L139.745 312.107L11.0933 231.965V237.566L140.013 316.935L360.789 247.028V242.78Z" fill="#C99E99"/>
<path d="M331.45 352.338C307.35 374.984 268.061 345.038 266.598 343.909L266.556 343.627C266.556 343.627 305.174 363.1 330.641 348.873L331.45 352.338Z" fill="#2A9A0D"/>
<path opacity="0.33" d="M307.604 259.473L360.849 242.773C333.281 239.742 305.386 237.414 278.002 235.64C278.584 235.692 348.745 242.106 307.604 259.473ZM44.1361 252.541C31.558 235.411 56.7159 231.484 66.8826 230.608C32.2679 231.055 11.0933 231.96 11.0933 231.96L44.1361 252.541ZM99.3946 286.964L139.767 312.115L193.058 295.4C191.369 295.825 141.824 308.115 99.3946 286.964Z" fill="#BE8C8A"/>
<path d="M398.855 271.447C348.797 270.799 270.623 271.104 187.738 276.48H187.735C160.352 278.255 132.454 280.583 104.888 283.614L158.133 300.314L272.637 336.229C272.637 336.229 272.652 336.232 272.679 336.239L325.97 352.954L366.343 327.803L421.603 293.379L454.646 272.797C454.646 272.797 433.473 271.893 398.855 271.447Z" fill="#EDA59E"/>
<path d="M104.96 287.939L325.736 357.847L454.656 278.477V272.876L326.004 353.019L104.96 283.691V287.939Z" fill="#C99E99"/>
<path opacity="0.33" d="M246.361 233.144C218.977 234.919 191.08 237.247 163.514 240.278L216.759 256.978C175.618 239.613 245.777 233.199 246.361 233.144ZM454.646 272.87C454.646 272.87 433.471 271.966 398.857 271.519C409.025 272.394 434.181 276.323 421.603 293.451L454.646 272.87ZM272.681 336.311L325.972 353.026L366.345 327.875C323.915 349.027 274.372 336.736 272.681 336.311Z" fill="#BE8C8A"/>
<path d="M206.165 233.813V242.471C206.165 246.712 204.317 250.498 201.535 251.962C191.065 257.476 163.36 269.943 123.726 271.983C100.91 273.157 82.0855 269.723 68.2291 265.557H68.2257C58.042 262.496 50.5446 259.038 46.1192 256.729C43.3288 255.275 41.4737 251.479 41.4737 247.231V233.813H206.165Z" fill="#F63D04"/>
<path opacity="0.22" d="M68.0328 265.557H68.0294C57.9482 262.49 50.5276 259.04 46.1448 256.736C43.3835 255.283 41.5454 251.498 41.6427 247.257V233.813H44.032V239.538C43.9296 239.538 48.4318 256.244 68.0328 265.557Z" fill="#51723C"/>
<path d="M123.866 257.063C169.331 257.063 206.188 246.733 206.188 233.989C206.188 221.246 169.331 210.915 123.866 210.915C78.4018 210.915 41.5454 221.246 41.5454 233.989C41.5454 246.733 78.4018 257.063 123.866 257.063Z" fill="#E04648"/>
<path opacity="0.33" d="M111.921 222.7C111.921 222.7 82.6112 220.23 58.8715 229.152C58.0386 229.466 57.9277 231.093 58.7025 231.629C64.2884 235.477 79.389 244.845 88.5521 240.611L111.921 222.7ZM143.555 222.7C143.555 222.7 172.865 220.23 196.605 229.152C197.437 229.466 197.548 231.093 196.774 231.629C191.188 235.477 176.087 244.845 166.924 240.611L143.555 222.7ZM118.361 222.435L100.145 243.773C100.145 243.773 111.553 252.204 126.089 246.409L118.361 222.435ZM125.169 222.435L134.369 245.881C134.369 245.881 143.386 252.204 156.448 243.509L125.169 222.435Z" fill="#90353C"/>
<path d="M475.136 242.347V251.005C475.136 255.246 473.288 259.031 470.506 260.495C460.035 266.01 432.331 278.477 392.697 280.516C369.881 281.69 351.056 278.257 337.2 274.091H337.196C327.013 271.029 319.515 267.571 315.09 265.262C312.299 263.808 310.444 260.012 310.444 255.764V242.347H475.136Z" fill="#F63D04"/>
<path opacity="0.22" d="M336.947 274.091H336.944C326.862 270.973 319.442 267.522 315.059 265.216C312.298 263.764 310.46 259.978 310.443 255.737V242.347H312.832V248.02C312.846 248.02 317.348 264.726 336.947 274.091Z" fill="#51723C"/>
<path d="M392.781 265.545C438.245 265.545 475.102 255.215 475.102 242.471C475.102 229.728 438.245 219.397 392.781 219.397C347.316 219.397 310.46 229.728 310.46 242.471C310.46 255.215 347.316 265.545 392.781 265.545Z" fill="#E04648"/>
<path opacity="0.33" d="M380.836 231.182C380.836 231.182 351.526 228.712 327.786 237.635C326.953 237.949 326.842 239.575 327.617 240.111C333.203 243.96 348.303 253.327 357.466 249.093L380.836 231.182ZM412.471 231.182C412.471 231.182 441.781 228.712 465.521 237.635C466.353 237.949 466.464 239.575 465.69 240.111C460.104 243.96 445.003 253.327 435.84 249.093L412.471 231.182ZM387.275 230.917L369.06 252.256C369.06 252.256 380.467 260.687 395.003 254.891L387.275 230.917ZM394.085 230.917L403.285 254.363C403.285 254.363 412.302 260.687 425.364 251.991L394.085 230.917Z" fill="#90353C"/>
<path d="M330.923 306.176V314.834C330.923 319.075 329.074 322.86 326.292 324.325C315.822 329.839 288.118 342.306 248.484 344.346C225.667 345.52 206.843 342.086 192.986 337.92H192.983C182.799 334.858 175.302 331.401 170.877 329.091C168.086 327.637 166.231 323.842 166.231 319.594V306.176H330.923Z" fill="#F63D04"/>
<path d="M248.595 329.407C294.059 329.407 330.916 319.077 330.916 306.333C330.916 293.59 294.059 283.259 248.595 283.259C203.13 283.259 166.274 293.59 166.274 306.333C166.274 319.077 203.13 329.407 248.595 329.407Z" fill="#E04648"/>
<path opacity="0.33" d="M236.65 295.042C236.65 295.042 207.34 292.572 183.6 301.495C182.767 301.809 182.656 303.435 183.431 303.971C189.017 307.82 204.117 317.187 213.28 312.953L236.65 295.042ZM268.285 295.042C268.285 295.042 297.595 292.572 321.335 301.495C322.167 301.809 322.278 303.435 321.504 303.971C315.918 307.82 300.815 317.187 291.654 312.953L268.285 295.042ZM243.089 294.777L224.874 316.116C224.874 316.116 236.281 324.547 250.817 318.751L243.089 294.777ZM249.899 294.777L259.099 318.223C259.099 318.223 268.116 324.547 281.178 315.851L249.899 294.777Z" fill="#90353C"/>
<path d="M262.485 273.408V284.916C262.485 293.059 265.962 300.401 271.31 303.585C282.778 310.415 305.162 320.311 336.932 318.766C369.167 317.201 391.868 305.616 403.258 298.214C408.373 294.89 411.648 287.715 411.648 279.817V273.408H262.485Z" fill="#8E363D"/>
<path d="M411.657 273.271C411.657 293.934 378.284 310.685 337.116 310.685C333.641 310.685 330.226 310.564 326.88 310.333C290.555 307.833 262.578 292.192 262.578 273.275C262.578 252.612 295.95 235.861 337.118 235.861H337.261C378.361 235.895 411.657 252.629 411.657 273.271Z" fill="#DD4247"/>
<path opacity="0.22" d="M311.668 264.018C316.95 264.018 321.232 261.838 321.232 259.149C321.232 256.46 316.95 254.28 311.668 254.28C306.386 254.28 302.104 256.46 302.104 259.149C302.104 261.838 306.386 264.018 311.668 264.018Z" fill="white"/>
<path opacity="0.22" d="M360.359 286.278C365.641 286.278 369.923 284.098 369.923 281.409C369.923 278.72 365.641 276.54 360.359 276.54C355.077 276.54 350.795 278.72 350.795 281.409C350.795 284.098 355.077 286.278 360.359 286.278Z" fill="white"/>
<path opacity="0.22" d="M332.013 278.277C335.855 278.277 338.97 276.097 338.97 273.408C338.97 270.719 335.855 268.539 332.013 268.539C328.171 268.539 325.057 270.719 325.057 273.408C325.057 276.097 328.171 278.277 332.013 278.277Z" fill="white"/>
<path opacity="0.22" d="M384.532 268.887C388.374 268.887 391.489 266.707 391.489 264.018C391.489 261.329 388.374 259.149 384.532 259.149C380.691 259.149 377.576 261.329 377.576 264.018C377.576 266.707 380.691 268.887 384.532 268.887Z" fill="white"/>
<path opacity="0.22" d="M295.148 278.277C298.989 278.277 302.104 276.097 302.104 273.408C302.104 270.719 298.989 268.539 295.148 268.539C291.306 268.539 288.191 270.719 288.191 273.408C288.191 276.097 291.306 278.277 295.148 278.277Z" fill="white"/>
<path opacity="0.22" d="M308.886 288.712C312.056 288.712 314.626 286.999 314.626 284.885C314.626 282.772 312.056 281.059 308.886 281.059C305.716 281.059 303.147 282.772 303.147 284.885C303.147 286.999 305.716 288.712 308.886 288.712Z" fill="white"/>
<path opacity="0.22" d="M334.623 250.802C337.793 250.802 340.362 249.088 340.362 246.975C340.362 244.862 337.793 243.149 334.623 243.149C331.453 243.149 328.883 244.862 328.883 246.975C328.883 249.088 331.453 250.802 334.623 250.802Z" fill="white"/>
<path opacity="0.22" d="M356.535 261.584C359.704 261.584 362.274 259.871 362.274 257.758C362.274 255.645 359.704 253.932 356.535 253.932C353.365 253.932 350.795 255.645 350.795 257.758C350.795 259.871 353.365 261.584 356.535 261.584Z" fill="white"/>
<path opacity="0.33" d="M411.657 273.022C411.657 293.685 378.284 310.436 337.116 310.436C333.641 310.436 330.226 310.315 326.88 310.084C335.032 308.134 373.937 297.984 391.467 278.26C411.034 256.244 337.794 235.766 337.258 235.612C378.361 235.648 411.657 252.38 411.657 273.022Z" fill="#8E363D"/>
<path d="M306.176 224.256V235.764C306.176 243.907 309.652 251.249 315.001 254.433C326.468 261.263 348.853 271.159 380.623 269.614C412.858 268.049 435.558 256.464 446.949 249.062C452.064 245.738 455.339 238.563 455.339 230.665V224.256H306.176Z" fill="#8E363D"/>
<path d="M455.311 224.119C455.311 244.782 421.939 261.533 380.771 261.533C377.296 261.533 373.881 261.412 370.534 261.181C334.21 258.681 306.232 243.04 306.232 224.123C306.232 203.46 339.604 186.709 380.773 186.709H380.916C422.018 186.743 455.311 203.477 455.311 224.119Z" fill="#DD4247"/>
<path opacity="0.33" d="M455.311 223.879C455.311 244.542 421.939 261.292 380.771 261.292C377.296 261.292 373.881 261.171 370.534 260.941C378.687 258.99 417.592 248.841 435.122 229.117C454.688 207.101 381.449 186.622 380.913 186.469C422.018 186.505 455.311 203.238 455.311 223.879Z" fill="#8E363D"/>
<path d="M109.739 250.539V262.047C109.739 270.189 113.215 277.531 118.564 280.716C130.031 287.546 152.416 297.441 184.185 295.897C216.421 294.332 239.121 282.747 250.511 275.345C255.626 272.021 258.901 264.846 258.901 256.947V250.539H109.739Z" fill="#8E363D"/>
<path d="M258.988 250.231C258.988 270.894 225.616 287.645 184.448 287.645C180.973 287.645 177.558 287.524 174.211 287.293C137.887 284.793 109.909 269.152 109.909 250.235C109.909 229.572 143.281 212.821 184.45 212.821H184.593C225.695 212.855 258.988 229.589 258.988 250.231Z" fill="#DD4247"/>
<path d="M13.312 208.555V220.063C13.312 228.205 16.7885 235.547 22.1372 238.732C33.6042 245.562 55.9889 255.457 87.7585 253.913C119.994 252.348 142.694 240.763 154.085 233.361C159.2 230.036 162.475 222.862 162.475 214.963V208.555H13.312Z" fill="#8E363D"/>
<path d="M162.449 208.418C162.449 229.081 129.077 245.832 87.9087 245.832C84.4339 245.832 81.0189 245.711 77.6721 245.48C41.3474 242.98 13.37 227.338 13.37 208.422C13.37 187.759 46.7422 171.008 87.9104 171.008H88.0538C129.154 171.042 162.449 187.776 162.449 208.418Z" fill="#DD4247"/>
<path opacity="0.22" d="M159 241.068C164.282 241.068 168.564 238.888 168.564 236.199C168.564 233.51 164.282 231.33 159 231.33C153.718 231.33 149.436 233.51 149.436 236.199C149.436 238.888 153.718 241.068 159 241.068Z" fill="white"/>
<path opacity="0.22" d="M207.693 263.327C212.975 263.327 217.257 261.147 217.257 258.458C217.257 255.768 212.975 253.589 207.693 253.589C202.411 253.589 198.129 255.768 198.129 258.458C198.129 261.147 202.411 263.327 207.693 263.327Z" fill="white"/>
<path opacity="0.22" d="M179.347 255.328C183.189 255.328 186.303 253.148 186.303 250.458C186.303 247.769 183.189 245.589 179.347 245.589C175.505 245.589 172.39 247.769 172.39 250.458C172.39 253.148 175.505 255.328 179.347 255.328Z" fill="white"/>
<path opacity="0.22" d="M231.864 245.938C235.706 245.938 238.821 243.758 238.821 241.068C238.821 238.379 235.706 236.199 231.864 236.199C228.022 236.199 224.908 238.379 224.908 241.068C224.908 243.758 228.022 245.938 231.864 245.938Z" fill="white"/>
<path opacity="0.22" d="M142.479 255.328C146.321 255.328 149.436 253.148 149.436 250.458C149.436 247.769 146.321 245.589 142.479 245.589C138.637 245.589 135.523 247.769 135.523 250.458C135.523 253.148 138.637 255.328 142.479 255.328Z" fill="white"/>
<path opacity="0.22" d="M156.218 265.762C159.388 265.762 161.958 264.049 161.958 261.936C161.958 259.823 159.388 258.109 156.218 258.109C153.048 258.109 150.479 259.823 150.479 261.936C150.479 264.049 153.048 265.762 156.218 265.762Z" fill="white"/>
<path opacity="0.22" d="M181.955 227.852C185.124 227.852 187.694 226.139 187.694 224.026C187.694 221.912 185.124 220.199 181.955 220.199C178.785 220.199 176.215 221.912 176.215 224.026C176.215 226.139 178.785 227.852 181.955 227.852Z" fill="white"/>
<path opacity="0.22" d="M203.866 238.635C207.036 238.635 209.606 236.922 209.606 234.808C209.606 232.695 207.036 230.982 203.866 230.982C200.697 230.982 198.127 232.695 198.127 234.808C198.127 236.922 200.697 238.635 203.866 238.635Z" fill="white"/>
<path opacity="0.33" d="M258.988 250.073C258.988 270.735 225.616 287.486 184.448 287.486C180.973 287.486 177.558 287.365 174.211 287.135C182.364 285.184 221.269 275.034 238.798 255.31C258.365 233.294 185.126 212.816 184.59 212.663C225.695 212.698 258.988 229.431 258.988 250.073Z" fill="#8E363D"/>
<path d="M107.662 334.548L94.5357 338.464C91.665 338.898 88.3268 339.226 84.4527 339.384C62.935 340.272 74.3594 314.332 77.1567 308.574L77.7182 308.451C77.7165 308.453 69.7532 340.437 107.662 334.548ZM111.882 337.908C111.867 337.942 111.824 338.022 111.751 338.142L111.882 337.908Z" fill="#2A9A0D"/>
<path d="M156.295 352.357C105.655 369.07 111.891 330.904 111.891 330.904C111.891 330.904 118.876 358.593 156.295 352.357ZM221.902 343.625L220.254 346.732C194.089 374.84 156.295 352.357 156.295 352.357C156.295 352.357 201.448 362.834 221.902 343.625Z" fill="#2A9A0D"/>
<path d="M266.52 343.625L265.892 344.511C244.379 365.914 221.868 344.873 221.868 344.873V343.625C221.867 343.625 247.81 354.103 266.52 343.625ZM392.781 343.625L392.76 343.772C376.67 363.571 358.255 358.849 347.107 352.905L346.987 352.203C346.987 352.205 371.079 361.586 392.781 343.625ZM451.901 315.936C451.901 315.936 452.151 323.42 434.939 341.132C418.864 357.671 396.483 345.061 393.591 343.32L392.782 341.883C393.187 341.992 429.327 351.903 451.901 315.438L452.069 315.797C451.959 315.889 451.901 315.936 451.901 315.936Z" fill="#2A9A0D"/>
<path d="M498.801 141.106L443.911 179.144L288.259 287.01L282.952 284.237L22.3369 148.139L311.665 143.872H311.666L438.707 141.995L498.801 141.106Z" fill="#FCE497"/>
<path d="M498.86 193.678C496.964 197.272 463.367 221.215 423.753 248.636C406.257 260.75 387.587 273.539 369.956 285.556C369.828 285.647 369.702 285.73 369.574 285.815C339.099 306.587 311.784 325.007 299.081 333.556C297.301 334.755 295.301 335.588 293.196 336.008C291.092 336.428 288.925 336.427 286.821 336.003C285.601 335.759 284.413 335.374 283.281 334.857C259.555 324.028 189.059 291.396 127.147 258.266V258.265C75.7982 230.789 30.3565 202.965 22.3966 186.945C22.3966 186.945 16.1587 166.74 22.3949 148.029H22.3966L288.317 286.478L443.846 179.046L443.853 179.04L498.859 141.044C498.86 141.042 503.6 184.697 498.86 193.678Z" fill="#E89C3E"/>
<path d="M369.473 285.814C338.999 306.586 311.683 325.006 298.981 333.554C297.2 334.753 295.2 335.586 293.096 336.006C290.991 336.427 288.824 336.425 286.72 336.002V286.5C286.72 286.5 308.041 327.255 369.473 285.814ZM498.801 193.678C496.905 197.272 463.307 221.215 423.694 248.636C427.914 225.492 478.843 219.148 485.33 191.208C491.817 163.268 443.788 179.045 443.788 179.045L443.795 179.038L498.801 141.042C498.801 141.042 503.54 184.697 498.801 193.678ZM127.087 258.261C75.7384 230.786 30.2967 202.962 22.3368 186.941C22.3368 186.941 16.1058 166.755 22.3266 148.053L22.3368 148.052C22.3368 148.052 30.819 190.21 72.2278 211.164C113.389 231.992 126.925 257.951 127.087 258.261Z" fill="#DE8A10"/>
<path opacity="0.33" d="M282.95 283.628L22.3369 147.968L311.665 143.712C310.909 143.737 160.567 148.796 172.51 180.646C183.098 208.881 264.296 269.885 282.95 283.628Z" fill="#DE8A10"/>
<path opacity="0.44" d="M231.881 164.031C231.881 164.031 315.022 235.517 341.658 227.801C368.294 220.085 234.74 146.014 231.881 164.031ZM191.968 179.746C191.968 179.746 275.108 251.232 301.744 243.516C328.381 235.798 194.828 161.729 191.968 179.746ZM289.505 152.293C289.505 152.293 362.028 214.649 385.261 207.918C408.497 201.187 292 136.576 289.505 152.293ZM350.872 145.184C350.872 145.184 404.538 191.328 421.731 186.346C438.924 181.366 352.718 133.555 350.872 145.184Z" fill="#DE8A10"/>
<path d="M281.941 209.579H280.405C279.934 209.579 279.552 209.196 279.552 208.725V94.72C279.552 94.249 279.934 93.8667 280.405 93.8667H281.941C282.412 93.8667 282.795 94.249 282.795 94.72V208.725C282.795 209.196 282.412 209.579 281.941 209.579Z" fill="#F2BC33"/>
<path d="M281.213 95.6655L330.854 127.846L281.088 145.992L281.213 95.6655Z" fill="#DD4247"/>
<path d="M279.552 95.2321H282.795V147.115H279.552V95.2321Z" fill="#842A25"/>
<path opacity="0.33" d="M443.909 179.024C466.707 152.764 448.032 144.403 438.707 141.995L498.799 141.109L443.909 179.024Z" fill="#DE8A10"/>
</svg>
