<svg width="512" height="512" viewBox="0 0 512 512" fill="none" xmlns="http://www.w3.org/2000/svg">
<path d="M488 256V305.36C488 311.98 485.946 318.438 482.123 323.842C478.299 329.246 472.893 333.332 466.65 335.535L352 376V341.14L445.381 307.792C448.489 306.682 451.177 304.638 453.079 301.941C454.98 299.243 456 296.024 456 292.724V272C456 267.757 454.314 263.687 451.314 260.686C448.313 257.686 444.243 256 440 256H352V224H456C464.487 224 472.626 227.371 478.627 233.373C484.629 239.374 488 247.513 488 256Z" fill="#D9DBDD"/>
<path d="M310.071 432H152C41.2499 352 63.9999 184 63.9999 184H398.071C398.071 184 420.821 352 310.071 432Z" fill="#E0E2E5"/>
<path d="M399.01 248C394.97 304.08 376.62 383.93 310.07 432H152C85.4501 383.93 67.1001 304.08 63.0601 248H399.01Z" fill="#F4AE40"/>
<path d="M480 424C480 424 480 488 408 488H104C32 488 32 424 32 424H480Z" fill="#D9DBDD"/>
<path d="M280 296C277.878 296 275.843 295.157 274.343 293.657C272.843 292.157 272 290.122 272 288V184C272 181.878 272.843 179.843 274.343 178.343C275.843 176.843 277.878 176 280 176C282.122 176 284.157 176.843 285.657 178.343C287.157 179.843 288 181.878 288 184V288C288 290.122 287.157 292.157 285.657 293.657C284.157 295.157 282.122 296 280 296Z" fill="#C46F2A"/>
<path d="M312 312V392H248V312L280 280L312 312Z" fill="#E07E30"/>
<path d="M229.333 160C227.751 160 226.204 159.531 224.889 158.651C223.573 157.772 222.548 156.523 221.942 155.061C221.337 153.599 221.179 151.991 221.487 150.439C221.796 148.887 222.558 147.462 223.677 146.343C224.415 145.575 242.743 125.898 222.477 92.116C208.293 68.476 211.699 49.471 217.054 37.689C220.603 29.8928 225.9 23.0188 232.534 17.6C234.23 16.3499 236.35 15.8192 238.435 16.123C240.519 16.4267 242.4 17.5405 243.668 19.2226C244.937 20.9046 245.491 23.019 245.21 25.1068C244.928 27.1947 243.835 29.0874 242.167 30.374C237.513 34.325 233.82 39.2836 231.367 44.874C226.187 56.787 227.811 69.912 236.194 83.885C263.099 128.726 236.152 156.497 234.994 157.658C234.251 158.402 233.369 158.992 232.397 159.394C231.426 159.796 230.384 160.002 229.333 160ZM136 160C134.418 160 132.871 159.531 131.555 158.652C130.24 157.773 129.214 156.523 128.609 155.061C128.003 153.6 127.845 151.991 128.153 150.439C128.462 148.887 129.224 147.462 130.343 146.343C132.174 144.472 147.981 127.295 130.343 109.657C115.056 94.369 115.96 78.821 119.411 68.47C121.712 61.7133 125.441 55.5309 130.343 50.343C131.839 48.8388 133.872 47.9907 135.994 47.9853C138.116 47.9798 140.153 48.8175 141.657 50.314C143.161 51.8105 144.009 53.8432 144.015 55.965C144.02 58.0868 143.183 60.1238 141.686 61.628C139.824 63.528 124.02 80.706 141.657 98.343C156.944 113.631 156.04 129.179 152.589 139.53C150.288 146.287 146.559 152.469 141.657 157.657C140.915 158.401 140.033 158.991 139.062 159.393C138.091 159.795 137.051 160.001 136 160ZM328 160C326.418 160 324.871 159.531 323.555 158.652C322.24 157.773 321.214 156.523 320.609 155.061C320.003 153.6 319.845 151.991 320.153 150.439C320.462 148.887 321.224 147.462 322.343 146.343C324.174 144.472 339.98 127.295 322.343 109.657C307.056 94.369 307.96 78.821 311.41 68.47C313.712 61.7135 317.441 55.5313 322.343 50.343C323.084 49.5982 323.964 49.0066 324.934 48.6021C325.904 48.1976 326.943 47.988 327.994 47.9853C329.045 47.9826 330.085 48.1869 331.057 48.5864C332.029 48.986 332.912 49.573 333.657 50.314C334.402 51.055 334.993 51.9354 335.398 52.905C335.802 53.8746 336.012 54.9144 336.015 55.965C336.017 57.0156 335.813 58.0564 335.414 59.0281C335.014 59.9998 334.427 60.8832 333.686 61.628C331.823 63.528 316.021 80.706 333.657 98.343C348.944 113.631 348.04 129.179 344.59 139.53C342.288 146.286 338.559 152.469 333.657 157.657C332.915 158.401 332.033 158.991 331.062 159.393C330.092 159.795 329.051 160.001 328 160Z" fill="#E0E2E5"/>
</svg>
