<svg width="512" height="512" viewBox="0 0 512 512" fill="none" xmlns="http://www.w3.org/2000/svg">
<g clip-path="url(#clip0_2_248)">
<path d="M435.052 64.1322H477.706V98.2553H435.052V64.1322Z" fill="#ED5565"/>
<path d="M435.052 98.2553H477.706V140.909H435.052V98.2553Z" fill="#DA4453"/>
<path d="M426.693 277.402H486.409V354.179H426.693V277.402Z" fill="#ED5565"/>
<path d="M486.409 277.402H426.693V354.179H486.409V277.402ZM511.913 239.101L512.001 430.872C512.001 440.257 504.332 447.934 494.94 447.934H418.074C408.607 447.934 401.013 440.257 401.013 430.872V239.101C401.013 216.162 415.005 196.447 434.882 188.008L435.061 187.916V140.909H477.715V187.916L477.96 188.008C497.925 196.359 511.913 216.074 511.913 239.101Z" fill="#656D78"/>
<path d="M511.914 239.101C511.914 216.075 497.925 196.359 477.961 188.008L477.716 187.916V140.909H460.637V196.455L460.883 196.547C480.855 204.899 494.835 224.613 494.835 247.64L494.922 430.872C494.922 440.257 487.254 447.934 477.861 447.934H494.94C504.332 447.934 512.001 440.257 512.001 430.872L511.914 239.101Z" fill="#434A54"/>
<path d="M162.076 422.171L366.815 422.254L375.258 447.846V447.934L153.545 447.763V447.68L162.076 422.171Z" fill="#E9573F"/>
<path d="M366.815 422.254H349.737L358.188 447.846V447.918L375.258 447.934V447.846L366.815 422.254Z" fill="#DD4B37"/>
<path d="M366.815 379.688V422.254L162.076 422.171V379.517L366.727 379.688H366.815Z" fill="#FC6E51"/>
<path d="M366.727 379.688H349.737V422.246L366.815 422.254V379.688H366.727Z" fill="#E9573F"/>
<path d="M264.445 277.318C302.239 277.318 332.862 292.588 332.862 311.441C332.862 330.294 302.239 345.565 264.445 345.565C226.645 345.565 195.945 330.294 195.945 311.441C195.945 292.588 226.653 277.318 264.445 277.318ZM315.63 89.7245C306.162 89.7245 298.652 97.3276 298.569 106.703H230.322C230.235 97.2348 222.646 89.7245 213.261 89.7245V64.1322H315.63V89.7245Z" fill="#E6E9ED"/>
<path d="M298.569 106.786V132.378H230.322V106.703H298.569V106.786Z" fill="#656D78"/>
<path d="M324.073 192.011C347.704 192.011 366.727 211.117 366.727 234.748V243.278L162.076 243.108V234.577C162.076 210.938 181.183 191.923 204.73 191.923L230.235 192.011H230.322V166.418C220.854 166.418 213.344 158.912 213.261 149.44V149.357C213.344 139.889 220.854 132.378 230.322 132.378H298.569C307.953 132.378 315.543 139.889 315.63 149.357V149.44C315.543 158.912 307.953 166.418 298.569 166.418V192.011H324.073Z" fill="#FC6E51"/>
<path d="M324.073 192.011H306.996C330.626 192.011 349.65 211.117 349.65 234.748V243.262L366.727 243.278V234.748C366.727 211.117 347.704 192.011 324.073 192.011Z" fill="#E9573F"/>
<path d="M366.815 243.278V379.688H366.727L162.076 379.517V243.108L366.727 243.278H366.815ZM332.862 311.441C332.862 292.588 302.239 277.318 264.445 277.318C226.645 277.318 195.945 292.588 195.945 311.441C195.945 330.294 226.653 345.565 264.445 345.565C302.239 345.565 332.862 330.294 332.862 311.441Z" fill="#656D78"/>
<path d="M366.727 243.278H349.737V379.672L366.727 379.688H366.815V243.278H366.727Z" fill="#434A54"/>
<path d="M85.4784 290.285V345.735H42.8245V290.285C42.8245 278.427 52.38 268.958 64.1514 268.958C75.9239 268.958 85.4784 278.427 85.4784 290.285Z" fill="white"/>
<path d="M85.3077 64.4734V107.127H42.6539V64.4734H85.3077Z" fill="#656D78"/>
<path d="M83.7711 64.4734H68.2291V107.127H85.3077V64.4734H83.7711ZM42.6539 107.127H85.3077V149.781H42.6539V107.127Z" fill="#434A54"/>
<path d="M68.2291 107.127H85.3077V149.781H68.2291V107.127Z" fill="#353B44"/>
<path d="M119.431 422.425V448.017H8.61395V422.425H8.53077C8.61395 417.652 12.3718 413.894 17.1447 413.894L0 235.089H0.083175C0.083175 230.312 1.96208 226.046 5.03102 222.976L42.6539 183.905V149.782H85.3077V183.905L122.93 222.976C126.075 226.047 127.962 230.313 127.962 235.09L110.9 413.895C115.59 413.895 119.431 417.734 119.431 422.426V422.425ZM85.4784 345.735V290.285C85.4784 278.427 75.9239 268.958 64.1514 268.958C52.38 268.958 42.8245 278.427 42.8245 290.285V345.735H85.4784Z" fill="#A0D468"/>
<path d="M110.9 413.894L127.962 235.089C127.962 230.312 126.074 226.046 122.93 222.976L85.3077 183.905V149.782H68.2291V192.444L105.852 231.516C108.997 234.59 110.883 238.855 110.883 243.629L93.8214 413.894C98.5123 413.894 102.352 417.735 102.352 422.425V448.017H119.431V422.425C119.431 417.735 115.59 413.894 110.9 413.894Z" fill="#8CC152"/>
<path d="M8.53076 422.425H8.61394V448.017H119.431V422.425C119.431 417.735 115.59 413.894 110.9 413.894H17.1447C12.3717 413.894 8.61394 417.652 8.53076 422.425Z" fill="#8CC152"/>
<path d="M110.9 413.894H93.8215C98.5123 413.894 102.352 417.735 102.352 422.425V448.017H119.431V422.425C119.431 417.735 115.59 413.894 110.9 413.894Z" fill="#7EAF3F"/>
<path d="M460.629 98.2553H477.706V140.909H460.63L460.629 98.2553Z" fill="#D3374E"/>
<path d="M460.629 64.1322H477.706V98.2553H460.63L460.629 64.1322Z" fill="#DA4453"/>
<path d="M230.322 183.521H238.82C243.535 183.521 247.351 179.71 247.351 174.991C247.351 170.275 243.535 166.46 238.82 166.46H230.322V183.521ZM290.004 183.521H298.569V166.46H290.005C285.285 166.46 281.474 170.275 281.474 174.991C281.474 179.71 285.294 183.521 290.005 183.521H290.004Z" fill="#E9573F"/>
<path d="M290.192 320.118H238.741C234.026 320.118 230.21 316.303 230.21 311.588C230.21 306.868 234.026 303.057 238.741 303.057H290.192C294.908 303.057 298.723 306.868 298.723 311.588C298.723 316.303 294.908 320.118 290.192 320.118Z" fill="#656D78"/>
</g>
<defs>
<clipPath id="clip0_2_248">
<rect width="512" height="512" fill="white"/>
</clipPath>
</defs>
</svg>
