<svg width="512" height="512" viewBox="0 0 512 512" fill="none" xmlns="http://www.w3.org/2000/svg">
<g clip-path="url(#clip0_2_445)">
<path d="M256.382 484.451L264.11 440.336C264.11 440.336 193.93 235.815 193.47 233.077C192.558 227.822 192.421 222.462 193.066 217.167L108.075 204.968L105.685 218.639L71.5536 212.666C66.1686 211.719 60.6499 211.844 55.3131 213.032C49.9763 214.221 44.9262 216.45 40.4518 219.592C35.9773 222.734 32.1662 226.727 29.2366 231.343C26.307 235.96 24.3163 241.108 23.3785 246.495L0.61813 376.362C-3.32067 398.998 11.8192 420.546 34.4516 424.508L68.5871 430.489L64.9941 450.989C62.5716 450.513 60.0659 450.691 57.7354 451.506C55.4048 452.321 53.3339 453.743 51.7361 455.625C50.1386 457.507 49.0719 459.781 48.6461 462.212C48.2204 464.644 48.4508 467.145 49.3138 469.458C50.1768 471.771 51.641 473.811 53.5556 475.37C55.4701 476.928 57.7656 477.947 60.2054 478.323L251.53 511.791C259.082 513.112 266.27 508.059 267.591 500.511C268.911 492.958 263.859 485.769 256.31 484.45L256.382 484.451ZM73.3983 403.149L46.0659 398.371C34.7458 396.393 27.1713 385.608 29.1542 374.287L49.4747 258.11C51.4475 246.79 62.2332 239.216 73.5533 241.198L100.887 245.974L73.3983 403.149Z" fill="#E2E2E2"/>
<path d="M211.11 230.048C206.496 231.648 201.97 233.399 197.359 234.71C195.302 235.294 193.89 235.815 193.434 233.079C192.465 227.632 192.338 222.069 193.057 216.583C193.057 216.298 193.211 216.025 193.254 215.749L117 206.543L75.6844 448.025C75.4997 449.19 75.5463 450.38 75.8215 451.527C76.0968 452.674 76.5952 453.755 77.2885 454.71C77.9817 455.664 78.8562 456.472 79.8619 457.089C80.8676 457.705 81.9849 458.117 83.1499 458.302L238.842 483.004C241.178 483.374 243.566 482.809 245.487 481.43C247.408 480.051 248.708 477.97 249.105 475.639L257.921 422.345L212.439 235.701C211.852 233.854 211.407 231.964 211.11 230.048Z" fill="#F4C734"/>
<path d="M194.474 235.701L274.886 472.135C267.755 474.691 263.987 482.495 266.425 489.67C268.869 496.844 276.614 500.736 283.824 498.407L467.732 435.845C474.864 433.293 478.631 425.486 476.188 418.311C473.75 411.135 466.004 407.249 458.793 409.573L450.71 385.902L478.346 376.499C500.131 369.113 511.794 345.46 504.398 323.683L461.956 198.899C454.548 177.136 430.903 165.491 409.139 172.895L381.499 182.341L378.372 173.179L194.474 235.701ZM462.899 352.473L441.824 359.657L390.438 208.574L411.508 201.385C422.39 197.683 434.21 203.504 437.908 214.385L475.895 326.06C479.6 336.942 473.78 348.763 462.899 352.46V352.473Z" fill="#E2E2E2"/>
<path d="M370.351 175.859L201.733 233.228L280.465 459.63C282.079 464.284 287.14 466.767 291.812 465.2L441.276 415.095C443.535 414.338 445.401 412.714 446.463 410.581C447.525 408.449 447.696 405.981 446.939 403.722L370.351 175.859Z" fill="#F4C734"/>
<path d="M193.084 216.583C195.711 195.407 214.162 179.803 235.483 180.728C236.294 179.486 237.169 178.286 238.105 177.135C237.004 176.775 235.886 176.478 234.754 176.237C224.668 174.983 214.437 175.591 204.57 178.031C197.689 170.121 188.707 164.323 178.666 161.309C168.624 158.294 157.934 158.187 147.835 161C137.734 163.811 128.636 169.428 121.597 177.2C114.559 184.971 109.867 194.578 108.066 204.907L192.815 221.499C192.877 219.89 192.86 218.219 193.084 216.583ZM362.917 17.9649C362.917 27.886 354.873 35.9298 344.952 35.9298C335.026 35.9298 326.987 27.886 326.987 17.9649C326.987 8.04378 335.026 7.62939e-06 344.952 7.62939e-06C354.873 7.62939e-06 362.917 8.04378 362.917 17.9649ZM300.04 80.8419C300.04 100.684 283.952 116.772 264.11 116.772C244.263 116.772 228.18 100.684 228.18 80.8419C228.18 60.9997 244.263 44.9122 264.11 44.9122C283.952 44.9122 300.04 60.9997 300.04 80.8419ZM165.303 89.8244C165.303 104.706 153.238 116.772 138.356 116.772C123.47 116.772 111.409 104.706 111.409 89.8244C111.409 74.9427 123.47 62.8771 138.356 62.8771C153.238 62.8771 165.303 74.9427 165.303 89.8244ZM102.426 17.9649C102.426 27.886 94.3824 35.9298 84.4613 35.9298C74.5357 35.9298 66.4965 27.886 66.4965 17.9649C66.4965 8.04378 74.5357 7.62939e-06 84.4613 7.62939e-06C94.3824 7.62939e-06 102.426 8.04378 102.426 17.9649Z" fill="#F9F2CC"/>
<path d="M312.013 266.671C311.618 265.521 310.993 264.465 310.175 263.566C309.357 262.667 308.365 261.945 307.258 261.443C305.149 263.367 302.666 264.838 299.965 265.762C298.4 266.273 296.78 266.599 295.14 266.732C294.459 268.572 294.413 270.586 295.009 272.455L347.32 426.219C348.089 428.471 349.721 430.326 351.856 431.377C353.992 432.428 356.457 432.589 358.711 431.824C360.964 431.055 362.819 429.424 363.87 427.288C364.921 425.153 365.082 422.687 364.316 420.433L312.013 266.671ZM254.645 276.705C256.9 275.939 259.367 276.099 261.503 277.151C263.64 278.203 265.271 280.06 266.039 282.315L318.346 436.074C318.726 437.19 318.881 438.37 318.805 439.546C318.728 440.723 318.421 441.873 317.9 442.93C317.379 443.988 316.655 444.933 315.769 445.71C314.883 446.488 313.853 447.084 312.736 447.463C311.62 447.843 310.44 447.999 309.264 447.922C308.087 447.846 306.937 447.538 305.88 447.018C304.822 446.497 303.878 445.773 303.1 444.887C302.322 444.001 301.726 442.97 301.347 441.854L249.039 288.1C248.658 286.984 248.501 285.804 248.577 284.627C248.653 283.45 248.959 282.3 249.48 281.241C250.001 280.183 250.725 279.238 251.611 278.459C252.497 277.681 253.528 277.085 254.645 276.705ZM346.592 245.416C347.709 245.036 348.889 244.88 350.065 244.956C351.242 245.033 352.392 245.34 353.449 245.861C354.507 246.382 355.452 247.106 356.23 247.992C357.007 248.878 357.603 249.909 357.982 251.025L410.289 404.785C410.669 405.901 410.825 407.081 410.749 408.258C410.673 409.435 410.366 410.586 409.845 411.644C409.324 412.702 408.599 413.647 407.713 414.425C406.827 415.203 405.796 415.799 404.68 416.179C399.986 417.78 394.885 415.267 393.289 410.569L340.983 256.811C340.216 254.556 340.376 252.089 341.428 249.952C342.48 247.815 344.338 246.183 346.592 245.416ZM155.737 446.876L183.719 286.895C184.131 284.547 185.457 282.46 187.407 281.09C189.357 279.721 191.772 279.182 194.119 279.592L194.128 279.596C195.29 279.8 196.4 280.23 197.395 280.862C198.391 281.494 199.252 282.316 199.93 283.282C200.607 284.247 201.088 285.336 201.345 286.487C201.602 287.638 201.629 288.828 201.426 289.99L173.444 449.973C173.24 451.135 172.81 452.246 172.177 453.241C171.544 454.237 170.721 455.099 169.756 455.776C168.79 456.454 167.7 456.935 166.549 457.191C165.397 457.448 164.206 457.475 163.044 457.271H163.035C161.873 457.068 160.763 456.638 159.767 456.005C158.772 455.373 157.911 454.551 157.233 453.585C156.555 452.62 156.074 451.531 155.818 450.38C155.561 449.228 155.534 448.038 155.737 446.876ZM203.474 455.306L217.974 367.372C218.781 362.477 223.399 359.162 228.289 359.969C229.453 360.161 230.567 360.58 231.569 361.203C232.571 361.826 233.44 362.64 234.127 363.598C234.814 364.557 235.306 365.642 235.574 366.79C235.842 367.939 235.881 369.129 235.688 370.293L221.193 458.227C220.386 463.122 215.763 466.438 210.873 465.63C208.523 465.242 206.424 463.936 205.037 462C203.649 460.064 203.087 457.656 203.474 455.306ZM107.9 438.5L135.873 278.525C136.728 273.64 141.382 270.368 146.268 271.224H146.276C147.439 271.427 148.55 271.857 149.546 272.489C150.542 273.121 151.404 273.944 152.082 274.91C152.76 275.875 153.241 276.965 153.498 278.117C153.755 279.269 153.783 280.46 153.579 281.622L125.605 441.596C125.194 443.942 123.869 446.029 121.919 447.399C119.97 448.768 117.557 449.307 115.21 448.898L115.203 448.894C114.04 448.691 112.93 448.261 111.933 447.629C110.937 446.997 110.076 446.175 109.397 445.21C108.719 444.244 108.238 443.155 107.981 442.003C107.724 440.852 107.696 439.661 107.9 438.499V438.5Z" fill="#E0B730"/>
<path d="M250.079 499.648C249.825 499.648 249.57 499.626 249.325 499.586L65.7509 468.715C65.1679 468.618 64.61 468.406 64.1093 468.092C63.6086 467.778 63.1751 467.368 62.8338 466.886C62.4908 466.405 62.2464 465.861 62.1146 465.285C61.9828 464.709 61.9662 464.113 62.0658 463.531C62.2875 462.368 62.9496 461.336 63.914 460.649C64.8785 459.963 66.0707 459.675 67.242 459.847L250.825 490.728C251.934 490.917 252.933 491.515 253.622 492.404C254.311 493.294 254.642 494.409 254.548 495.531C254.456 496.653 253.945 497.699 253.118 498.462C252.29 499.225 251.205 499.649 250.079 499.649V499.648ZM280.386 485.617C279.318 485.624 278.283 485.25 277.466 484.561C276.649 483.873 276.104 482.916 275.93 481.863C275.754 480.809 275.959 479.727 276.509 478.811C277.059 477.896 277.917 477.206 278.93 476.866L455.776 416.235C456.905 415.849 458.14 415.928 459.211 416.453C460.282 416.978 461.1 417.908 461.486 419.036C461.871 420.165 461.793 421.4 461.267 422.471C460.742 423.542 459.813 424.36 458.684 424.746L281.847 485.377C281.376 485.536 280.883 485.617 280.386 485.617Z" fill="#CCCCCC"/>
<path d="M193.084 216.583C192.369 222.072 192.496 227.637 193.461 233.087C193.921 235.78 195.329 235.294 197.386 234.71C202.364 233.293 207.267 231.351 212.241 229.653C216.939 228.056 222.043 230.566 223.641 235.258L229.303 251.903C232.614 262.377 243.246 268.701 254.031 266.618C256.871 265.967 259.544 264.728 261.875 262.98C264.207 261.232 266.146 259.013 267.566 256.469C268.985 253.924 269.854 251.109 270.117 248.208C270.38 245.306 270.031 242.381 269.093 239.622L273.18 251.636C276.491 262.101 287.119 268.424 297.899 266.345C300.739 265.695 303.412 264.456 305.744 262.709C308.075 260.961 310.014 258.743 311.435 256.199C312.856 253.655 313.727 250.841 313.992 247.939C314.257 245.037 313.91 242.112 312.973 239.353L302.453 208.446C301.688 206.192 301.85 203.725 302.902 201.59C303.955 199.454 305.813 197.824 308.067 197.057L378.372 173.135C375 163.207 368.883 154.437 360.731 147.843C352.578 141.248 342.723 137.1 332.309 135.878C321.895 134.656 311.348 136.411 301.89 140.938C292.432 145.466 284.451 152.582 278.873 161.46C261.803 158.157 244.478 165.846 235.483 180.728C214.228 179.987 195.882 195.504 193.084 216.583Z" fill="#F9F2CC"/>
</g>
<defs>
<clipPath id="clip0_2_445">
<rect width="512" height="512" fill="white"/>
</clipPath>
</defs>
</svg>
