<svg width="512" height="512" viewBox="0 0 512 512" fill="none" xmlns="http://www.w3.org/2000/svg">
<path d="M256 504C392.967 504 504 392.967 504 256C504 119.033 392.967 8 256 8C119.033 8 8 119.033 8 256C8 392.967 119.033 504 256 504Z" fill="#BACED3"/>
<path d="M256 472C375.294 472 472 375.294 472 256C472 136.706 375.294 40 256 40C136.706 40 40 136.706 40 256C40 375.294 136.706 472 256 472Z" fill="#D6E4E8"/>
<path d="M424 120.288C415.621 109.94 406.31 100.383 396.184 91.736C389.869 92.651 383.424 91.6447 377.688 88.848L374.312 87.152C369.868 84.9299 364.968 83.7731 360 83.7731C355.032 83.7731 350.132 84.9299 345.688 87.152L342.312 88.848C337.868 91.0701 332.968 92.2269 328 92.2269C323.032 92.2269 318.132 91.0701 313.688 88.848L310.312 87.152C305.868 84.9299 300.968 83.7731 296 83.7731C291.032 83.7731 286.132 84.9299 281.688 87.152L278.312 88.848C273.868 91.0701 268.968 92.2269 264 92.2269C259.032 92.2269 254.132 91.0701 249.688 88.848L232 80V132.224C227.032 132.223 222.132 131.068 217.688 128.848L200 120V192L217.688 200.848C222.132 203.07 227.032 204.227 232 204.227C236.968 204.227 241.868 203.07 246.312 200.848L249.688 199.152C254.132 196.93 259.032 195.773 264 195.773C268.968 195.773 273.868 196.93 278.312 199.152L281.688 200.848C286.132 203.07 291.032 204.227 296 204.227C300.968 204.227 305.868 203.07 310.312 200.848L313.688 199.152C318.132 196.93 323.032 195.773 328 195.773C332.968 195.773 337.868 196.93 342.312 199.152L345.688 200.848C350.132 203.07 355.032 204.227 360 204.227C364.968 204.227 369.868 203.07 374.312 200.848L392 192V164.224C396.968 164.223 401.868 163.068 406.312 160.848L424 152V120.288ZM372.408 424C368.912 424.003 365.461 423.216 362.312 421.698C359.163 420.18 356.397 417.97 354.223 415.232C352.048 412.495 350.52 409.302 349.752 405.891C348.985 402.481 348.999 398.941 349.792 395.536C360.344 351.13 360.344 304.87 349.792 260.464C348.999 257.059 348.985 253.519 349.752 250.109C350.52 246.698 352.048 243.505 354.223 240.768C356.397 238.03 359.163 235.82 362.312 234.302C365.461 232.784 368.912 231.997 372.408 232C377.524 232.004 382.498 233.687 386.565 236.791C390.632 239.896 393.567 244.25 394.92 249.184C409.298 300.734 409.298 355.234 394.92 406.784C393.573 411.724 390.64 416.085 386.573 419.196C382.505 422.306 377.529 423.994 372.408 424Z" fill="#BACED3"/>
<path d="M338.96 454.8C338.888 455.079 338.781 455.348 338.64 455.6C326.83 460.526 314.591 464.355 302.08 467.04C298.581 464.333 295.935 460.675 294.46 456.504C292.984 452.333 292.741 447.825 293.76 443.52C304.32 399.126 304.32 352.874 293.76 308.48C292.373 302.524 293.383 296.262 296.572 291.045C299.762 285.827 304.875 282.073 310.808 280.592C316.741 279.112 323.018 280.023 328.285 283.13C333.552 286.237 337.386 291.291 338.96 297.2C353.28 348.757 353.28 403.243 338.96 454.8Z" fill="#BACED3"/>
<path d="M334.696 456C331.2 456.003 327.749 455.216 324.6 453.698C321.451 452.18 318.685 449.97 316.511 447.232C314.336 444.495 312.808 441.302 312.04 437.891C311.273 434.481 311.287 430.941 312.08 427.536C322.64 383.131 322.64 336.869 312.08 292.464C311.287 289.059 311.273 285.519 312.04 282.109C312.808 278.698 314.336 275.505 316.511 272.768C318.685 270.03 321.451 267.82 324.6 266.302C327.749 264.784 331.2 263.997 334.696 264C339.813 264.003 344.788 265.686 348.857 268.791C352.925 271.895 355.862 276.249 357.216 281.184C371.586 332.735 371.586 387.233 357.216 438.784C355.868 443.725 352.933 448.086 348.865 451.197C344.796 454.307 339.818 455.995 334.696 456Z" fill="#F98658"/>
<path d="M49.032 194.16C59.8933 206.323 70.2255 218.948 80 232C87.4667 217.004 96.6336 202.917 107.32 190.016C114.452 198.485 121.348 207.149 128 216C148.447 174.224 182.224 140.447 224 120L190.264 86.264C186.163 82.1637 181.026 79.2547 175.4 77.848L152 72L150.832 67.336C101.708 94.7764 65.1962 140.263 49.032 194.16Z" fill="#BACED3"/>
<path d="M104 216C77.5942 178.856 45.1438 146.406 8 120C45.1438 93.5942 77.5942 61.1438 104 24L113.736 33.736C117.836 37.8366 120.745 42.9743 122.152 48.6L128 72L151.4 77.848C157.026 79.2547 162.163 82.1637 166.264 86.264L200 120C158.224 140.447 124.447 174.224 104 216Z" fill="#FAAF42"/>
<path d="M152 200C125.594 162.856 93.1438 130.406 56 104C93.1438 77.5942 125.594 45.1438 152 8L161.736 17.736C165.836 21.8366 168.745 26.9743 170.152 32.6L176 56L199.4 61.848C205.026 63.2547 210.163 66.1637 214.264 70.264L248 104C206.224 124.447 172.447 158.224 152 200Z" fill="#F8C460"/>
<path d="M274.904 310.4C272.855 303.152 271.876 295.643 272 288.112V288C271.991 277.137 268.298 266.598 261.523 258.106C254.749 249.613 245.294 243.671 234.704 241.248C228.517 239.985 222.536 237.863 216.936 234.944C204.443 227.876 190.354 224.109 176 224C131.648 224 93.872 261.32 78.936 304.8C76.7131 311.977 73.2294 318.701 68.648 324.656C64.0934 330.3 60.6831 336.778 58.608 343.728C70.9083 371.322 88.8457 396.036 111.267 416.284C133.689 436.532 160.099 451.864 188.8 461.296C237.952 448.8 280 394.4 280 344C279.926 332.613 278.21 321.297 274.904 310.4Z" fill="#BACED3"/>
<path d="M290.904 302.4C288.855 295.152 287.876 287.643 288 280.112V280C287.991 269.137 284.298 258.598 277.523 250.106C270.749 241.614 261.294 235.671 250.704 233.248C244.517 231.985 238.536 229.863 232.936 226.944C220.443 219.876 206.354 216.109 192 216C147.648 216 109.872 253.32 94.936 296.8C92.7131 303.977 89.2294 310.701 84.648 316.656C79.7581 322.633 76.1601 329.559 74.0811 336.996C72.0021 344.433 71.4872 352.221 72.5689 359.867C73.6505 367.513 76.3054 374.852 80.3658 381.421C84.4262 387.99 89.804 393.646 96.16 398.032C102.07 401.941 107.185 406.936 111.232 412.752C128.128 438.12 153.336 456 184 456C241.44 456 296 393.44 296 336C295.926 324.613 294.21 313.297 290.904 302.4Z" fill="#E6E6E6"/>
<path d="M208 440C177.336 440 152.128 422.12 135.2 396.752C131.153 390.936 126.038 385.941 120.128 382.032C113.767 377.646 108.385 371.989 104.322 365.417C100.258 358.846 97.6015 351.503 96.5197 343.853C95.4379 336.202 95.9543 328.411 98.0363 320.97C100.118 313.53 103.721 306.602 108.616 300.624C113.205 294.681 116.7 287.968 118.936 280.8C126.302 259.184 139.059 239.802 156 224.488C127.002 239.717 105.093 265.661 94.936 296.8C92.7131 303.977 89.2294 310.701 84.648 316.656C79.7581 322.633 76.1601 329.559 74.0811 336.996C72.0021 344.433 71.4872 352.221 72.5689 359.867C73.6505 367.513 76.3054 374.852 80.3658 381.421C84.4262 387.99 89.804 393.646 96.16 398.032C102.07 401.941 107.185 406.936 111.232 412.752C128.128 438.12 153.336 456 184 456C207.939 455.129 230.81 445.866 248.608 429.832C236.043 436.322 222.141 439.803 208 440Z" fill="#CECECE"/>
<path d="M192 376C214.091 376 232 358.091 232 336C232 313.909 214.091 296 192 296C169.909 296 152 313.909 152 336C152 358.091 169.909 376 192 376Z" fill="#F8C460"/>
<path d="M216 352C205.391 352 195.217 347.786 187.716 340.284C180.214 332.783 176 322.609 176 312C176.042 307.39 176.89 302.822 178.504 298.504C172.164 300.766 166.499 304.594 162.037 309.634C157.575 314.673 154.46 320.76 152.982 327.327C151.504 333.894 151.711 340.728 153.584 347.193C155.458 353.658 158.936 359.545 163.696 364.304C168.455 369.064 174.342 372.542 180.807 374.416C187.272 376.289 194.106 376.496 200.673 375.018C207.24 373.54 213.327 370.425 218.366 365.963C223.406 361.501 227.234 355.836 229.496 349.496C225.178 351.11 220.61 351.958 216 352Z" fill="#FAAF42"/>
<path d="M393.688 80.848L390.312 79.152C385.868 76.9299 380.968 75.7731 376 75.7731C371.032 75.7731 366.132 76.9299 361.688 79.152L358.312 80.848C353.868 83.0701 348.968 84.2269 344 84.2269C339.032 84.2269 334.132 83.0701 329.688 80.848L326.312 79.152C321.868 76.9299 316.968 75.7731 312 75.7731C307.032 75.7731 302.132 76.9299 297.688 79.152L294.312 80.848C289.868 83.0701 284.968 84.2269 280 84.2269C275.032 84.2269 270.132 83.0701 265.688 80.848L248 72V144L265.688 152.848C270.132 155.07 275.032 156.227 280 156.227C284.968 156.227 289.868 155.07 294.312 152.848L297.688 151.152C302.132 148.93 307.032 147.773 312 147.773C316.968 147.773 321.868 148.93 326.312 151.152L329.688 152.848C334.132 155.07 339.032 156.227 344 156.227C348.968 156.227 353.868 155.07 358.312 152.848L361.688 151.152C366.132 148.93 371.032 147.773 376 147.773C380.968 147.773 385.868 148.93 390.312 151.152L393.688 152.848C398.132 155.07 403.032 156.227 408 156.227C412.968 156.227 417.868 155.07 422.312 152.848L440 144V72L422.312 80.848C417.868 83.0701 412.968 84.2269 408 84.2269C403.032 84.2269 398.132 83.0701 393.688 80.848Z" fill="#F98658"/>
<path d="M393.688 104.848L390.312 103.152C385.868 100.93 380.968 99.7731 376 99.7731C371.032 99.7731 366.132 100.93 361.688 103.152L358.312 104.848C353.868 107.07 348.968 108.227 344 108.227C339.032 108.227 334.132 107.07 329.688 104.848L326.312 103.152C321.868 100.93 316.968 99.7731 312 99.7731C307.032 99.7731 302.132 100.93 297.688 103.152L294.312 104.848C289.868 107.07 284.968 108.227 280 108.227C275.032 108.227 270.132 107.07 265.688 104.848L248 96V120L265.688 128.848C270.132 131.07 275.032 132.227 280 132.227C284.968 132.227 289.868 131.07 294.312 128.848L297.688 127.152C302.132 124.93 307.032 123.773 312 123.773C316.968 123.773 321.868 124.93 326.312 127.152L329.688 128.848C334.132 131.07 339.032 132.227 344 132.227C348.968 132.227 353.868 131.07 358.312 128.848L361.688 127.152C366.132 124.93 371.032 123.773 376 123.773C380.968 123.773 385.868 124.93 390.312 127.152L393.688 128.848C398.132 131.07 403.032 132.227 408 132.227C412.968 132.227 417.868 131.07 422.312 128.848L440 120V96L422.312 104.848C417.868 107.07 412.968 108.227 408 108.227C403.032 108.227 398.132 107.07 393.688 104.848Z" fill="#E6E6E6"/>
<path d="M361.688 120.848L358.312 119.152C353.868 116.93 348.968 115.773 344 115.773C339.032 115.773 334.132 116.93 329.688 119.152L326.312 120.848C321.868 123.07 316.968 124.227 312 124.227C307.032 124.227 302.132 123.07 297.688 120.848L294.312 119.152C289.868 116.93 284.968 115.773 280 115.773C275.032 115.773 270.132 116.93 265.688 119.152L262.312 120.848C257.868 123.07 252.968 124.227 248 124.227C243.032 124.227 238.132 123.07 233.688 120.848L216 112V184L233.688 192.848C238.132 195.07 243.032 196.227 248 196.227C252.968 196.227 257.868 195.07 262.312 192.848L265.688 191.152C270.132 188.93 275.032 187.773 280 187.773C284.968 187.773 289.868 188.93 294.312 191.152L297.688 192.848C302.132 195.07 307.032 196.227 312 196.227C316.968 196.227 321.868 195.07 326.312 192.848L329.688 191.152C334.132 188.93 339.032 187.773 344 187.773C348.968 187.773 353.868 188.93 358.312 191.152L361.688 192.848C366.132 195.07 371.032 196.227 376 196.227C380.968 196.227 385.868 195.07 390.312 192.848L408 184V112L390.312 120.848C385.868 123.07 380.968 124.227 376 124.227C371.032 124.227 366.132 123.07 361.688 120.848Z" fill="#F98658"/>
<path d="M361.688 144.848L358.312 143.152C353.868 140.93 348.968 139.773 344 139.773C339.032 139.773 334.132 140.93 329.688 143.152L326.312 144.848C321.868 147.07 316.968 148.227 312 148.227C307.032 148.227 302.132 147.07 297.688 144.848L294.312 143.152C289.868 140.93 284.968 139.773 280 139.773C275.032 139.773 270.132 140.93 265.688 143.152L262.312 144.848C257.868 147.07 252.968 148.227 248 148.227C243.032 148.227 238.132 147.07 233.688 144.848L216 136V160L233.688 168.848C238.132 171.07 243.032 172.227 248 172.227C252.968 172.227 257.868 171.07 262.312 168.848L265.688 167.152C270.132 164.93 275.032 163.773 280 163.773C284.968 163.773 289.868 164.93 294.312 167.152L297.688 168.848C302.132 171.07 307.032 172.227 312 172.227C316.968 172.227 321.868 171.07 326.312 168.848L329.688 167.152C334.132 164.93 339.032 163.773 344 163.773C348.968 163.773 353.868 164.93 358.312 167.152L361.688 168.848C366.132 171.07 371.032 172.227 376 172.227C380.968 172.227 385.868 171.07 390.312 168.848L408 160V136L390.312 144.848C385.868 147.07 380.968 148.227 376 148.227C371.032 148.227 366.132 147.07 361.688 144.848Z" fill="#E6E6E6"/>
<path d="M120 80C117.878 80 115.843 80.8429 114.343 82.3431C112.843 83.8434 112 85.8783 112 88V120C112 122.122 112.843 124.157 114.343 125.657C115.843 127.157 117.878 128 120 128C122.122 128 124.157 127.157 125.657 125.657C127.157 124.157 128 122.122 128 120V88C128 85.8783 127.157 83.8434 125.657 82.3431C124.157 80.8429 122.122 80 120 80ZM152 80C149.878 80 147.843 80.8429 146.343 82.3431C144.843 83.8434 144 85.8783 144 88V120C144 122.122 144.843 124.157 146.343 125.657C147.843 127.157 149.878 128 152 128C154.122 128 156.157 127.157 157.657 125.657C159.157 124.157 160 122.122 160 120V88C160 85.8783 159.157 83.8434 157.657 82.3431C156.157 80.8429 154.122 80 152 80ZM192 88C192 85.8783 191.157 83.8434 189.657 82.3431C188.157 80.8429 186.122 80 184 80C181.878 80 179.843 80.8429 178.343 82.3431C176.843 83.8434 176 85.8783 176 88V120C176 122.122 176.843 124.157 178.343 125.657C179.843 127.157 181.878 128 184 128C186.122 128 188.157 127.157 189.657 125.657C191.157 124.157 192 122.122 192 120V88Z" fill="#FAAF42"/>
<path d="M341.68 317.68L319.28 340.08C318.8 333.2 318.08 326.4 317.12 319.52L330.32 306.32C331.066 305.574 331.951 304.982 332.926 304.579C333.901 304.175 334.945 303.967 336 303.967C337.055 303.967 338.099 304.175 339.074 304.579C340.049 304.982 340.934 305.574 341.68 306.32C342.426 307.066 343.018 307.951 343.421 308.926C343.825 309.901 344.033 310.945 344.033 312C344.033 313.055 343.825 314.099 343.421 315.074C343.018 316.049 342.426 316.934 341.68 317.68ZM341.68 357.68L319.28 380.08C319.84 372.32 320.08 364.48 319.92 356.72L330.32 346.32C331.826 344.814 333.87 343.967 336 343.967C338.13 343.967 340.174 344.814 341.68 346.32C343.186 347.826 344.033 349.87 344.033 352C344.033 354.13 343.186 356.174 341.68 357.68ZM341.68 397.68L312.16 427.2C314.32 417.92 316 408.64 317.28 399.36L330.32 386.32C331.826 384.814 333.87 383.967 336 383.967C338.13 383.967 340.174 384.814 341.68 386.32C343.186 387.826 344.033 389.87 344.033 392C344.033 394.13 343.186 396.174 341.68 397.68Z" fill="#ED744A"/>
<path d="M390.696 408C387.2 408.003 383.749 407.216 380.6 405.698C377.451 404.18 374.685 401.97 372.511 399.232C370.336 396.495 368.808 393.302 368.04 389.891C367.273 386.481 367.287 382.941 368.08 379.536C378.64 335.131 378.64 288.869 368.08 244.464C367.287 241.059 367.273 237.519 368.04 234.109C368.808 230.698 370.336 227.505 372.511 224.768C374.685 222.03 377.451 219.82 380.6 218.302C383.749 216.784 387.2 215.997 390.696 216C395.813 216.003 400.788 217.686 404.857 220.791C408.925 223.895 411.862 228.249 413.216 233.184C427.586 284.735 427.586 339.233 413.216 390.784C411.868 395.725 408.933 400.086 404.865 403.197C400.796 406.307 395.818 407.995 390.696 408Z" fill="#F98658"/>
<path d="M397.68 269.68L375.28 292.08C374.8 285.2 374.08 278.4 373.12 271.52L386.32 258.32C387.066 257.574 387.951 256.982 388.926 256.579C389.901 256.175 390.945 255.967 392 255.967C393.055 255.967 394.099 256.175 395.074 256.579C396.049 256.982 396.934 257.574 397.68 258.32C398.426 259.066 399.018 259.951 399.421 260.926C399.825 261.901 400.033 262.945 400.033 264C400.033 265.055 399.825 266.099 399.421 267.074C399.018 268.049 398.426 268.934 397.68 269.68ZM397.68 309.68L375.28 332.08C375.84 324.32 376.08 316.48 375.92 308.72L386.32 298.32C387.066 297.574 387.951 296.982 388.926 296.579C389.901 296.175 390.945 295.967 392 295.967C393.055 295.967 394.099 296.175 395.074 296.579C396.049 296.982 396.934 297.574 397.68 298.32C398.426 299.066 399.018 299.951 399.421 300.926C399.825 301.901 400.033 302.945 400.033 304C400.033 305.055 399.825 306.099 399.421 307.074C399.018 308.049 398.426 308.934 397.68 309.68ZM397.68 349.68L368.16 379.2C370.32 369.92 372 360.64 373.28 351.36L386.32 338.32C387.826 336.814 389.87 335.967 392 335.967C394.13 335.967 396.174 336.814 397.68 338.32C399.186 339.826 400.033 341.87 400.033 344C400.033 346.13 399.186 348.174 397.68 349.68Z" fill="#ED744A"/>
</svg>
