<svg width="512" height="512" viewBox="0 0 512 512" fill="none" xmlns="http://www.w3.org/2000/svg">
<g clip-path="url(#clip0_2_434)">
<path d="M376.152 371.73C374.2 371.731 372.302 371.084 370.755 369.891C369.209 368.698 368.102 367.027 367.608 365.137C367.114 363.248 367.259 361.249 368.023 359.451C368.786 357.654 370.124 356.16 371.827 355.204C381.352 350.036 391.565 346.253 402.158 343.967C405.548 343.181 409.22 342.413 412.972 341.601C446.517 334.451 488.28 325.544 493.718 285.705C494.115 282.765 494.318 279.799 494.345 276.833V238.177C494.345 235.836 495.275 233.591 496.93 231.935C498.586 230.28 500.831 229.35 503.172 229.35C505.514 229.35 507.759 230.28 509.414 231.935C511.07 233.591 512 235.836 512 238.177V276.833C511.973 280.567 511.717 284.292 511.223 287.991C504.09 340.233 451.478 351.444 416.653 358.868C412.963 359.654 409.432 360.413 406.113 361.181C397.162 363.089 388.528 366.261 380.469 370.6C379.151 371.34 377.664 371.729 376.152 371.73Z" fill="#95A5A5"/>
<path d="M512 236.138V276.833C512 230.577 462.654 224.839 423.018 238.345H422.665C406.069 225.103 406.334 227.222 406.069 216.276L423.636 197.385C423.76 197.398 423.885 197.367 423.989 197.297C463.448 184.232 512 190.323 512 236.138Z" fill="#D1D4D1"/>
<path d="M423.636 200.739C423.901 211.686 423.724 224.486 422.665 238.345C420.514 282.328 407.569 325.106 384.971 362.902C354.869 409.512 302.433 445.793 211.862 445.793C16.9489 445.793 -1.67725 277.451 0.088267 200.739H423.636Z" fill="#BDC3C7"/>
<path d="M423.724 198.621C423.735 198.947 423.705 199.273 423.636 199.592C423.724 199.768 423.636 199.857 423.636 200.033C423.724 200.26 423.724 200.512 423.636 200.739C421.87 272.861 327.68 331.034 211.862 331.034C96.0441 331.034 1.85374 272.861 0.0882224 200.739C-0.000412365 200.512 -0.000412365 200.26 0.0882224 200.033C0.0882224 199.857 -5.34633e-05 199.768 0.0882224 199.592C0.0188559 199.273 -0.0107946 198.947 -5.33835e-05 198.621C-5.33835e-05 125.528 94.8965 66.2069 211.862 66.2069C328.828 66.2069 423.724 125.528 423.724 198.621Z" fill="#ECF0F1"/>
<path d="M211.862 295.724C309.369 295.724 388.414 252.249 388.414 198.621C388.414 144.992 309.369 101.517 211.862 101.517C114.355 101.517 35.3103 144.992 35.3103 198.621C35.3103 252.249 114.355 295.724 211.862 295.724Z" fill="#A56A43"/>
<path d="M211.862 304.552C107.917 304.552 26.4828 258.022 26.4828 198.621C26.4828 139.22 107.917 92.6897 211.862 92.6897C315.807 92.6897 397.241 139.22 397.241 198.621C397.241 258.022 315.807 304.552 211.862 304.552ZM211.862 110.345C120.938 110.345 44.138 150.775 44.138 198.621C44.138 246.466 120.938 286.897 211.862 286.897C302.786 286.897 379.586 246.466 379.586 198.621C379.586 150.775 302.786 110.345 211.862 110.345Z" fill="#BDC3C7"/>
<path d="M211.862 419.31C154.748 419.31 110.274 403.421 79.6689 372.065C78.03 370.389 77.1242 368.13 77.1507 365.786C77.1772 363.442 78.1338 361.204 79.8101 359.565C81.4865 357.926 83.7451 357.021 86.0893 357.047C88.4335 357.074 90.6711 358.03 92.31 359.707C119.49 387.531 159.717 401.655 211.862 401.655C214.203 401.655 216.449 402.585 218.104 404.241C219.76 405.896 220.69 408.142 220.69 410.483C220.69 412.824 219.76 415.069 218.104 416.725C216.449 418.38 214.203 419.31 211.862 419.31Z" fill="white"/>
<path d="M308.966 198.621C306.624 198.621 304.379 199.551 302.723 201.206C301.068 202.862 300.138 205.107 300.138 207.448C300.138 229.888 264.58 249.062 220.69 251.357V233.507C248.602 231.451 267.414 220.178 272.216 211.862C273.319 209.923 273.617 207.629 273.048 205.472C272.478 203.315 271.087 201.467 269.171 200.324C267.193 199.142 264.841 198.751 262.587 199.229C260.333 199.707 258.343 201.019 257.015 202.902C246.68 211.131 233.9 215.688 220.69 215.852V196.202C255.691 184.894 273.655 170.902 273.655 154.483C273.655 139.388 258.472 128 238.345 128C229.136 127.837 220.032 129.98 211.862 134.232C203.692 129.98 194.588 127.837 185.379 128C165.252 128 150.069 139.388 150.069 154.483C150.069 170.902 168.033 184.894 203.034 196.202V215.852C189.875 215.661 177.142 211.158 166.788 203.035C166.228 201.994 165.465 201.076 164.544 200.336C163.623 199.596 162.563 199.048 161.426 198.726C160.289 198.403 159.099 198.312 157.926 198.458C156.754 198.603 155.622 198.983 154.599 199.574C153.576 200.165 152.682 200.956 151.97 201.899C151.258 202.842 150.742 203.918 150.454 205.064C150.166 206.21 150.111 207.402 150.292 208.57C150.473 209.738 150.886 210.857 151.508 211.862C156.31 220.178 175.122 231.451 203.034 233.507V251.357C159.144 249.062 123.586 229.888 123.586 207.448C123.586 205.107 122.656 202.862 121.001 201.206C119.345 199.551 117.1 198.621 114.759 198.621C112.417 198.621 110.172 199.551 108.517 201.206C106.861 202.862 105.931 205.107 105.931 207.448C105.931 242.097 152.461 269.241 211.862 269.241C271.263 269.241 317.793 242.097 317.793 207.448C317.793 205.107 316.863 202.862 315.208 201.206C313.552 199.551 311.307 198.621 308.966 198.621Z" fill="#FDD7AD"/>
</g>
<defs>
<clipPath id="clip0_2_434">
<rect width="512" height="512" fill="white"/>
</clipPath>
</defs>
</svg>
