<svg width="512" height="512" viewBox="0 0 512 512" fill="none" xmlns="http://www.w3.org/2000/svg">
<g clip-path="url(#clip0_2_374)">
<path d="M256 512C397.385 512 512 397.385 512 256C512 114.615 397.385 0 256 0C114.615 0 0 114.615 0 256C0 397.385 114.615 512 256 512Z" fill="#C95757"/>
<path d="M437.019 74.981C413.167 51.129 385.774 32.982 356.538 20.511C396.337 113.817 378.19 225.946 302.068 302.068C225.946 378.19 113.816 396.337 20.511 356.538C32.982 385.775 51.129 413.167 74.981 437.019C174.955 536.993 337.046 536.993 437.02 437.019C536.994 337.045 536.994 174.955 437.019 74.981Z" fill="#A53D3D"/>
<path d="M256 503.15C392.497 503.15 503.15 392.497 503.15 256C503.15 119.503 392.497 8.84998 256 8.84998C119.503 8.84998 8.85001 119.503 8.85001 256C8.85001 392.497 119.503 503.15 256 503.15Z" fill="#FFE4CC"/>
<path d="M430.759 81.235C409.961 60.437 386.374 44.132 361.206 32.297C394.706 123.121 375.006 229.125 302.063 302.068C229.12 375.011 123.116 394.711 32.292 361.211C44.127 386.379 60.432 409.966 81.231 430.764C177.751 527.284 334.24 527.284 430.76 430.764C527.28 334.244 527.279 177.755 430.759 81.235Z" fill="#FFD8C7"/>
<path d="M256 443.32C359.454 443.32 443.32 359.454 443.32 256C443.32 152.546 359.454 68.68 256 68.68C152.546 68.68 68.68 152.546 68.68 256C68.68 359.454 152.546 443.32 256 443.32Z" fill="#FFF0E3"/>
<path d="M388.453 123.547C384.746 119.845 380.887 116.298 376.887 112.915C379.05 181.115 354.119 250.011 302.062 302.068C250.007 354.123 181.116 379.054 112.919 376.893C116.3 380.891 119.846 384.748 123.546 388.453C196.698 461.605 315.301 461.605 388.452 388.453C461.603 315.301 461.605 196.699 388.453 123.547Z" fill="#FFE8DE"/>
<path d="M200.118 226.72L175.751 229.832C188.211 192.6 206.061 157.395 228.732 125.341C233.832 123.101 245.855 118.658 261.109 120.926C272.392 122.603 280.611 127.235 285.068 130.215" fill="#77848A"/>
<path d="M437.191 87.938L404.3 96.474C394.908 98.9134 385.638 101.801 376.522 105.128C380.91 175.843 356.103 248.028 302.063 302.068C253.995 350.136 191.569 375.078 128.592 376.916C127.935 377.491 127.283 378.071 126.617 378.637L123.684 381.13L102.018 384.886C85.9149 387.681 70.4812 393.48 56.522 401.981C64.0133 412.191 72.2737 421.814 81.231 430.765C99.308 448.842 119.489 463.533 140.986 474.839C144.839 464.739 147.923 454.362 150.209 443.797L155.326 420.131L262.8 378.309C283.279 370.154 304.908 359.335 326.587 344.879C414.414 286.313 455.937 199.477 475.434 142.163C465.408 122.851 452.657 104.591 437.191 87.938Z" fill="#FFC1AD"/>
<path d="M388.453 123.547C384.746 119.845 380.887 116.298 376.887 112.915C376.902 113.388 376.899 113.853 376.907 114.323C378.686 182.062 353.762 250.369 302.062 302.068C253.994 350.136 191.568 375.078 128.591 376.916C127.934 377.491 127.282 378.071 126.616 378.637L123.683 381.13L117.577 382.188C119.518 384.322 121.508 386.411 123.546 388.453C134.877 399.797 147.614 409.642 161.448 417.747L262.8 378.309C283.279 370.154 304.908 359.335 326.587 344.879C379.391 309.668 415.452 264.238 440.057 221.149C433.319 185.392 416.124 151.217 388.453 123.547Z" fill="#FFCFC2"/>
<path d="M458.765 82.764L463.57 69.631C465.083 65.495 461.331 61.361 457.068 62.467L390.14 79.838C315.734 99.1491 251.427 145.972 210.201 210.853L187.251 246.972C185.472 249.771 183.819 252.648 182.297 255.595L154.924 308.575C144.382 328.979 129.957 347.127 112.458 362.001L109.525 364.494L87.859 368.25C65.8789 372.06 45.2446 381.448 27.931 395.515L18.25 403.381C13.462 407.271 14.829 414.91 20.668 416.899L42.623 424.378C52.4031 427.709 61.2549 433.31 68.4534 440.722C75.6518 448.134 80.9922 457.145 84.037 467.018L94.137 499.768C95.768 505.057 102.949 505.798 105.626 500.954L114.157 485.517C124.26 467.236 131.635 447.577 136.049 427.162L141.166 403.496L248.641 361.675C269.12 353.52 290.749 342.701 312.428 328.245C419.744 256.684 457.935 142.901 471.269 92.361C472.782 89.23 469.836 85.8 466.512 86.823L463.496 87.751C460.465 88.681 457.676 85.742 458.765 82.764Z" fill="#A5B9C0"/>
<path d="M201.138 380.157L189.732 409.38C197.421 409.246 205.072 408.259 212.543 406.437C222.643 403.967 232.316 399.998 241.241 394.663C246.456 387.99 249.611 382.021 251.543 377.738C251.543 377.738 253.194 374.078 258.758 357.535" fill="black"/>
<path d="M201.138 380.157L189.732 409.38C197.421 409.246 205.072 408.259 212.543 406.437C222.643 403.967 232.316 399.998 241.241 394.663C246.456 387.99 249.611 382.021 251.543 377.738C251.543 377.738 253.194 374.078 258.758 357.535" stroke="black" stroke-width="15" stroke-miterlimit="10" stroke-linecap="round" stroke-linejoin="round"/>
<path d="M406.94 117.865C411.251 117.865 414.745 114.371 414.745 110.06C414.745 105.749 411.251 102.255 406.94 102.255C402.629 102.255 399.135 105.749 399.135 110.06C399.135 114.371 402.629 117.865 406.94 117.865Z" fill="black"/>
<path d="M402.266 184.99C401.74 184.99 401.206 184.937 400.67 184.825C391.389 182.897 377.765 178.083 365.568 166.1C351.807 152.58 347.197 136.84 345.674 128.66C345.295 126.625 345.74 124.523 346.911 122.816C348.082 121.109 349.883 119.937 351.918 119.558C352.926 119.37 353.96 119.383 354.963 119.595C355.966 119.807 356.917 120.215 357.762 120.795C358.608 121.374 359.33 122.115 359.889 122.974C360.448 123.833 360.832 124.794 361.02 125.802C362.207 132.176 365.798 144.442 376.508 154.964C386.5 164.781 397.925 168.31 403.845 169.54C404.849 169.748 405.801 170.152 406.649 170.729C407.496 171.306 408.221 172.044 408.784 172.901C409.346 173.758 409.734 174.717 409.925 175.724C410.116 176.731 410.108 177.765 409.899 178.769C409.535 180.525 408.577 182.102 407.187 183.235C405.797 184.368 404.059 184.988 402.266 184.99ZM386.483 218.291C385.957 218.291 385.423 218.238 384.887 218.126C372.853 215.626 355.19 209.385 339.378 193.851C321.538 176.324 315.561 155.916 313.587 145.311C313.217 143.28 313.668 141.185 314.839 139.485C316.01 137.785 317.807 136.619 319.837 136.241C321.866 135.863 323.963 136.304 325.668 137.469C327.372 138.633 328.547 140.425 328.933 142.453C330.572 151.253 335.529 168.186 350.318 182.715C364.116 196.271 379.888 201.143 388.062 202.842C389.066 203.05 390.018 203.454 390.866 204.031C391.713 204.608 392.438 205.346 393.001 206.203C393.563 207.06 393.951 208.019 394.142 209.026C394.333 210.033 394.325 211.067 394.116 212.071C393.752 213.827 392.794 215.404 391.404 216.536C390.014 217.669 388.276 218.289 386.483 218.291Z" fill="#B7CACE"/>
<path d="M340.246 281.961C340.246 335.986 296.45 379.782 242.425 379.782C188.4 379.782 144.604 335.986 144.604 281.961C144.604 267.626 147.688 254.01 153.228 241.743C168.567 207.778 202.736 184.14 242.425 184.14C296.45 184.14 340.246 227.936 340.246 281.961Z" fill="#FFC82C"/>
<path d="M242.425 199.308C196.777 199.308 159.772 236.313 159.772 281.961C159.772 327.609 196.777 364.614 242.425 364.614C288.073 364.614 325.078 327.609 325.078 281.961C325.078 236.313 288.073 199.308 242.425 199.308ZM306.459 274.156H262.056L294.344 243.662C300.956 252.605 305.131 263.113 306.459 274.156ZM234.62 345.995C222.334 344.517 210.737 339.522 201.223 331.609L234.62 300.068V345.995ZM206.862 228.132C215.193 222.614 224.699 219.119 234.62 217.927V260.747L206.862 228.132ZM250.23 303.175L277.988 335.791C269.657 341.309 260.151 344.803 250.23 345.996V303.175ZM250.23 217.928C262.516 219.406 274.113 224.401 283.627 232.314L250.23 263.855V217.928ZM194.977 238.253L225.533 274.157H178.391C180.053 260.383 186.043 247.946 194.977 238.253ZM178.391 289.766H222.794L190.506 320.26C183.893 311.317 179.718 300.809 178.391 289.766ZM289.873 325.67L259.317 289.766H306.459C304.797 303.54 298.807 315.976 289.873 325.67Z" fill="#FFE5C2"/>
<path d="M178.992 222.558C173.893 222.558 168.873 222.9 163.952 223.551C151.799 239.852 144.604 260.066 144.604 281.962C144.604 335.987 188.4 379.783 242.425 379.783C258.82 379.783 274.269 375.744 287.842 368.615C290.981 358.072 292.572 347.13 292.565 336.13C292.564 273.406 241.716 222.558 178.992 222.558Z" fill="#F9B52B"/>
<path d="M259.316 289.766H282.695C280.267 284.347 277.417 279.128 274.171 274.156H262.055L269.322 267.293C266.16 263.148 262.719 259.225 259.021 255.551L250.229 263.855V247.683C245.328 243.729 240.106 240.189 234.619 237.1V260.748L206.861 228.133C207.649 227.619 208.447 227.122 209.257 226.643C201.283 224.443 193.092 223.123 184.83 222.706C169.381 237.724 159.77 258.715 159.77 281.962C159.77 327.61 196.775 364.615 242.423 364.615C260.992 364.615 278.13 358.49 291.929 348.153C292.345 344.202 292.562 340.192 292.562 336.13C292.562 331.829 292.315 327.586 291.849 323.409C291.205 324.176 290.549 324.934 289.871 325.67L259.316 289.766ZM194.977 238.253L225.533 274.157H178.391C180.053 260.383 186.043 247.946 194.977 238.253ZM178.391 289.766H222.794L190.506 320.26C183.893 311.317 179.718 300.809 178.391 289.766ZM234.62 345.995C222.334 344.517 210.737 339.522 201.223 331.609L234.62 300.068V345.995ZM250.23 345.995V303.175L277.988 335.791C269.657 341.308 260.151 344.803 250.23 345.995Z" fill="#F4D5B8"/>
<path d="M178.99 433.95C233.014 433.95 276.81 390.154 276.81 336.13C276.81 282.106 233.014 238.31 178.99 238.31C124.966 238.31 81.17 282.106 81.17 336.13C81.17 390.154 124.966 433.95 178.99 433.95Z" fill="#FFC82C"/>
<path d="M178.992 253.477C133.344 253.477 96.339 290.482 96.339 336.13C96.339 381.778 133.344 418.783 178.992 418.783C224.64 418.783 261.645 381.778 261.645 336.13C261.645 290.482 224.64 253.477 178.992 253.477ZM243.026 328.325H198.623L230.911 297.831C237.524 306.774 241.699 317.282 243.026 328.325ZM171.187 400.164C158.901 398.686 147.304 393.691 137.79 385.778L171.187 354.237V400.164ZM143.429 282.301C151.76 276.783 161.266 273.288 171.187 272.096V314.916L143.429 282.301ZM186.797 357.343L214.555 389.959C206.224 395.477 196.718 398.971 186.797 400.164V357.343ZM186.797 272.096C199.083 273.574 210.68 278.569 220.194 286.482L186.797 318.023V272.096ZM131.544 292.421L162.1 328.325H114.958C116.62 314.551 122.61 302.115 131.544 292.421ZM114.958 343.935H159.361L127.073 374.429C120.46 365.486 116.285 354.978 114.958 343.935ZM226.44 379.838L195.884 343.934H243.026C241.364 357.708 235.374 370.145 226.44 379.838Z" fill="#FFE5C2"/>
</g>
<defs>
<clipPath id="clip0_2_374">
<rect width="512" height="512" fill="white"/>
</clipPath>
</defs>
</svg>
