<svg width="512" height="512" viewBox="0 0 512 512" fill="none" xmlns="http://www.w3.org/2000/svg">
<path d="M46.374 202.386C-45.981 88.359 112.717 -49.987 213.082 56.9L46.374 202.386Z" fill="#FDB62F"/>
<path d="M213.117 56.913L46.405 202.369C10.041 157.488 12.559 108.756 35.222 72.836C24.714 114.866 79.022 149.865 115.208 118.236L199.786 44.472C204.481 48.3407 208.934 52.4956 213.117 56.913Z" fill="#ED9C02"/>
<path d="M321.394 180.6C250.103 166.514 148.182 200.825 80.844 187.191C82.325 180.891 83.954 174.601 85.583 168.231L85.657 168.158V168.084L151.498 110.684H300.805C308.878 134.159 315.765 157.562 321.394 180.6Z" fill="#E5E5E5"/>
<path d="M321.394 180.6C250.073 166.528 148.165 200.818 80.844 187.191C82.325 180.891 83.954 174.601 85.583 168.231L85.657 168.158V168.084L99.803 155.784C99.803 155.858 99.803 155.858 99.729 155.932C99.1911 158.084 99.1295 160.327 99.5485 162.505C99.9674 164.682 100.857 166.743 102.154 168.541C103.452 170.34 105.127 171.833 107.062 172.917C108.996 174.001 111.145 174.65 113.356 174.818C135.797 176.744 160.977 174.892 187.047 172.078C229.469 167.523 277.298 159.784 316.947 163.116C318.492 168.928 319.974 174.756 321.394 180.6Z" fill="#D6D6D6"/>
<path d="M223.967 306.906C222.878 306.908 221.802 306.668 220.816 306.204C219.83 305.74 218.96 305.063 218.267 304.223C209.24 293.269 196.251 287.168 178.56 285.574C176.604 285.397 174.798 284.45 173.539 282.942C172.281 281.434 171.672 279.487 171.848 277.531C173.989 262.125 208.529 277.682 214.748 281.708C215.334 275.565 216.194 243.58 230.268 248.358C231.171 248.721 231.993 249.258 232.687 249.939C233.382 250.62 233.936 251.432 234.316 252.327C234.697 253.222 234.898 254.184 234.907 255.156C234.915 256.129 234.732 257.094 234.368 257.996C229.372 270.548 228.238 284.306 231.11 297.507C231.406 298.608 231.446 299.762 231.226 300.88C231.007 301.998 230.535 303.052 229.845 303.959C229.155 304.867 228.267 305.604 227.248 306.115C226.229 306.626 225.107 306.896 223.967 306.906Z" fill="#8C421C"/>
<path d="M192.75 74.614L66.7 184.668C34.6 148.9 41.037 90.8 79.51 62.764C114.054 36.454 164.2 41.585 192.75 74.614Z" fill="#FFDE76"/>
<path d="M143.055 47.063C141.85 63.951 138.834 106.33 137.723 122.679C137.608 122.79 137.484 122.89 137.352 122.979C136.537 123.646 135.575 124.535 134.538 125.498C134.464 125.572 134.39 125.645 134.316 125.645C130.185 129.337 123.578 135.026 120.762 137.421L46.262 132.607H46.114C45.8884 127.053 46.2609 121.491 47.225 116.017C59.671 116.785 89.398 118.798 108.992 120.017C94.476 104.017 74.183 81.653 67.221 74.025C70.8981 69.8381 75.0186 66.0623 79.51 62.764L122.022 109.644L126.465 46.026C132.016 45.8128 137.574 46.1602 143.055 47.063Z" fill="#FDB62F"/>
<path d="M192.75 74.614L66.7 184.668C38.9 153.602 47.444 115.975 47.444 115.125C59.824 130.605 92.192 138.356 115.21 118.235L179.421 62.245C184.315 65.8535 188.786 70.0028 192.75 74.614Z" fill="#FFD757"/>
<path d="M139.5 97.054L137.723 122.679C137.608 122.79 137.484 122.89 137.352 122.979C136.908 123.424 135.871 124.312 134.538 125.498C134.464 125.572 134.39 125.645 134.316 125.645C130.185 129.337 123.578 135.026 120.762 137.421L46.262 132.607H46.114C45.8884 127.053 46.2609 121.491 47.225 116.017C47.817 116.092 47.216 115.97 48.253 116.044C65.287 131.744 94.402 136.384 115.213 118.239L139.5 97.054Z" fill="#ED9C02"/>
<path d="M341.761 301.314L281.549 492.984H118.837C30.704 492.54 63.437 273.984 80.844 187.184C150.313 200.737 248.814 166.521 321.394 180.593C331.407 220.223 338.217 260.593 341.761 301.314Z" fill="#FDB62F"/>
<path d="M384.346 52.1C384.186 53.8658 383.643 55.5754 382.753 57.1092C381.864 58.643 380.65 59.964 379.197 60.9798C377.744 61.9956 376.086 62.6817 374.34 62.99C372.594 63.2984 370.802 63.2216 369.089 62.765C360.903 60.557 305.189 45.593 298.509 43.731C297.616 43.4756 296.697 43.3262 295.769 43.286C286.811 42.767 283.669 52.695 279.846 58.914L279.546 59.358C262.781 88.732 226.315 152.458 209.262 182.225C199.209 183.419 189.187 184.629 179.194 185.854C204.956 140.782 230.705 95.7031 256.442 50.617H256.516C258.951 46.2917 261.395 41.9717 263.848 37.657H263.923L264.071 37.357C267.777 30.8851 273.378 25.7045 280.118 22.5131C286.859 19.3218 294.416 18.273 301.771 19.508C311.319 21.697 364.248 36.274 374.795 38.986C380.643 40.619 385.012 46.1 384.346 52.1Z" fill="#FD7B2F"/>
<path d="M217.116 168.6C214.154 173.636 211.561 178.228 209.265 182.227C199.193 183.412 189.195 184.597 179.197 185.856C181.853 181.287 184.47 176.695 187.047 172.081C196.971 171.041 207.044 169.782 217.116 168.6Z" fill="#FD6811"/>
<path d="M316.061 23.215L309.989 46.692C309.989 46.767 309.989 46.767 309.915 46.841L295.769 43.285H295.621C295.547 43.211 295.621 43.063 295.621 42.985L301.768 19.508C305.9 20.278 311.937 22.2 316.061 23.215ZM263.848 37.657H263.923L285.923 45.957C286.414 46.1591 286.885 46.4068 287.33 46.697L279.85 58.918L279.55 59.362L257.55 51.141C257.184 51.0133 256.835 50.8392 256.513 50.623H256.439L263.848 37.657Z" fill="#FDCA6A"/>
<path d="M386.2 377.227C380.593 304.064 295.394 258.952 231.857 294.945C231.653 295.058 231.456 295.182 231.265 295.316C111.092 366.564 206.471 541.706 331.321 480.394L386.2 377.227Z" fill="#FD9133"/>
<path d="M339.983 283.465C240.566 226.951 125.668 329.2 171.647 434.977C178.995 451.877 166.893 470.766 148.461 470.766C73.66 470.4 83.14 296.574 104.914 190C96.8331 189.646 88.7887 188.705 80.844 187.186C63.556 273.57 30.744 492.579 118.837 492.986H281.549L341.761 301.316C341.304 295.353 340.711 289.401 339.983 283.465Z" fill="#FDAB11"/>
<path d="M386.2 377.227L331.318 480.394C213.559 542.172 107.308 369.56 231.262 295.315C231.453 295.182 231.65 295.058 231.854 294.945C295.805 258.358 381.207 305.607 386.2 377.227Z" fill="#FD9133"/>
<path d="M263.478 322.644C261.518 322.615 259.64 321.848 258.22 320.496C256.862 319.083 256.103 317.198 256.103 315.238C256.103 313.278 256.862 311.393 258.22 309.98C265.22 303.397 275.455 313.473 268.736 320.496C267.316 321.847 265.438 322.614 263.478 322.644ZM293.1 322.644C291.139 322.615 289.262 321.848 287.842 320.496C281.142 313.479 291.289 303.408 298.358 309.98C299.716 311.394 300.474 313.278 300.474 315.238C300.474 317.198 299.716 319.082 298.358 320.496C296.938 321.847 295.06 322.614 293.1 322.644ZM278.29 344.862C276.33 344.833 274.452 344.066 273.032 342.714C266.295 335.682 276.595 325.622 283.549 332.199C284.907 333.612 285.665 335.497 285.665 337.457C285.665 339.417 284.907 341.301 283.549 342.714C282.128 344.066 280.251 344.833 278.29 344.862Z" fill="#FDB62F"/>
<path d="M223.981 299.511C188.567 268.311 198.492 239.152 229.633 210.943C258.177 245.728 266.578 277.029 223.981 299.511Z" fill="#77A226"/>
<path d="M245.407 282.948C248.282 279.438 250.468 275.418 251.851 271.097C224.797 277.861 203.351 249.84 217.113 226.752C220.17 221.698 223.745 216.976 227.781 212.663C201.581 237.156 191.722 262.347 213.742 288.999L213.709 289.02C216.877 292.773 220.317 296.288 224 299.537C236.017 293.192 240.081 288.27 245.4 282.947L245.407 282.948Z" fill="#658920"/>
<path d="M382.494 357.305L348.663 402.94C281.787 490.24 149.938 391.026 218.079 304.277C115.03 383.2 218.86 539.632 331.318 480.394L386.2 377.227C385.696 370.471 384.453 363.79 382.494 357.305Z" fill="#FD8115"/>
<path d="M448.324 293.476C562.884 385.169 437.363 554.193 316.5 471.182L448.324 293.476Z" fill="#FDB62F"/>
<path d="M466.776 311.165C456.261 325.311 399.43 401.958 387.676 417.812C367.1 445.1 386.14 486.671 421.747 486.1C390.937 498.394 353.463 496.616 316.506 471.214C325.953 458.477 443.306 300.214 448.335 293.467C455.024 298.774 461.198 304.7 466.776 311.165Z" fill="#ED9C02"/>
<path d="M453.889 426.107L453.667 426.477C451.167 430.582 448.263 434.428 445 437.957C416.645 470.339 367.224 475.573 332.5 449.657L376.2 390.779L377.978 388.261L386.865 376.411L388.643 373.893L432.338 315.015C467.264 340.769 476.494 389.543 453.889 426.107Z" fill="#FFDE76"/>
<path d="M470.585 377.878L468.252 362.785L389.261 374.219L387.395 376.811C385.072 379.849 380.389 385.97 378.066 389.011L376.2 391.6L387.862 469.048C393.051 468.746 398.203 467.98 403.256 466.761C402.407 461.127 396.248 420.035 393.22 399.992C411.866 413.538 440.211 434.181 448.428 440.157L457.528 428.342L457.761 427.961C449.829 422.194 421.11 401.311 402.415 387.722C422.876 384.745 465.173 378.664 470.585 377.878Z" fill="#FDB62F"/>
<path d="M450.334 333.309L423.746 369.228H423.672C416.646 378.813 405.194 394.128 398.195 403.593L394.495 408.555L387.682 417.812C382.578 424.727 379.648 433.005 379.265 441.592C378.882 450.178 381.065 458.684 385.534 466.026C366.499 466.836 347.768 461.054 332.5 449.658C360.179 412.329 404.651 352.289 432.334 315.016C439.268 320.118 445.344 326.293 450.334 333.309Z" fill="#FFD757"/>
<path d="M410.934 386.485C407.823 386.929 404.934 387.373 402.417 387.744C403.972 388.855 405.602 390.039 407.305 391.298L398.195 403.598C396.495 402.339 394.788 401.154 393.233 399.969C393.604 402.561 394.048 405.449 394.492 408.56C385.224 421.153 385.378 420.337 381.753 428.778L376.866 389.822L389.086 373.307L423.672 369.233H423.746L410.934 386.485Z" fill="#ED9C02"/>
</svg>
