<svg width="512" height="512" viewBox="0 0 512 512" fill="none" xmlns="http://www.w3.org/2000/svg">
<g clip-path="url(#clip0_5_12)">
<path d="M512 256C512 397.344 397.451 511.936 256.117 512H253.355C240.945 511.871 228.561 510.848 216.299 508.939C206.257 507.387 196.319 505.228 186.539 502.475C132.84 487.322 85.5596 455.046 51.8881 410.556C18.2167 366.066 -0.0030062 311.796 3.72042e-07 256C3.72042e-07 114.635 114.581 0.00010213 256 0.00010213H256.117C290.945 -0.031054 325.411 7.06657 357.392 20.856C389.374 34.6455 418.194 54.8349 442.08 80.1814C487.004 127.696 512.024 190.611 512 256Z" fill="white"/>
<path d="M191.392 179.861V191.381H154.176L49.6427 104.459C56.1041 95.6692 63.1229 87.3036 70.656 79.4133L191.392 179.861ZM462.688 104.928L358.763 191.328H320.608V180.64L441.76 79.8507L442.08 80.1813C449.063 87.5429 455.596 95.3188 461.643 103.467L462.688 104.928ZM191.392 320.597V332.117L70.656 432.587C69.5894 431.52 68.5227 430.368 67.52 429.248C61.1689 422.347 55.2042 415.101 49.6534 407.541L154.187 320.597H191.392ZM462.699 407.061C456.264 415.857 449.273 424.234 441.771 432.139L320.608 331.339V320.597H358.763L462.699 407.061Z" fill="#C8102E"/>
<path d="M102.24 191.381H8.224C13.5651 170.899 21.4486 151.165 31.6907 132.64L102.24 191.381ZM100.117 320.597L30.9333 378.133C21.0466 359.952 13.4203 340.63 8.224 320.597H100.117ZM191.392 374.699V503.765C189.771 503.349 188.192 502.912 186.539 502.453C152.995 493.007 121.742 476.787 94.7093 454.795L191.392 374.699ZM191.392 8.224V135.264L96.1493 56.032C124.177 33.5686 156.633 17.2772 191.392 8.224ZM417.312 57.2267L320.608 137.387V8.23467L322.069 8.608C356.897 17.8987 389.359 34.4694 417.312 57.2267ZM503.776 191.381H412.043L481.067 133.952C490.944 152.1 498.57 171.386 503.776 191.381ZM418.133 454.165C389.61 477.552 356.355 494.478 320.661 503.776V373.077L418.133 454.165ZM503.776 320.597C498.691 340.146 491.297 359.02 481.749 376.821L414.176 320.597H503.776Z" fill="#012169"/>
<path d="M512 253.323V258.432C511.89 270.369 510.952 282.284 509.195 294.091H294.091V509.184C282.358 510.934 270.518 511.875 258.656 512H253.323C241.456 511.878 229.613 510.933 217.877 509.173V294.091H2.816C1.06563 282.343 0.124742 270.49 0 258.613L0 253.568C0.11035 241.628 1.0477 229.709 2.80533 217.899H217.909V2.816C229.079 1.14607 240.345 0.205412 251.637 0L259.893 0C270.669 0.154069 281.425 0.987725 292.096 2.496L294.091 2.79467V217.899H509.184C510.934 229.628 511.875 241.464 512 253.323Z" fill="#C8102E"/>
</g>
<defs>
<clipPath id="clip0_5_12">
<rect width="512" height="512" fill="white"/>
</clipPath>
</defs>
</svg>
