<svg width="512" height="512" viewBox="0 0 512 512" fill="none" xmlns="http://www.w3.org/2000/svg">
<path d="M72.9771 433.214C72.9771 433.214 95.9146 479.886 160.905 488.806C196.107 493.585 229.797 495.098 253.212 495.417H254.726C278.221 495.178 313.025 493.744 349.503 488.806C414.492 479.966 437.43 433.214 437.43 433.214H72.9771Z" fill="#E5E6EA"/>
<path d="M365.431 472.877C328.954 477.815 294.15 479.249 270.655 479.488H269.141C245.726 479.169 212.036 477.735 176.833 472.877C136.852 467.461 112.799 447.63 100.215 433.214H72.9771C72.9771 433.214 95.9146 479.886 160.905 488.806C196.107 493.585 229.797 495.098 253.212 495.417H254.726C278.221 495.178 313.025 493.744 349.503 488.806C392.272 482.992 416.722 460.851 428.51 446.356C414.572 457.665 394.103 468.895 365.431 472.877Z" fill="#BABDC2"/>
<path d="M457.421 360.18L57.6056 359.065C27.0222 369.18 9.10217 381.923 9.10217 395.781C9.10217 429.949 119.569 457.665 255.92 457.665C392.272 457.665 502.898 430.028 502.898 395.781C502.898 382.401 486.013 370.056 457.421 360.18Z" fill="#E5E6EA"/>
<path d="M271.849 441.657C135.498 441.657 25.0311 414.02 25.0311 379.852C25.0311 377.463 25.7479 375.153 26.7832 372.844C15.4737 379.932 9.10217 387.658 9.10217 395.781C9.10217 429.949 119.569 457.665 255.92 457.665C382.874 457.665 487.447 433.692 501.305 402.79C464.987 425.568 375.945 441.657 271.849 441.657Z" fill="#BABDC2"/>
<path d="M457.899 276.713C455.748 266.996 446.589 262.536 438.625 256.643C424.528 246.209 411.864 199.776 369.812 200.732C356.352 201.051 351.812 207.502 338.273 206.944C328.875 206.626 320.353 201.767 311.99 197.467C293.274 187.83 267.15 187.591 246.124 186.157C200.328 182.971 158.356 209.812 120.764 236.174C102.127 249.236 83.0122 263.094 72.3399 283.244C55.8535 314.385 64.5347 354.844 87.552 381.525C110.569 408.206 145.374 422.383 180.338 427.241C197.78 429.63 215.381 430.028 232.983 429.232C248.434 437.117 267.947 433.533 284.035 426.285C301.238 418.56 316.928 407.25 335.167 402.71C359.219 396.657 385.9 402.631 408.36 392.277C423.89 385.109 435.28 370.932 442.448 355.481C449.616 339.951 452.961 323.066 456.306 306.261C458.058 296.465 460.049 286.35 457.899 276.713Z" fill="#FCD2A0"/>
<path d="M339.308 389.33C337.872 389.351 336.486 388.801 335.455 387.8C334.425 386.799 333.834 385.43 333.813 383.994C333.791 382.558 334.342 381.172 335.342 380.141C336.343 379.11 337.712 378.52 339.149 378.498C358.184 377.861 376.98 374.676 395.139 369.1C408.678 364.879 417.997 360.34 425.324 354.446C434.324 347.119 439.899 337.482 440.616 327.924C441.412 317.65 435.837 307.615 427.474 304.111C424.687 302.996 423.413 299.81 424.528 297.022C425.643 294.235 428.828 292.96 431.616 294.155C444.2 299.412 452.483 313.986 451.368 328.8C450.412 341.304 443.403 353.729 432.094 362.888C421.262 371.649 408.28 376.348 398.245 379.534C379.21 385.427 359.458 388.773 339.467 389.41C339.388 389.33 339.308 389.33 339.308 389.33Z" fill="#F3B530"/>
<path d="M339.308 362.41C336.6 362.41 334.29 360.419 333.972 357.632C333.653 354.685 335.724 351.977 338.671 351.658C390.201 345.526 403.661 327.208 403.501 318.367C403.422 314.703 401.431 310.641 398.325 308.172C396.891 307.057 394.024 305.226 390.599 305.863C387.652 306.42 384.785 304.588 384.227 301.642C383.67 298.695 385.502 295.828 388.449 295.27C394.183 294.075 400.077 295.668 405.094 299.73C410.749 304.35 414.253 311.279 414.333 318.208C414.413 321.792 412.661 353.729 339.945 362.41H339.308Z" fill="#F3B530"/>
<path d="M311.512 336.606C309.123 336.606 306.813 336.526 304.424 336.446C303.717 336.423 303.022 336.259 302.378 335.966C301.735 335.673 301.156 335.255 300.675 334.736C300.193 334.218 299.82 333.61 299.574 332.946C299.329 332.283 299.218 331.578 299.247 330.871C299.326 327.924 302.034 325.615 304.822 325.694C320.751 326.252 336.68 324.738 352.21 321.234C357.865 319.96 358.821 318.367 358.98 317.809C359.41 316.495 360.327 315.395 361.543 314.736C362.758 314.077 364.18 313.909 365.516 314.266C366.852 314.623 368.001 315.478 368.725 316.655C369.45 317.833 369.697 319.243 369.414 320.597C367.184 328.88 357.706 331.11 354.6 331.827C340.423 335.013 326.007 336.606 311.512 336.606ZM153.099 375.791C152.542 375.791 152.064 375.711 151.506 375.552C140.197 372.047 130.799 367.428 122.755 361.534C113.436 354.605 106.985 346.322 104.277 337.482C98.3039 318.287 109.215 298.774 122.675 287.943C124.985 286.111 128.409 286.43 130.241 288.739C132.073 291.049 131.755 294.474 129.445 296.305C119.171 304.588 110.091 319.96 114.551 334.216C117.18 342.579 123.949 348.95 129.126 352.773C136.135 357.95 144.498 362.012 154.692 365.198C155.943 365.568 157.018 366.379 157.718 367.479C158.419 368.58 158.698 369.897 158.504 371.187C158.31 372.477 157.656 373.654 156.663 374.5C155.67 375.346 154.404 375.804 153.099 375.791Z" fill="#F3B530"/>
<path d="M124.905 386.781C124.666 386.781 124.427 386.781 124.188 386.702C95.4367 382.799 71.623 356.994 70.0301 328.004C68.4372 299.013 89.3041 270.74 117.498 263.731C120.365 263.014 123.312 264.766 124.029 267.633C124.746 270.501 122.994 273.447 120.126 274.164C97.1889 279.899 79.5875 303.712 80.8618 327.367C82.1361 350.941 102.286 372.764 125.702 375.95C128.648 376.348 130.719 379.056 130.321 382.003C129.923 384.79 127.613 386.781 124.905 386.781ZM325.689 258.793C324.542 258.804 323.424 258.441 322.503 257.757C312.707 250.589 301.477 245.413 289.849 242.705C272.088 238.563 252.894 239.997 235.929 246.846C229.558 249.395 224.54 252.262 220.638 255.687C219.542 256.608 218.13 257.065 216.702 256.961C215.274 256.857 213.943 256.2 212.992 255.129C212.07 254.033 211.613 252.621 211.717 251.193C211.821 249.765 212.479 248.434 213.549 247.483C218.408 243.262 224.381 239.837 231.868 236.811C250.903 229.165 272.327 227.572 292.238 232.192C305.22 235.218 317.884 241.032 328.795 248.997C331.184 250.749 331.742 254.173 329.99 256.563C328.954 258.076 327.361 258.793 325.689 258.793Z" fill="#F3B530"/>
<path d="M352.29 242.466C350.697 242.466 349.104 241.749 347.989 240.395C339.228 229.165 326.326 220.325 310.795 214.909C297.495 210.289 282.362 208.059 264.602 208.298C245.248 208.458 228.045 211.404 213.39 217.059C208.134 219.13 203.116 221.519 198.417 224.307C195.868 225.82 192.523 225.024 191.01 222.395C190.644 221.785 190.402 221.108 190.3 220.403C190.198 219.699 190.237 218.981 190.415 218.292C190.593 217.602 190.906 216.955 191.336 216.388C191.767 215.821 192.306 215.345 192.922 214.988C198.098 211.882 203.674 209.174 209.488 206.944C225.337 200.812 243.814 197.546 264.522 197.387C283.637 197.307 299.884 199.617 314.379 204.635C331.901 210.688 346.476 220.723 356.511 233.625C358.343 236.015 357.945 239.36 355.555 241.191C354.672 242.021 353.502 242.478 352.29 242.466ZM156.604 399.445C154.453 399.445 152.382 398.171 151.586 396.02C151.329 395.356 151.206 394.648 151.223 393.936C151.24 393.224 151.397 392.523 151.686 391.872C151.974 391.221 152.388 390.633 152.904 390.142C153.42 389.651 154.028 389.267 154.692 389.012C192.045 374.516 222.071 343.136 235.053 305.226C236.009 302.438 239.115 300.845 241.903 301.881C244.69 302.836 246.204 305.942 245.248 308.73C231.31 349.667 198.895 383.436 158.595 399.126C157.878 399.286 157.241 399.445 156.604 399.445ZM190.532 412.586C188.461 412.586 186.55 411.392 185.594 409.48C185.294 408.837 185.124 408.141 185.094 407.433C185.064 406.724 185.174 406.016 185.418 405.35C185.662 404.684 186.036 404.072 186.517 403.551C186.998 403.03 187.578 402.609 188.222 402.312C217.771 388.693 242.301 363.844 255.442 334.057C256.637 331.349 259.823 330.075 262.61 331.269C265.318 332.464 266.593 335.65 265.398 338.437C251.221 370.614 224.779 397.454 192.842 412.188C192.106 412.474 191.321 412.61 190.532 412.586ZM234.337 421.905C233.404 421.908 232.487 421.668 231.676 421.207C230.866 420.745 230.19 420.08 229.717 419.276C229.351 418.666 229.11 417.989 229.008 417.284C228.905 416.58 228.944 415.862 229.122 415.173C229.3 414.483 229.613 413.836 230.044 413.269C230.474 412.702 231.013 412.226 231.629 411.869C239.036 407.489 245.965 402.233 252.177 396.259C254.327 394.188 257.752 394.268 259.823 396.498C261.894 398.649 261.814 402.073 259.664 404.144C252.814 410.675 245.248 416.409 237.124 421.188C236.168 421.666 235.213 421.905 234.337 421.905Z" fill="#F3B530"/>
<path d="M191.806 324.34C191.09 324.34 190.293 324.181 189.576 323.862C186.868 322.668 185.674 319.402 186.868 316.694C194.479 299.93 207.006 285.875 222.788 276.394C231.868 270.978 245.885 265.005 261.017 267.474C276.23 269.943 288.415 281.253 290.645 294.872C290.794 296.249 290.41 297.63 289.572 298.732C288.733 299.835 287.505 300.574 286.138 300.798C284.772 301.022 283.371 300.715 282.224 299.938C281.078 299.162 280.272 297.976 279.973 296.624C278.539 287.704 269.778 279.899 259.265 278.146C247.398 276.235 235.929 281.173 228.363 285.713C214.47 294.043 203.442 306.405 196.744 321.154C195.868 323.146 193.877 324.34 191.806 324.34ZM174.524 358.986C173.807 358.986 173.17 358.826 172.453 358.587C165.444 355.72 158.117 352.773 151.586 347.835C143.86 342.021 138.843 334.455 137.489 326.411C135.816 316.376 140.754 306.022 149.117 301.96C151.825 300.606 155.011 301.721 156.365 304.429C157.719 307.137 156.604 310.323 153.896 311.677C149.754 313.668 147.285 319.323 148.161 324.659C149.276 331.668 154.851 336.765 158.037 339.154C163.453 343.216 170.064 345.924 176.435 348.552C179.223 349.667 180.497 352.853 179.382 355.561C178.665 357.711 176.594 358.986 174.524 358.986Z" fill="#F3B530"/>
<path d="M356.432 172.299C354.6 172.299 352.768 171.423 351.573 169.83C349.582 167.202 350.219 163.458 352.848 161.467C364.476 152.945 368.936 135.344 362.803 122.282C360.175 116.787 356.033 111.929 351.573 106.752C346.157 100.46 340.503 93.9289 337.397 85.5662C333.733 75.6107 334.689 64.1419 340.025 53.9474C345.361 43.7529 354.361 36.4256 364.635 33.877C367.821 33.0805 371.086 34.992 371.883 38.2574C372.679 41.4432 370.768 44.7086 367.502 45.5051C360.493 47.2572 354.361 52.3545 350.538 59.5225C346.715 66.6905 345.998 74.7346 348.547 81.4247C350.936 87.7963 355.635 93.2121 360.573 98.9465C365.352 104.442 370.21 110.176 373.555 117.185C382.157 135.424 376.104 159.078 359.856 171.025C358.901 171.98 357.626 172.299 356.432 172.299ZM260.699 155.175C258.867 155.175 257.035 154.299 255.841 152.707C253.849 150.078 254.487 146.335 257.115 144.344C268.743 135.822 273.203 118.22 267.07 105.159C264.442 99.6633 260.301 94.805 255.841 89.6281C250.425 83.3362 244.85 76.8053 241.664 68.4427C238 58.4871 238.956 47.0183 244.292 36.7442C249.628 26.5497 258.628 19.2224 268.902 16.6738C272.088 15.8773 275.353 17.7888 276.15 21.0542C276.946 24.3196 275.115 27.5851 271.929 28.3815C264.92 30.1337 258.787 35.2309 254.965 42.3989C251.142 49.5669 250.425 57.611 252.973 64.3012C255.363 70.6727 260.062 76.0885 265 81.8229C269.778 87.3184 274.637 93.0528 277.982 100.062C286.583 118.3 280.53 141.955 264.283 153.901C263.271 154.727 262.005 155.177 260.699 155.175ZM164.966 172.299C163.134 172.299 161.303 171.423 160.108 169.83C158.117 167.202 158.754 163.458 161.382 161.467C173.01 152.945 177.47 135.344 171.338 122.282C168.71 116.787 164.568 111.929 160.108 106.752C154.692 100.46 149.037 93.9289 145.931 85.5662C142.268 75.6107 143.223 64.1419 148.56 53.9474C153.896 43.7529 162.896 36.4256 173.17 33.877C176.435 33.0805 179.621 34.992 180.417 38.2574C181.214 41.5228 179.302 44.7086 176.037 45.5051C169.028 47.2572 162.896 52.3545 159.073 59.5225C155.25 66.6905 154.533 74.7346 157.081 81.4247C159.471 87.7963 164.17 93.2121 169.108 99.0262C173.886 104.522 178.745 110.256 182.09 117.265C190.691 135.503 184.638 159.158 168.391 171.104C167.435 171.98 166.241 172.299 164.966 172.299ZM198.576 262.855C198.576 279.182 185.276 292.642 168.789 292.642C152.303 292.642 139.002 279.262 139.002 262.855C139.002 246.448 152.303 232.988 168.789 232.988C185.276 232.988 198.576 246.448 198.576 262.855Z" fill="#D73A33"/>
<path d="M176.754 284.677C160.347 284.677 146.967 271.297 146.967 254.89C146.967 248.678 148.878 242.864 152.144 238.085C146.86 241.662 142.862 246.837 140.735 252.852C138.609 258.867 138.466 265.406 140.328 271.508C142.19 277.61 145.958 282.955 151.08 286.759C156.203 290.562 162.409 292.624 168.789 292.642C178.984 292.642 188.063 287.465 193.399 279.58C188.621 282.766 182.886 284.677 176.754 284.677Z" fill="#A22624"/>
<path d="M418.952 253.457C418.952 269.784 405.652 283.244 389.165 283.244C372.759 283.244 359.378 269.864 359.378 253.457C359.378 237.05 372.679 223.59 389.165 223.59C405.652 223.59 418.952 237.05 418.952 253.457Z" fill="#D73A33"/>
<path d="M397.13 275.279C380.723 275.279 367.343 261.899 367.343 245.492C367.343 239.28 369.254 233.466 372.52 228.687C367.236 232.263 363.238 237.439 361.111 243.454C358.985 249.469 358.842 256.008 360.704 262.11C362.566 268.212 366.334 273.557 371.457 277.361C376.579 281.164 382.785 283.226 389.165 283.244C399.36 283.244 408.439 278.067 413.776 270.182C409.077 273.368 403.342 275.279 397.13 275.279Z" fill="#A22624"/>
<path d="M364.316 287.226C364.316 301.004 353.087 312.314 339.228 312.314C332.674 312.149 326.443 309.429 321.865 304.735C317.287 300.04 314.725 293.743 314.725 287.186C314.725 280.629 317.287 274.332 321.865 269.638C326.443 264.943 332.674 262.223 339.228 262.058C353.087 262.058 364.316 273.368 364.316 287.226Z" fill="#D73A33"/>
<path d="M345.998 305.624C332.14 305.624 320.91 294.314 320.91 280.536C320.91 275.279 322.503 270.421 325.291 266.359C320.839 269.371 317.47 273.73 315.678 278.796C313.886 283.863 313.765 289.371 315.333 294.512C316.901 299.652 320.075 304.155 324.39 307.359C328.705 310.563 333.934 312.3 339.308 312.314C347.91 312.314 355.556 307.934 360.016 301.323C356.033 304.031 351.175 305.624 345.998 305.624Z" fill="#A22624"/>
<path d="M318.76 371.729C318.76 385.507 307.53 396.817 293.672 396.817C287.117 396.652 280.886 393.932 276.308 389.237C271.731 384.543 269.169 378.246 269.169 371.689C269.169 365.132 271.731 358.835 276.308 354.14C280.886 349.446 287.117 346.726 293.672 346.561C307.53 346.641 318.76 357.871 318.76 371.729Z" fill="#D73A33"/>
<path d="M300.362 390.127C286.504 390.127 275.274 378.817 275.274 365.039C275.274 359.782 276.867 354.924 279.654 350.862C275.203 353.873 271.834 358.232 270.042 363.299C268.25 368.366 268.129 373.874 269.697 379.015C271.265 384.155 274.439 388.658 278.754 391.862C283.069 395.066 288.297 396.802 293.672 396.817C302.273 396.817 309.919 392.436 314.379 385.826C310.397 388.534 305.539 390.127 300.362 390.127Z" fill="#A22624"/>
</svg>
