<svg width="512" height="512" viewBox="0 0 512 512" fill="none" xmlns="http://www.w3.org/2000/svg">
<g clip-path="url(#clip0_2_156)">
<path d="M293.515 115.204C282.276 118.337 270.843 113.11 265.558 103.485C253.71 81.6648 221.132 76.5009 203.186 94.0708C194.421 102.446 181.695 102.575 173.129 96.6688C153.051 83.1958 122.613 91.5908 113.329 115.587C109.227 126.231 98.2688 132.126 87.1409 130.047C75.8319 127.771 62.18 133.727 55.531 141.29L192.894 278.656C201.819 279.39 210.756 279.949 219.702 280.332L343.342 154.626C344.62 129.583 318.132 108.224 293.515 115.204Z" fill="#00B04B"/>
<path d="M271.405 150.606C297.671 176.872 339.151 178.642 367.468 155.916C370.796 153.243 371.026 148.243 368.007 145.224L276.788 54.0039C273.768 50.9849 268.768 51.2159 266.097 54.5439C243.374 82.8599 245.144 124.344 271.405 150.606Z" fill="#FF5368"/>
<path d="M276.87 145.146C251.765 120.04 251.765 79.1919 276.87 54.0859C270.562 47.7819 260.054 48.9349 255.23 56.4379C235.358 87.3369 238.929 129.056 265.944 156.071C292.956 183.087 334.674 186.657 365.577 166.782C373.077 161.958 374.229 151.45 367.925 145.142C342.823 170.247 301.972 170.247 276.87 145.146Z" fill="#C5324F"/>
<path d="M307.827 114.185C315.874 122.231 328.921 122.231 336.967 114.185L307.827 85.0477C299.78 93.0947 299.78 106.138 307.827 114.185Z" fill="#FF7C8B"/>
<path d="M273.823 93.8248C273.331 98.0048 273.374 102.239 273.953 106.407C274.236 108.436 275.313 110.27 276.948 111.505C278.583 112.74 280.642 113.275 282.671 112.993C283.676 112.853 284.644 112.516 285.519 112.002C286.393 111.489 287.159 110.807 287.77 109.998C288.382 109.188 288.828 108.266 289.083 107.284C289.338 106.301 289.397 105.279 289.257 104.274C288.857 101.411 288.828 98.5082 289.171 95.6378C289.41 93.6032 288.832 91.5569 287.563 89.9484C286.295 88.34 284.439 87.301 282.405 87.0598C278.167 86.5598 274.323 89.5868 273.823 93.8248ZM301.956 126.134C300.819 125.255 299.739 124.305 298.722 123.29C297.697 122.265 296.739 121.175 295.854 120.028C293.253 116.649 288.401 116.021 285.019 118.626C284.215 119.245 283.542 120.017 283.036 120.896C282.531 121.776 282.203 122.747 282.073 123.753C281.943 124.759 282.012 125.781 282.277 126.761C282.541 127.74 282.997 128.658 283.616 129.462C286.189 132.797 289.179 135.79 292.511 138.368C293.314 138.988 294.231 139.444 295.21 139.709C296.19 139.975 297.211 140.045 298.218 139.916C299.224 139.786 300.195 139.46 301.075 138.955C301.955 138.45 302.727 137.777 303.347 136.974C304.599 135.352 305.156 133.299 304.896 131.266C304.635 129.233 303.577 127.387 301.956 126.134Z" fill="#FFCF5D"/>
<path d="M188.828 259.685C182.324 255.205 179.832 246.86 183.055 239.564C190.297 223.087 179.441 203.868 162.922 200.599C155.793 199.282 149.59 192.919 149.398 184.435C149.211 166.856 130.628 153.29 114.047 158.224C106.707 160.372 98.497 157.298 94.507 150.184C85.824 134.544 62.262 132.004 50.555 145.032C44.992 151.384 36.387 152.095 28.148 150.282C11.426 146.482 -5.43 161.599 1.664 177.751C3.707 182.517 7.52 186.356 11.754 188.767C19.238 193.052 25.445 199.114 24.426 207.763C23.359 217.021 26.453 226.587 33.059 233.501C38.883 239.396 43.617 240.841 47.305 242.368C48.785 242.981 50.102 243.614 51.246 244.548C59.828 249.11 71.207 254.032 86.184 258.86C118.359 269.235 157.906 276.216 200.691 279.251C199.504 271.224 195.094 263.872 188.828 259.685Z" fill="#4FE267"/>
<path d="M189.867 134.024C150.039 134.024 117.754 166.31 117.754 206.138C117.754 220.243 121.816 233.392 128.82 244.505C162.703 251.525 201.395 255.552 241.773 256.169C254.277 243.2 261.98 225.571 261.98 206.138C261.977 166.31 229.691 134.024 189.867 134.024Z" fill="#FF5368"/>
<path d="M197.593 247.344V164.93C197.593 160.66 194.132 157.203 189.866 157.203C188.852 157.203 187.847 157.403 186.909 157.791C185.972 158.179 185.12 158.749 184.402 159.466C183.685 160.184 183.116 161.036 182.728 161.973C182.339 162.911 182.14 163.916 182.14 164.93V247.344C182.14 249.527 183.05 251.496 184.507 252.902C187.687 253.222 190.89 253.52 194.112 253.793C195.182 253.091 196.06 252.134 196.667 251.008C197.275 249.882 197.592 248.623 197.592 247.343L197.593 247.344Z" fill="#FF7C8B"/>
<path d="M210.468 206.137C210.468 217.516 201.245 226.738 189.866 226.738C178.487 226.738 169.261 217.516 169.261 206.137C169.261 194.757 178.487 185.531 189.866 185.531C201.246 185.531 210.468 194.758 210.468 206.137Z" fill="#FF7C8B"/>
<path d="M189.867 126.298C145.844 126.298 110.027 162.114 110.027 206.138C110.019 218.707 112.998 231.098 118.719 242.29C125.736 243.912 132.792 245.368 139.879 246.657C130.883 235.583 125.48 221.481 125.48 206.137C125.48 170.634 154.363 141.751 189.867 141.751C225.367 141.751 254.254 170.634 254.254 206.138C254.254 226.169 245.054 244.091 230.66 255.911C237.707 256.13 244.809 256.243 251.957 256.251C263.047 242.541 269.707 225.103 269.707 206.138C269.703 162.114 233.887 126.298 189.867 126.298Z" fill="#C5324F"/>
<path d="M159.612 167.695C156.306 170.304 153.347 173.324 150.808 176.684C150.196 177.494 149.75 178.416 149.495 179.397C149.239 180.379 149.18 181.402 149.32 182.407C149.459 183.412 149.796 184.379 150.31 185.254C150.824 186.128 151.506 186.893 152.315 187.504C153.654 188.52 155.288 189.069 156.968 189.066C158.164 189.068 159.343 188.792 160.413 188.259C161.484 187.727 162.416 186.954 163.136 186C164.879 183.694 166.912 181.621 169.183 179.832C172.53 177.188 173.108 172.328 170.463 168.98C169.195 167.372 167.339 166.333 165.304 166.092C163.27 165.851 161.222 166.428 159.612 167.695ZM169.151 232.418C166.882 230.627 164.852 228.551 163.112 226.242C162.502 225.432 161.737 224.751 160.863 224.236C159.988 223.721 159.021 223.384 158.016 223.243C157.012 223.103 155.989 223.161 155.007 223.416C154.025 223.671 153.102 224.116 152.292 224.727C151.482 225.338 150.8 226.103 150.286 226.977C149.771 227.851 149.434 228.819 149.293 229.823C149.152 230.828 149.211 231.851 149.465 232.833C149.72 233.815 150.165 234.738 150.776 235.547C153.31 238.91 156.265 241.934 159.569 244.543C160.931 245.622 162.617 246.209 164.354 246.207C165.96 246.209 167.526 245.71 168.836 244.78C170.145 243.85 171.132 242.536 171.659 241.019C172.187 239.503 172.229 237.859 171.779 236.318C171.33 234.776 170.411 233.414 169.151 232.418ZM156.659 210.434C156.295 207.57 156.296 204.67 156.663 201.805C156.794 200.799 156.725 199.776 156.461 198.797C156.196 197.817 155.741 196.898 155.121 196.094C154.502 195.291 153.73 194.617 152.849 194.111C151.969 193.606 150.998 193.278 149.991 193.148C145.765 192.598 141.886 195.586 141.339 199.82C140.8 203.997 140.798 208.225 141.331 212.402C141.461 213.409 141.787 214.38 142.291 215.261C142.796 216.141 143.469 216.913 144.272 217.534C145.075 218.154 145.992 218.61 146.972 218.876C147.951 219.142 148.973 219.212 149.979 219.082C152.012 218.821 153.857 217.763 155.109 216.141C156.362 214.519 156.92 212.467 156.659 210.434ZM210.577 179.852C212.846 181.644 214.876 183.72 216.617 186.027C217.337 186.985 218.27 187.761 219.342 188.295C220.413 188.828 221.595 189.105 222.792 189.102C224.409 189.102 226.042 188.594 227.436 187.547C229.072 186.313 230.151 184.479 230.436 182.449C230.72 180.42 230.186 178.36 228.952 176.723C226.417 173.361 223.461 170.337 220.155 167.727C218.544 166.499 216.515 165.953 214.505 166.207C212.495 166.461 210.664 167.494 209.409 169.084C208.153 170.673 207.572 172.693 207.79 174.707C208.009 176.721 209.01 178.569 210.577 179.852ZM227.413 224.766C224.011 222.191 219.167 222.867 216.593 226.273C214.851 228.579 212.82 230.652 210.55 232.441C208.941 233.71 207.902 235.566 207.661 237.601C207.42 239.636 207.997 241.684 209.265 243.293C209.989 244.212 210.911 244.954 211.964 245.463C213.016 245.973 214.17 246.237 215.339 246.234C217.015 246.234 218.699 245.691 220.116 244.574C223.424 241.968 226.383 238.947 228.921 235.586C231.495 232.184 230.819 227.34 227.413 224.766ZM238.397 199.867C237.854 195.637 233.979 192.648 229.749 193.191C227.717 193.452 225.872 194.509 224.619 196.131C223.367 197.752 222.809 199.804 223.069 201.836C223.253 203.254 223.343 204.699 223.343 206.133C223.343 207.582 223.249 209.039 223.065 210.469C222.935 211.476 223.005 212.498 223.27 213.477C223.535 214.456 223.99 215.374 224.609 216.177C225.229 216.981 226.001 217.654 226.881 218.159C227.76 218.665 228.731 218.992 229.737 219.121C230.073 219.164 230.405 219.187 230.737 219.187C232.613 219.185 234.424 218.5 235.832 217.261C237.24 216.022 238.149 214.313 238.39 212.453C238.663 210.371 238.8 208.246 238.8 206.133C238.8 204.043 238.663 201.933 238.397 199.867Z" fill="#FFCF5D"/>
<path d="M471.58 114.907C459.752 117.497 447.396 116.481 439.404 107.407C422.6 88.8017 388.768 92.4267 376.295 114.771C370.569 124.931 358.785 129.321 348.241 126.255C324.433 119.205 297.749 138.587 297.483 163.699C297.206 175.82 288.3 184.91 278.065 186.789C254.343 191.457 238.753 218.918 249.155 242.449C253.785 252.879 250.202 264.793 240.862 271.195C237.182 273.641 233.956 276.848 231.304 280.563C239.292 280.832 247.358 280.977 255.484 280.977C316.847 280.977 374.999 273.121 419.233 258.855C425.154 256.949 435.846 252.84 440.697 250.93C446.205 241.969 450.482 247.937 464.529 233.79C474.014 223.914 478.459 210.246 476.928 197.023C475.463 184.668 484.373 176.008 495.123 169.883C501.201 166.441 506.678 160.957 509.607 154.148C519.795 131.075 495.596 109.478 471.58 114.907Z" fill="#4FE267"/>
<path d="M417.315 242.688C414.89 214.582 391.253 192.449 362.53 192.449C332.198 192.449 307.526 217.121 307.526 247.453C307.521 254.547 308.897 261.573 311.577 268.141C342.714 264.418 371.409 258.5 395.851 250.617C404.038 247.977 411.144 245.309 417.315 242.687V242.688Z" fill="#C5324F"/>
<path d="M386.628 216.547V216.332C386.578 203.23 375.847 192.5 362.745 192.449H362.53C332.202 192.449 307.526 217.121 307.526 247.453V247.668C307.558 255.801 311.71 263.02 317.987 267.34C335.277 265.078 351.753 262.129 367.104 258.535C379.034 248.438 386.628 233.367 386.628 216.547Z" fill="#FF5368"/>
<path d="M185.745 69.2858C179.734 63.2739 169.902 63.2739 163.891 69.2858C157.883 75.2938 157.883 85.1298 163.891 91.1378L185.745 112.989C191.753 119.001 201.589 119.001 207.597 112.989C213.604 106.981 213.604 97.1487 207.597 91.1378L185.745 69.2858ZM427.835 147.798H396.933C388.433 147.798 381.479 154.75 381.479 163.25C381.479 171.75 388.433 178.703 396.933 178.703H427.835C436.334 178.703 443.287 171.75 443.287 163.25C443.287 154.75 436.334 147.798 427.835 147.798ZM84.7899 181.574L62.934 203.426C56.926 209.434 56.926 219.27 62.934 225.281C68.941 231.289 78.7769 231.289 84.7889 225.281L106.641 203.426C112.652 197.418 112.652 187.582 106.641 181.574C100.629 175.562 90.7979 175.562 84.7899 181.574Z" fill="#FF7E40"/>
<path d="M472.861 241.895H39.1678C19.0349 241.895 4.40598 261.402 9.93796 281.012C23.4959 329.078 61.5618 370.699 113.859 397.582H398.174C450.404 370.734 488.439 329.18 502.041 281.192C507.619 261.512 493.068 241.895 472.861 241.895Z" fill="#E9E3D5"/>
<path d="M472.455 272.102L472.182 273.215C461.014 312.015 429.744 346.293 384.065 369.773C355.897 384.253 323.269 397.582 287.335 397.582H113.856C113.856 424.956 137.655 447.933 164.679 447.933H347.351C355.291 447.921 363.118 446.055 370.21 442.483C377.394 439.608 398.174 424.613 398.174 397.582C450.404 370.73 488.439 329.176 502.041 281.187C502.314 280.223 502.541 279.262 502.717 278.301C506.322 258.863 477.228 252.918 472.455 272.101V272.102Z" fill="#D3CDBF"/>
</g>
<defs>
<clipPath id="clip0_2_156">
<rect width="512" height="512" fill="white"/>
</clipPath>
</defs>
</svg>
