<svg width="512" height="512" viewBox="0 0 512 512" fill="none" xmlns="http://www.w3.org/2000/svg">
<path d="M333.594 507.638L277.807 484.128C274.502 482.738 271.07 481.669 267.56 480.934V341.788C267.56 323.712 269.866 305.709 274.423 288.216L278.075 274.196C278.075 274.025 233.089 273.702 233.089 273.702L236.899 288.505C241.352 305.807 243.605 323.602 243.605 341.469V481.122C240.385 481.845 237.236 482.85 234.192 484.127L178.405 507.637C176.122 508.599 176.81 512 179.287 512H332.713C335.189 512.001 335.876 508.6 333.594 507.638Z" fill="#D1DCED"/>
<path d="M345.755 7.84217e-07H166.243C164.073 -0.000833963 161.954 0.66475 160.174 1.9068C158.394 3.14884 157.038 4.90747 156.289 6.945C146.908 32.459 116.742 122.691 134.8 183.636C152.471 243.276 205.015 268.817 234.793 278.749C248.558 283.342 263.442 283.342 277.206 278.749C306.984 268.817 359.528 243.275 377.199 183.636C395.257 122.691 365.091 32.459 355.71 6.945C354.961 4.90756 353.605 3.14906 351.825 1.90705C350.045 0.665048 347.926 -0.000609858 345.755 7.84217e-07Z" fill="#E5EBF6"/>
<path d="M355.709 6.945C354.961 4.90747 353.605 3.14884 351.825 1.9068C350.045 0.66475 347.926 -0.000833963 345.755 7.84217e-07H303.052C303.052 7.84217e-07 348.403 112.032 327.187 183.635C310.246 240.81 261.257 266.646 231 277.434C232.295 277.896 233.569 278.34 234.792 278.748C248.557 283.341 263.441 283.341 277.205 278.748C306.983 268.816 359.527 243.274 377.198 183.635C395.256 122.691 365.09 32.459 355.709 6.945Z" fill="#D1DCED"/>
<path d="M129.885 156.771C130.717 166.122 132.289 175.163 134.799 183.635C152.469 243.27 205.005 268.812 234.784 278.746C248.554 283.339 263.443 283.339 277.212 278.746C306.991 268.812 359.528 243.27 377.197 183.635C379.707 175.163 381.28 166.122 382.111 156.771H129.885Z" fill="#96223B"/>
<path d="M378.293 179.643C378.481 178.913 378.667 178.182 378.842 177.445C378.924 177.1 379 176.751 379.079 176.405C379.244 175.684 379.406 174.961 379.558 174.233C379.627 173.903 379.693 173.571 379.76 173.24C379.914 172.475 380.064 171.708 380.206 170.937C380.26 170.644 380.312 170.351 380.364 170.058C380.555 168.99 380.732 167.92 380.896 166.847C381.043 165.893 381.181 164.934 381.31 163.971L381.361 163.595C381.657 161.341 381.907 159.066 382.111 156.771H332.096C331.264 166.122 329.695 175.164 327.185 183.635C310.244 240.81 261.255 266.646 230.998 277.434C231.55 277.631 232.103 277.825 232.656 278.017C233.355 278.259 234.054 278.501 234.73 278.727L234.785 278.746C248.554 283.338 263.44 283.338 277.208 278.746C277.751 278.565 278.316 278.368 278.874 278.176C279.272 278.039 279.658 277.911 280.064 277.769C280.604 277.58 281.165 277.373 281.717 277.174C282.16 277.014 282.593 276.863 283.043 276.697C283.544 276.512 284.063 276.311 284.574 276.118C285.095 275.921 285.607 275.732 286.136 275.526C286.576 275.355 287.031 275.169 287.477 274.992C288.093 274.748 288.703 274.51 289.329 274.254C289.949 274.001 290.585 273.728 291.215 273.463C291.682 273.267 292.14 273.08 292.612 272.877C293.182 272.632 293.764 272.369 294.341 272.114C294.888 271.873 295.428 271.641 295.98 271.39C296.572 271.122 297.176 270.834 297.774 270.556C298.321 270.302 298.861 270.057 299.413 269.794C299.962 269.532 300.521 269.251 301.074 268.98C301.686 268.681 302.294 268.39 302.91 268.08C303.279 267.894 303.655 267.693 304.026 267.504C304.833 267.091 305.639 266.682 306.453 266.25C307.014 265.952 307.581 265.635 308.145 265.328C308.775 264.985 309.402 264.652 310.034 264.298C310.567 264 311.103 263.682 311.637 263.375C312.306 262.991 312.974 262.616 313.645 262.219C314.003 262.007 314.362 261.78 314.72 261.565C315.57 261.053 316.421 260.545 317.273 260.012C317.597 259.81 317.921 259.592 318.244 259.387C319.131 258.823 320.019 258.261 320.906 257.673C321.256 257.441 321.604 257.194 321.954 256.959C322.815 256.379 323.677 255.802 324.536 255.199C324.866 254.967 325.194 254.72 325.524 254.485C326.401 253.86 327.279 253.236 328.152 252.585C328.375 252.419 328.596 252.241 328.819 252.073C331.026 250.417 333.187 248.701 335.299 246.927C335.384 246.855 335.467 246.778 335.552 246.707C336.651 245.78 337.736 244.837 338.807 243.878C338.992 243.712 339.172 243.536 339.356 243.368C340.33 242.485 341.3 241.594 342.259 240.675C342.417 240.524 342.571 240.362 342.728 240.21C343.715 239.26 344.688 238.295 345.645 237.316C345.701 237.259 345.754 237.198 345.81 237.141C346.877 236.045 347.924 234.931 348.953 233.799C349.08 233.659 349.202 233.511 349.328 233.37C350.295 232.302 351.243 231.218 352.173 230.118C352.264 230.01 352.351 229.896 352.441 229.788C353.412 228.633 354.364 227.461 355.294 226.273C355.386 226.155 355.474 226.029 355.566 225.911C358.597 222.008 361.399 217.933 363.958 213.706C364.089 213.49 364.21 213.262 364.339 213.045C366.02 210.238 367.59 207.366 369.047 204.436C369.173 204.182 369.288 203.914 369.412 203.658C372.561 197.212 375.164 190.514 377.195 183.634C377.495 182.622 377.78 181.601 378.053 180.573C378.138 180.266 378.213 179.953 378.293 179.643Z" fill="#841935"/>
</svg>
